<?xml version="1.0" encoding="utf-8"?>
<!-- Generator: Adobe Illustrator 19.1.0, SVG Export Plug-In . SVG Version: 6.00 Build 0)  -->
<svg version="1.1" id="Слой_1" xmlns="http://www.w3.org/2000/svg" xmlns:xlink="http://www.w3.org/1999/xlink" x="0px" y="0px"
	 viewBox="-420 596 112 97" style="enable-background:new -420 596 112 97;" xml:space="preserve">
<path d="M-389.8,640.7l25.8-44.7v0v0c0,0,23.6,40.4,24.7,42.8c-4.3,0-8,2-8,2l-16.7-27.5l0,0l-15.8,27.3
	C-379.8,640.7-389.8,640.7-389.8,640.7z M-355,654.6c0.8-1.3,1.2-2.6,1.2-3.9c0-3.8-2.2-8.3-13.8-8.2c-2,0-4.6,0.1-8.2,0.8l0,6.6
	c2.3-0.8,4.5-1.1,6.2-1.1c4,0,5.5,1.7,5.5,3.5c0,0.9-0.4,1.7-1,2.4L-355,654.6L-355,654.6z M-380.1,654.7c0.8-1.3,1.2-2.6,1.2-3.9
	c0-3.8-2.2-8.3-13.8-8.2c-2,0-4.6,0.1-8.3,0.8l0,6.6c2-0.7,4.1-1.1,6.2-1.1c4,0,5.5,1.7,5.5,3.5c0,0.9-0.4,1.7-1,2.4L-380.1,654.7
	L-380.1,654.7z M-390.6,662L-390.6,662c4.3-1.7,7.3-3.7,9.3-5.7l-10.8,0c-1.7,1.1-3.9,2.1-6,3.1l-3.3,1.5l0,7.1l22.6,0l0-6
	L-390.6,662L-390.6,662z M-365.5,662L-365.5,662c4.3-1.7,7.3-3.7,9.3-5.7l-10.8,0c-1.7,1.1-3.9,2.1-6,3.1l-3.3,1.5v7.1l22.6,0l0-6
	C-353.8,662-365.5,662-365.5,662z M-344.8,671.7l0,2.9l3.7,0l0,7h4.1l0-7l3.7,0l0-2.9L-344.8,671.7L-344.8,671.7z M-351.9,679.4
	v-2.5l0.9,0c0.4,0,1.9,0,1.9,1.2c0,1.2-1.3,1.2-1.9,1.2C-351,679.4-351.9,679.4-351.9,679.4z M-355.9,681.7l6.5,0
	c3.1,0,4.4-1.7,4.5-3.5c0-1.9-1.4-3.5-4.5-3.5l-2.3,0l0-2.9l-4.1,0L-355.9,681.7L-355.9,681.7z M-361.6,681.7h4.2l0-9.9l-9.8,0
	l0,3.2c0,1.9,0.2,4.2-1.3,4.2c-0.3,0-0.6,0-0.9-0.1l0,2.6c0.7,0.1,1.4,0.2,2.1,0.2c3.7,0,3.8-2.5,3.8-5.7l0-1.7l2,0L-361.6,681.7
	L-361.6,681.7z M-376,673.9c1.6,0,1.7,1.7,1.7,2.7c0,1-0.1,2.8-1.7,2.8c-1.6,0-1.7-1.7-1.7-2.8C-377.7,675.7-377.6,673.9-376,673.9
	L-376,673.9z M-376,671.6c-3.8,0-6,2-6,5.1c0,3.2,2.2,5.1,6,5.1c3.8,0,6-2,6-5.2C-370,673.5-372.2,671.6-376,671.6z M-389.8,677.6
	l1,0c0.4,0,1.6,0,1.6,1c0,0.4-0.2,1-1.6,1h-1.1C-389.8,679.7-389.8,677.6-389.8,677.6z M-389.8,673.8h1.1c1.1,0,1.5,0.5,1.5,0.9
	c0,0.3-0.1,1-1.6,1l-1,0L-389.8,673.8z M-393.7,671.7l0,9.9l6.3,0c1.4,0,4.5-0.1,4.5-2.7c0-1.6-1.4-2.2-2.4-2.4l0-0.1
	c1.3-0.2,2.2-1.1,2.2-2.3c0-0.9-0.6-2.6-4-2.6C-387.2,671.7-393.7,671.7-393.7,671.7z M-338,640.7l-0.2,1.6l3.2-1l-0.5,1.5l3.3-0.3
	l-0.8,1.4l3.3,0.4l-1.1,1.2l3.2,1.1l-1.3,1l2.9,1.7l-1.5,0.7l2.4,2.3l-1.6,0.3l1.9,2.7l-1.6,0l1.3,3.1l-1.6-0.3l0.6,3.3l-1.5-0.6
	l0,3.3l-1.3-0.9l-0.7,3.3l-1.1-1.2l-1.4,3l-0.8-1.4l-2,2.7l-0.5-1.5l-2.5,2.2l-0.2-1.6l-2.9,1.6l0.2-1.6l-3.2,1l0.5-1.5l-3.3,0.3
	l0.8-1.4l-3.3-0.4l1.1-1.2l-3.2-1.1l1.3-1l-2.9-1.7l1.5-0.7l-2.5-2.3l1.6-0.3l-1.4-2l10.7,0l0,5.3c0,0.7,0.6,1.3,1.3,1.3h4.6
	c0.7,0,1.3-0.6,1.3-1.3v-1.3c0.1,0,0.1,0,0.2,0l4.8,0c0.4,0,0.8-0.4,0.8-0.8c0-0.4-0.3-0.8-0.8-0.8c0,0,0,0,0,0l-4.8,0
	c-0.1,0-0.1,0-0.2,0l0-6.6c0.1,0,0.1,0,0.2,0l4.8,0c0.4,0,0.8-0.4,0.8-0.8c0-0.5-0.4-0.8-0.8-0.8l-4.8,0c-0.1,0-0.1,0-0.2,0v-1.2
	c0-0.7-0.6-1.3-1.3-1.3h-4.7c-0.7,0-1.3,0.6-1.3,1.3v5.3l-10,0l-0.9-2.2l1.6,0.3l-0.6-3.3l1.5,0.6l0.1-3.3l1.3,0.9l0.7-3.3l1.1,1.2
	l1.4-3l0.8,1.4l2-2.7l0.5,1.5l2.5-2.2l0.2,1.6L-338,640.7L-338,640.7z M-308,693L-308,693l-112,0.1h0l13.2-22.8l10,0l-8.2,14.2
	l2.8-1.7l0,1.8l0,0l2.8-1.8l0,1.8h0l2.8-1.8l0,1.8h0l2.8-1.8l0,1.8l0,0l2.8-1.8l0,1.8h0l2.8-1.8l0,1.8h0l2.8-1.8l0,1.8l2.8-1.8
	l0,1.8l2.8-1.8l0,1.8l2.8-1.8l0,1.8l2.8-1.8l0,1.8l2.8-1.8l0,1.8l2.8-1.8l0,1.8l2.8-1.8l0,1.8l2.8-1.8l0,1.8l2.8-1.8l0,1.8l0,0l0,0
	v0l2.8-1.8l0,1.8l2.8-1.8l0,1.8l2.8-1.8l0,1.8l2.8-1.8l0,1.8l2.8-1.8l0,1.8l2.8-1.8l0,1.8l2.8-1.8l0,1.8l2.8-1.8l0,1.8l2.8-1.8
	l0,1.8l2.8-1.8l0,1.8l2.8-1.8l0,1.8l2.8-1.8l0,1.8l2.7-1.7l-7.3-12.5c2.8-1.7,4.8-3.8,6.3-6.2L-308,693z"/>
</svg>
