<?xml version="1.0" encoding="utf-8"?>
<!-- Generator: Adobe Illustrator 19.1.0, SVG Export Plug-In . SVG Version: 6.00 Build 0)  -->
<svg version="1.1" id="Слой_1" xmlns="http://www.w3.org/2000/svg" xmlns:xlink="http://www.w3.org/1999/xlink" x="0px" y="0px"
	 viewBox="-420 595.5 202 48" style="enable-background:new -420 595.5 202 48;" xml:space="preserve">
<style type="text/css">
	.st0{fill:#EB2316;}
	.st1{fill:#FFFFFF;}
	.st2{fill:#008F32;}
</style>
<g>
	<path class="st0" d="M-367.2,629.5v-19.1h15.5v19.1h-3.8v-15.5h-7.9v15.5H-367.2z M-340.5,618.5h-2.2c-1.8,0-2.7,0.6-2.7,1.9
		c0,1.2,0.9,1.8,2.6,1.8c0.8,0,1.5,0,2.2-0.2C-340.5,622.1-340.5,618.5-340.5,618.5z M-337,615.6v13.9h-3.5v-4.8
		c-0.7,0.1-1.4,0.3-2.3,0.3l-2.9,4.5h-3.9l3.5-5c-1.8-0.8-2.8-2.1-2.8-4.2c0-2.8,2.1-4.8,6.2-4.8C-342.8,615.6-337,615.6-337,615.6z
		 M-313.3,616.8c1.1,1,1.6,2.5,1.6,4.3v8.4h-3.6v-7.7c0-2.1-1.1-3.2-2.8-3.2c-1.8,0-3.1,1.3-3.1,3.3v7.6h-3.6v-7.7
		c0-2.1-1.1-3.3-2.8-3.3c-1.8,0-3,1.3-3,3.4v7.6h-3.6v-13.9h3.5v2c0.8-1.5,2.4-2.4,4.3-2.4c1.7,0,3.4,0.8,4.1,2.5
		c1-1.5,2.9-2.5,5-2.5C-315.7,615.2-314.4,615.7-313.3,616.8 M-283.4,625.4c0.7-0.8,1.1-1.7,1.1-2.8c0-1.1-0.4-2.1-1.1-2.8
		c-0.7-0.8-1.6-1.2-2.8-1.2c-1.1,0-2.1,0.4-2.8,1.2c-0.7,0.8-1.1,1.7-1.1,2.8c0,1.1,0.4,2.1,1.1,2.8c0.7,0.8,1.6,1.2,2.8,1.2
		C-285.1,626.6-284.1,626.2-283.4,625.4 M-280.6,617.4c1.3,1.4,1.9,3.1,1.9,5.2s-0.7,3.8-2,5.2c-1.3,1.4-2.9,2.1-4.9,2.1
		c-1.7,0-3.3-0.7-4.4-2.1v7.5h-3.6v-19.7h3.6v1.8c1.1-1.4,2.7-2.2,4.4-2.2C-283.6,615.3-282,616-280.6,617.4 M-269.9,626.6
		c1.1,0,2-0.4,2.7-1.2c0.7-0.8,1.1-1.7,1.1-2.8c0-1.1-0.4-2-1.1-2.8c-0.7-0.8-1.6-1.1-2.7-1.1c-1.1,0-2,0.4-2.8,1.1
		c-0.7,0.8-1.1,1.7-1.1,2.8s0.4,2,1.1,2.8C-271.9,626.2-271,626.6-269.9,626.6 M-275.3,617.4c1.4-1.4,3.2-2.1,5.4-2.1s4,0.7,5.4,2.1
		c1.4,1.4,2.1,3.1,2.1,5.2c0,2.1-0.7,3.8-2.1,5.2c-1.4,1.4-3.2,2.1-5.4,2.1s-4-0.7-5.4-2.1c-1.4-1.4-2.1-3.1-2.1-5.2
		C-277.4,620.5-276.7,618.8-275.3,617.4 M-252.3,615.6h3.6v13.9h-3.6v-4.7c-1.1,0.6-2.2,0.9-3.1,0.9c-1.7,0-2.9-0.3-4-1
		c-1.1-0.8-1.7-2.3-1.7-4.4v-4.7h3.6v4.4c0,1.6,0.8,2.5,2.5,2.5c0.9,0,1.8-0.1,2.7-0.5L-252.3,615.6L-252.3,615.6z M-236.7,629.5
		l-5.6-6.4v6.4h-3.6v-14h3.6v5.5l5.1-5.5h4.6l-6.2,6.5l6.6,7.5H-236.7z"/>
	<path class="st0" d="M-222.8,619.7c-0.7-0.8-1.7-1.2-2.8-1.2c-1.2,0-2.1,0.4-2.8,1.2c-0.7,0.8-1.1,1.7-1.1,2.8
		c0,1.1,0.4,2.1,1.1,2.9c0.7,0.8,1.7,1.2,2.8,1.2c1.1,0,2.1-0.4,2.8-1.2c0.7-0.8,1.1-1.7,1.1-2.9
		C-221.6,621.5-222,620.5-222.8,619.7L-222.8,619.7z M-221.7,615.6h3.4v13.9h-3.4v-1.8c-1.2,1.5-2.7,2.2-4.5,2.2c-2,0-3.7-0.7-5-2.1
		c-1.3-1.4-1.9-3.2-1.9-5.3c0-2.1,0.7-3.8,2-5.2c1.3-1.4,3-2.1,4.9-2.1c1.7,0,3.3,0.8,4.5,2.2L-221.7,615.6L-221.7,615.6z
		 M-301.7,612.1c0-1.2,0.9-2.1,2.2-2.1c1.2,0,2.1,0.9,2.1,2.1c0,1.3-0.9,2.2-2.1,2.2C-300.8,614.3-301.7,613.4-301.7,612.1
		 M-306.2,621.2h7.1c-0.3-1.8-1.6-2.9-3.5-2.9C-304.4,618.2-305.7,619.3-306.2,621.2 M-305.1,610c1.2,0,2.2,0.9,2.2,2.1
		c0,1.3-0.9,2.2-2.2,2.2s-2.2-0.9-2.2-2.2C-307.3,611-306.3,610-305.1,610 M-295.7,623.8h-10.5c0.5,2,1.9,3,4.1,3
		c1.5,0,3.2-0.6,4.5-1.6l1.5,2.3c-1.8,1.6-3.8,2.3-6.1,2.3c-2.5,0-4.3-0.7-5.6-2.1s-1.9-3.1-1.9-5.2c0-2.1,0.7-3.9,2-5.2
		c1.4-1.4,3.1-2.1,5.3-2.1c2,0,3.7,0.6,5,1.9c1.3,1.3,2,2.9,2,5.1C-295.6,622.7-295.6,623.3-295.7,623.8"/>
	<path class="st1" d="M-396.5,595.5c-13,0-23.5,10.6-23.5,23.5c0,13,10.6,23.5,23.5,23.5c13,0,23.5-10.6,23.5-23.5
		C-372.9,606.1-383.5,595.5-396.5,595.5"/>
	<path class="st2" d="M-384.6,602.2c-1.8,4.6-5.9,5.6-11.8,5.6c-0.6,0-1.3,0-1.9,0c-0.6,0-1.1,0-1.7,0c-0.5,0-1,0-1.5,0
		c0.8-2,2.2-3.4,4-4.3c2.6-1.2,6-1.2,9.1-1.2C-387,602.3-385.7,602.3-384.6,602.2"/>
	<path class="st0" d="M-382.7,603.7c-2.7,5.8-8.6,6.4-13.7,6.4c-1.1,0-2.2,0-3.2,0l-1.3,5c6.6-5.3,15.2,0,14.3,8
		c-0.6,5.4-4.5,9-8.6,10c-4.5,1.1-9.4-0.6-11.6-5.1c-0.2-0.5-0.6-1.4-0.8-2l4.7-1.2c0.1,0.3,0.2,0.5,0.4,0.8
		c3.1,5.1,9.5,2.5,10.2-2.7c0.7-5.4-6.8-8.2-10.2-1.9l-4.2-1.8l-0.1,0l2-8.1c0.1-0.6,0.5-2.2,0.6-2.4c2.3-8.4,9.6-8.5,15.5-8.5
		c-2.4-1-5.1-1.6-7.9-1.6c-11.4,0-20.6,9.2-20.6,20.6c0,11.4,9.2,20.6,20.6,20.6c11.4,0,20.6-9.2,20.6-20.6
		C-375.8,613-378.5,607.5-382.7,603.7"/>
</g>
</svg>
