<?xml version="1.0" encoding="utf-8"?>
<!-- Generator: Adobe Illustrator 19.1.0, SVG Export Plug-In . SVG Version: 6.00 Build 0)  -->
<svg version="1.1" id="Capa_1" xmlns="http://www.w3.org/2000/svg" xmlns:xlink="http://www.w3.org/1999/xlink" x="0px" y="0px"
	 viewBox="-392 595.5 456 512" style="enable-background:new -392 595.5 456 512;" xml:space="preserve">
<style type="text/css">
	.st0{fill:#FFFFFF;}
</style>
<g>
	<g>
		<g>
			<path class="st0" d="M-68,595.5c-27.3,1.9-59.2,19.4-77.8,42.1c-17,20.6-30.9,51.3-25.5,81.1c29.8,0.9,60.6-17,78.5-40.1
				C-76.1,657.1-63.4,626.7-68,595.5z"/>
		</g>
	</g>
</g>
<g>
	<g>
		<g>
			<path class="st0" d="M39.9,767.3c-26.2-32.9-63-51.9-97.8-51.9c-45.9,0-65.3,22-97.2,22c-32.9,0-57.9-21.9-97.6-21.9
				c-39,0-80.5,23.8-106.9,64.6c-37,57.4-30.7,165.3,29.3,257.3c21.5,32.9,50.1,69.9,87.6,70.2c33.4,0.3,42.8-21.4,88-21.6
				c45.2-0.3,53.8,21.9,87.1,21.6c37.5-0.3,67.8-41.3,89.2-74.2c15.4-23.6,21.1-35.5,33.1-62.1C-32.1,938.2-46.1,814.7,39.9,767.3z"
				/>
		</g>
	</g>
</g>
</svg>
