<?xml version="1.0" encoding="utf-8"?>
<!-- Generator: Adobe Illustrator 19.1.0, SVG Export Plug-In . SVG Version: 6.00 Build 0)  -->
<svg version="1.1" id="Слой_1" xmlns="http://www.w3.org/2000/svg" xmlns:xlink="http://www.w3.org/1999/xlink" x="0px" y="0px"
	 viewBox="-420 595.5 130 40" style="enable-background:new -420 595.5 130 40;" xml:space="preserve">
<style type="text/css">
	.st0{fill:#FFFFFF;}
	.st1{fill:#00985F;}
	.st2{fill:#E0001A;}
</style>
<path class="st0" d="M-388,606c-0.3,0.3-0.3,0.8,0,1.1c0.3,0.3,0.8,0.3,1.1,0c0.3-0.3,0.3-0.8,0-1.1
	C-387.2,605.7-387.7,605.7-388,606z"/>
<path class="st1" d="M-380,605.5h-3.5l-0.8,1c-0.1,0.1-0.1,0.3,0,0.3l1.1,0.5l3.2-1.5C-379.7,605.8-379.7,605.5-380,605.5z
	 M-392.9,622.5h-4.3c-1.1,0.6-1.5,0.8-3,1.5c-0.1,0-0.1,0.1-0.1,0.3l3.8,10.7h2.2l-3.5-9.8c2.3,0,7.8-0.6,10.7-5.4
	C-388,621.1-390.1,622.5-392.9,622.5z M-386.9,607.1c-0.3,0.3-0.8,0.3-1.1,0c-0.3-0.3-0.3-0.8,0-1.1c0.3-0.3,0.8-0.3,1.1,0
	c-0.7-0.7-1.8-0.7-2.5,0c-0.7,0.7-0.7,1.8,0,2.5c0.7,0.7,1.8,0.7,2.5,0c0.7-0.7,0.7-1.8,0-2.5C-386.6,606.3-386.6,606.8-386.9,607.1
	z M-395.3,626.5c0.7-0.1,1.5-0.2,2.1-0.4l3.1,8.8h-2.2L-395.3,626.5z M-392.3,616.1c-2.8,4.2-7,7.2-13.8,7.2h-9.5
	c-0.2,0-0.2-0.2-0.1-0.3l2.5-2.5c-3.5,0-5.5-2.1-6.2-4.4c-0.1-0.1-0.1-0.4,0.1-0.4h10.6c1.1,0,1.9-0.3,2.5-0.9l8.5-7
	c-3.2,2.7-7.5,6.9-11.4,12.3c-0.1,0.1,0,0.3,0.2,0.3h5c3.3,0,7.6-0.6,12-5.3c0.1-0.1,0.2-0.1,0.3-0.1
	C-391.9,615.4-392.1,615.8-392.3,616.1z"/>
<path class="st2" d="M-297.7,634.9h7.7V611h-7.7v8.8h-7.3V611h-7.8v23.9h7.8v-9h7.3V634.9z M-389.3,608.4c-0.7-0.7-0.7-1.8,0-2.5
	c0.7-0.7,1.8-0.7,2.5,0c0.7,0.7,0.7,1.8,0,2.5S-388.7,609.1-389.3,608.4z M-387.1,619.7c3-4.8,4-12.3,4-12.3l-1.1-0.5
	c-0.1,0-0.2-0.2,0-0.3l0.8-1c-0.5-1-2.4-2.7-5.2-2.7c-1.7,0-3.1,0.4-4.4,1.3c0,0-1.9,1.3-4.7,3.7c-3.2,2.7-7.5,6.9-11.4,12.3
	c-0.1,0.2,0,0.3,0.2,0.3h5c3.3,0,7.6-0.6,12-5.3c0.1-0.1,0.2-0.1,0.3-0.1c0.1,0.1,0.1,0.2,0.1,0.3c-0.7,1.7-2.4,5.1-5.6,7.2h4.3
	C-390.1,622.5-388,621.1-387.1,619.7z M-391.4,625.5c3.6-1.7,5.1-3.4,6.7-6.8c2,5,4,10.4,6,16.2h-9.4L-391.4,625.5z M-420,634.9h9.5
	l3.2-10h-9.2C-417.6,627.9-418.8,631.2-420,634.9z M-407.2,613.4c-0.5,0.4-1.1,0.5-1.8,0.5h-3.8c3.9-9.5,7.3-16.5,8.2-18.4h10.6
	c0.4,0.9,1.4,2.9,2.7,5.9c-2.2,0.6-3.8,1.9-6.4,4c-0.5-1.3-1-2.6-1.6-3.8c-1.1,2.3-2.2,5.1-3.1,7.9L-407.2,613.4z M-348.6,632.3
	l0.5,2.6h6.3V611h-7.8v16.6c-0.6,0.8-2.1,1.7-3.2,1.7c-2.2,0-3.3-1.2-3.3-3.5V611h-7.7v16.6c-0.6,0.8-2.2,1.7-3.5,1.7
	c-2,0-3.1-1.2-3.1-3.5V611h-7.7v15.8c0,5.8,2.5,8.6,7.7,8.6c3.8,0,6-1.4,7.7-3.2c1.2,2.2,3.4,3.2,6.6,3.2
	C-352.4,635.4-350.3,634.1-348.6,632.3z M-324,627.6c-0.7,0.8-1.9,1.7-3.7,1.7c-2.1,0-3.2-2-3.2-5.7c0-4.6,1.2-6.9,3.7-6.9
	c1.5,0,2.2,0.1,3.2,0.3V627.6z M-330.4,635.4h0.2c3.4,0,5.8-1.2,7.2-3.1l0.4,2.6h6.3V612c-2.5-0.8-5.4-1.5-10.9-1.5
	c-7.7,0-11.9,4.7-11.9,13.4C-339.1,631.9-336.1,635.4-330.4,635.4z"/>
</svg>
