<?xml version="1.0" encoding="utf-8"?>
<!-- Generator: Adobe Illustrator 19.1.0, SVG Export Plug-In . SVG Version: 6.00 Build 0)  -->
<svg version="1.1"
	 id="svg36" xmlns:sodipodi="http://sodipodi.sourceforge.net/DTD/sodipodi-0.dtd" xmlns:dc="http://purl.org/dc/elements/1.1/" xmlns:cc="http://creativecommons.org/ns#" xmlns:svg="http://www.w3.org/2000/svg" xmlns:inkscape="http://www.inkscape.org/namespaces/inkscape" xmlns:rdf="http://www.w3.org/1999/02/22-rdf-syntax-ns#" inkscape:version="0.92.2 (5c3e80d, 2017-08-06)" sodipodi:docname="Logo Auchan (2015).svg"
	 xmlns="http://www.w3.org/2000/svg" xmlns:xlink="http://www.w3.org/1999/xlink" x="0px" y="0px" viewBox="-367 579.5 107 32"
	 style="enable-background:new -367 579.5 107 32;" xml:space="preserve">
<style type="text/css">
	.st0{fill:#4A835B;}
	.st1{fill:#FFFFFF;}
	.st2{fill:#00985F;}
	.st3{fill:#E0001A;}
</style>
<sodipodi:namedview  bordercolor="#666666" fit-margin-left="3" inkscape:cx="50.684494" objecttolerance="10" guidetolerance="10" gridtolerance="10" pagecolor="#ffffff" id="namedview38" borderopacity="1" fit-margin-top="4" showgrid="false" inkscape:zoom="8" inkscape:cy="6.4913667" inkscape:window-width="1600" inkscape:pageshadow="2" inkscape:window-x="-8" inkscape:window-maximized="1" inkscape:current-layer="svg36" fit-margin-right="3" inkscape:pageopacity="0" inkscape:window-y="-8" inkscape:window-height="837" fit-margin-bottom="4">
	</sodipodi:namedview>
<path id="path22" inkscape:connector-curvature="0" class="st0" d="M-339.5,589.2h-2.1l-0.5,0.7c-0.1,0.1-0.1,0.2,0,0.2l0.7,0.3
	l2-0.9c0.1,0,0.1-0.1,0.1-0.2C-339.4,589.2-339.5,589.2-339.5,589.2z"/>
<circle id="circle24" class="st1" cx="-344.1" cy="589.9" r="0.6"/>
<path id="path26" inkscape:connector-curvature="0" class="st2" d="M-347.4,599.6h-2.6c-0.6,0.3-1.2,0.6-1.8,0.9
	c-0.1,0-0.1,0-0.1,0.1l2.3,6.5h1.3l-2.1-5.9h0.1c1.4,0,4.7-0.3,6.5-3.3C-344.7,599.1-346,599.7-347.4,599.6z M-347.1,595.7
	c0.1-0.2,0.3-0.5,0.4-0.7c-0.1,0-0.1-0.1-0.2,0c-1.8,2.1-4.5,3.3-7.3,3.2h-3.1c-0.1,0-0.2-0.1-0.1-0.2c2-2.8,4.4-5.3,7-7.5l-5.2,4.3
	c-0.4,0.4-1,0.6-1.6,0.6h-6.5c-0.2,0-0.1,0.1-0.1,0.2c0.5,1.7,2.1,2.7,3.8,2.6l-1.5,1.6c-0.1,0.1-0.1,0.2,0.1,0.2h5.8
	C-352.1,600.3-348.9,598.6-347.1,595.7L-347.1,595.7z M-348.8,602.3l1.7,4.8h1.3l-1.8-5.1C-348,602.2-348.4,602.2-348.8,602.3z
	 M-339.5,589.2h-2.1l-0.5,0.6c-0.1,0.1-0.1,0.2,0,0.2l0.7,0.3l2-0.9c0.1,0,0.1-0.1,0.1-0.2C-339.4,589.2-339.4,589.2-339.5,589.2z
	 M-343.7,590.3c-0.2,0.2-0.6,0.2-0.8,0s-0.2-0.6,0-0.8c0.2-0.2,0.6-0.2,0.8,0c-0.4-0.4-1.1-0.4-1.5,0c-0.4,0.4-0.4,1.1,0,1.5
	c0.4,0.4,1.1,0.4,1.5,0c0.4-0.4,0.4-1.1,0-1.5C-343.5,589.7-343.5,590.1-343.7,590.3z"/>
<circle id="circle28" class="st1" cx="-344.1" cy="589.9" r="0.5"/>
<path id="path30" inkscape:connector-curvature="0" class="st3" d="M-343.9,597.9c1.2-2.4,2.1-4.9,2.4-7.6l-0.7-0.3
	c-0.1,0-0.1-0.1,0-0.2l0.5-0.6c-0.7-1.1-1.9-1.7-3.2-1.7c-1,0-1.9,0.3-2.7,0.8c-1,0.7-1.9,1.4-2.8,2.2c-2.6,2.2-4.9,4.8-7,7.5
	c-0.1,0.1,0,0.2,0.1,0.2h3.1c2.8,0.1,5.5-1.1,7.4-3.2c0-0.1,0.1-0.1,0.2,0c0.1,0,0.1,0.1,0,0.2c-0.7,1.8-1.9,3.3-3.4,4.4h2.6
	C-346,599.7-344.7,599.1-343.9,597.9z M-345.2,591c-0.4-0.4-0.4-1.1,0-1.5s1.1-0.4,1.5,0c0.4,0.4,0.4,1.1,0,1.5c0,0,0,0,0,0
	C-344.1,591.4-344.8,591.4-345.2,591L-345.2,591z M-342.8,598.6c-0.9,1.4-2.1,2.5-3.7,3.1l2,5.5h5.7c-1.1-3.3-2.4-6.6-3.5-9.5
	C-342.4,597.9-342.6,598.3-342.8,598.6L-342.8,598.6z M-364,607.1h5.8l1.9-5.8h-5.7C-362.6,603.1-363.3,605-364,607.1z
	 M-356.4,593.9l3.3-2.8c0.6-1.5,1.1-3,1.7-4.2c0.3,0.7,0.6,1.4,0.9,2.1c1.3-1.1,2.1-1.6,2.2-1.7l0,0c0.5-0.4,1.1-0.6,1.7-0.8
	c-0.8-1.7-1.3-2.8-1.6-3.4h-6.5c-0.5,1.2-2.6,5.4-4.9,11h2.4C-356.8,594.1-356.6,594-356.4,593.9z"/>
<path id="path32" inkscape:connector-curvature="0" class="st3" d="M-331.5,603.8c-1.1,0.1-2.1-0.6-2.2-1.7c0-0.1,0-0.3,0-0.4v-9
	h-4.7v9.6c0,3.5,1.6,5.3,4.9,5.3"/>
<path id="path34" inkscape:connector-curvature="0" class="st3" d="M-329.2,602.7c-0.6,0.6-1.4,1-2.3,1c-1.1,0.1-2.1-0.6-2.2-1.7
	c0-0.1,0-0.3,0-0.4v-9.1h-4.7v9.7c0,3.5,1.6,5.3,4.9,5.3c1.9,0.1,3.7-0.6,4.9-2l0.3,1.6h3.8v-14.7h-4.7V602.7z M-314.2,603.5
	c-2.4,0-3.6-1.5-3.6-3.7c0-2.1,1.2-3.5,3.5-3.5c1.1,0,2.2,0.3,3.1,0.9l0.7-4c-1.6-0.7-3.3-1-5-1c-4.7,0-7.3,2.7-7.3,7.7
	c0,5,2.4,7.6,7.2,7.6c1.9,0,3.7-0.4,5.4-1.3l-0.7-3.7C-311.9,603.1-313,603.4-314.2,603.5z M-299.7,592.2c-1.5-0.1-3,0.4-4.3,1.3
	v-6.4h-4.9v20h4.9V597c0.6-0.6,1.4-1,2.2-1c1.1-0.1,2,0.6,2.1,1.7c0,0.2,0,0.3,0,0.5v9h4.9v-9.6C-294.7,594-296.3,592.2-299.7,592.2
	z M-267.5,592.2c-1.9-0.2-3.7,0.5-5,1.9l-0.3-1.6h-3.9v14.6h4.9V597c0.6-0.6,1.4-1,2.2-1c1.1-0.1,2,0.6,2.1,1.7c0,0.2,0,0.3,0,0.5v9
	h4.9v-9.6C-262.6,594-264.2,592.2-267.5,592.2z M-293,600.4c0,5,1.8,7.1,5.4,7.1c1.7,0.1,3.4-0.6,4.5-2l0.2,1.6h3.9v-14
	c-2.2-0.7-4.4-1-6.7-0.9C-290.4,592.2-293,595.1-293,600.4L-293,600.4z M-283.9,602.7c-0.6,0.6-1.4,1-2.3,1c-1.3,0-2-1.2-2-3.5
	c0-2.8,0.8-4.2,2.3-4.2c0.7,0,1.3,0.1,2,0.2L-283.9,602.7z"/>
</svg>
