<?xml version="1.0" encoding="utf-8"?>
<!-- Generator: Adobe Illustrator 19.1.0, SVG Export Plug-In . SVG Version: 6.00 Build 0)  -->
<svg version="1.1" id="_x31_" xmlns="http://www.w3.org/2000/svg" xmlns:xlink="http://www.w3.org/1999/xlink" x="0px" y="0px"
	 viewBox="0 0 185 55.5" style="enable-background:new 0 0 185 55.5;" xml:space="preserve">
<style type="text/css">
	.st0{fill-rule:evenodd;clip-rule:evenodd;fill:#47A2DA;}
	.st1{fill-rule:evenodd;clip-rule:evenodd;fill:#F16164;}
	.st2{fill-rule:evenodd;clip-rule:evenodd;}
	.st3{fill-rule:evenodd;clip-rule:evenodd;fill:#97CA3D;}
	.st4{fill-rule:evenodd;clip-rule:evenodd;fill:#AA75B2;}
</style>
<g>
	<path class="st0" d="M11.9,2.1c1.2-0.2,2.5,0.1,3.7,0.3c2.6,0.6,5,2.2,6.5,4.4c1.5,2.1,2.3,4.8,2.1,7.4c-0.2,2.7-1.4,5.4-3.3,7.3
		c-1.9,1.9-4.4,3.1-7.1,3.3c-3.4,0.3-6.8-1-9.2-3.4c-2.1-2.1-3.2-5.1-3.3-8.1c0.1-2.5,0.9-5.1,2.5-7C5.8,3.9,8.8,2.4,11.9,2.1z"/>
	<path class="st1" d="M37,4.8c2-0.4,4.1-0.2,5.9,0.7c2.5,1.2,4.4,3.6,4.9,6.3c0.5,2.4-0.1,5-1.5,7c-1.3,1.9-3.4,3.2-5.7,3.5
		c-2.5,0.5-5.2-0.3-7.2-1.9c-1.7-1.4-2.9-3.5-3.2-5.7c-0.4-2.6,0.5-5.4,2.4-7.3C33.7,6,35.3,5.1,37,4.8z"/>
	<path class="st2" d="M77.7,9.6c1.7,0,3.5,0,5.2,0c4.5,12.1,8.9,24.3,13.4,36.4c-2.4,0-4.8,0-7.2,0c-0.9-2.3-1.7-4.7-2.6-7
		c-4.1,0-8.3,0-12.4,0c-0.9,2.3-1.7,4.6-2.6,7c-2.4,0-4.8,0-7.2,0C68.8,33.9,73.2,21.8,77.7,9.6L77.7,9.6z M80.1,22.6
		c-1.3,3.7-2.7,7.4-4,11.1c2.8,0,5.7,0,8.5,0c-1.4-3.8-2.8-7.7-4.2-11.5C80.2,22.3,80.1,22.4,80.1,22.6L80.1,22.6z M125.9,9.7
		c1.9-0.6,4.2,0.2,5.1,2c0.9,1.6,0.7,3.7-0.5,5.1c-1.5,1.8-4.5,2-6.2,0.4c-1.5-1.3-1.9-3.6-1-5.3C123.9,10.8,124.8,10.1,125.9,9.7
		L125.9,9.7z M139.7,14.3c2.3,0,4.5,0,6.8,0c0,2.3,0,4.6,0,6.8c2.7,0,5.4,0,8.1,0c0,1.8,0,3.6,0,5.4c-2.7,0-5.4,0-8.1,0
		c0,3.5,0,6.9,0,10.4c0,1.2,0.7,2.5,1.8,3c1.7,0.8,3.7,0.6,5.5,0.2c0.3,1.8,0.5,3.6,0.8,5.4c-2.9,1.1-6.2,1.3-9.2,0.4
		c-1.7-0.5-3.4-1.6-4.3-3.2c-0.9-1.5-1.3-3.3-1.3-5.1c0-3.7,0-7.4,0-11.1c-1.8,0-3.6,0-5.4,0c0-1.8,0-3.6,0-5.4c1.8,0,3.6,0,5.4,0
		C139.7,18.9,139.7,16.6,139.7,14.3L139.7,14.3z M167.6,20.8c2.7-0.5,5.6-0.2,8.1,1c2.6,1.2,4.8,3.2,6.2,5.8
		c1.3,2.3,1.7,5.1,1.4,7.7c-0.3,2.7-1.6,5.3-3.5,7.2c-2.1,2.2-4.9,3.6-7.9,4c-2.8,0.4-5.7-0.1-8.2-1.5c-2.7-1.5-4.9-3.9-6-6.8
		c-1-2.5-1.1-5.2-0.5-7.8C158.4,25.5,162.7,21.6,167.6,20.8L167.6,20.8z M169.1,27c-2,0.3-3.9,1.6-5,3.4c-1.1,1.8-1.2,4.1-0.3,6
		c1.1,2.5,3.7,4.1,6.4,4.1c2.1,0,4.2-1.1,5.5-2.9c1.2-1.6,1.6-3.9,1-5.8C175.7,28.6,172.3,26.5,169.1,27L169.1,27z M94.1,21.2
		c3.1,8.3,6.1,16.6,9.1,24.9c2.9,0,5.7,0,8.6,0c3-8.3,6.1-16.6,9.1-24.8c-2.3,0-4.5,0-6.7,0c-2.2,6-4.4,12.1-6.7,18.1
		c-2.3-6-4.4-12-6.6-18.1C98.6,21.2,96.4,21.2,94.1,21.2L94.1,21.2z M123.8,21.2c2.3,0,4.5,0,6.8,0c0,8.3,0,16.6,0,24.9
		c-2.3,0-4.5,0-6.8,0C123.8,37.8,123.8,29.5,123.8,21.2z"/>
	<path class="st3" d="M37.1,25.9c2.5-0.3,5,0,7.3,1c3.2,1.3,5.8,3.9,7.2,7c1.4,3.1,1.6,6.8,0.6,10.1c-1.5,4.9-6.1,8.8-11.2,9.5
		c-3.5,0.5-7.2-0.3-10.1-2.4c-2.6-1.8-4.5-4.5-5.3-7.5c-0.9-3-0.7-6.4,0.5-9.3C28,29.8,32.3,26.5,37.1,25.9z"/>
	<path class="st4" d="M11.4,33.3c2.8-0.7,6,0.8,7.2,3.4c0.9,1.7,0.9,3.7,0.2,5.5c-0.8,1.9-2.5,3.3-4.5,3.8c-2.7,0.7-5.7-0.6-7-2.9
		c-1.5-2.4-1.1-5.8,0.9-7.9C9.1,34.2,10.2,33.6,11.4,33.3z"/>
</g>
</svg>
