<?xml version="1.0" encoding="utf-8"?>
<!-- Generator: Adobe Illustrator 19.1.0, SVG Export Plug-In . SVG Version: 6.00 Build 0)  -->
<svg version="1.1" id="Слой_1" xmlns="http://www.w3.org/2000/svg" xmlns:xlink="http://www.w3.org/1999/xlink" x="0px" y="0px"
	 viewBox="-421.5 595.2 340 70.6" style="enable-background:new -421.5 595.2 340 70.6;" xml:space="preserve">
<style type="text/css">
	.st0{fill:#FE7200;}
	.st1{fill:#151528;}
</style>
<path class="st0" d="M-238.2,598.8h-22c-1.2,0-2.1,1-2.1,2.1s0.9,2,2.1,2h9V620c0,1.1,1,2.1,2.2,2.1c1.2,0,2.2-1,2.2-2.1v-17.1h8.7
	c1.2,0,2.1-0.9,2.1-2S-237,598.8-238.2,598.8z M-267.7,598.8c-0.6,0-1,0.2-1.4,0.4l-19.3,16.4V601c0-1.2-0.9-2.2-2.1-2.2
	c-1.2,0-2.2,1-2.2,2.2v19c0,1.1,1,2.1,2.2,2.1c0.6,0,1.1-0.3,1.5-0.6l19.2-16.3V620c0,1.1,0.9,2.1,2.2,2.1c1.2,0,2.2-1,2.2-2.1v-19
	C-265.6,599.8-266.5,598.8-267.7,598.8z M-320.8,598.8h17.5c3.1,0,5.4,2.2,5.4,5.4v1.6c0,1.3-1,2.2-2.1,2.2c-1.2,0-2.1-1-2.1-2.2
	v-1.5c0-0.6-0.4-1.3-1.1-1.3h-17.5c-0.6,0-1.2,0.6-1.2,1.3v12.6c0,0.6,0.5,1.3,1.2,1.3h17.5c0.6,0,1.1-0.6,1.1-1.3v-1.6
	c0-1.2,0.9-2.2,2.1-2.2c1.1,0,2.1,1,2.1,2.2v1.7c0,3.1-2.3,5.3-5.4,5.3h-17.5c-3.5,0-5.5-2.5-5.5-5.5v-12.4
	C-326.3,601.3-323.8,598.8-320.8,598.8z M-104,598.8c-1.2,0-2.2,1-2.2,2.2v19c0,1.1,1,2.1,2.2,2.1c1.2,0,2.1-1,2.1-2.1v-19
	C-101.9,599.8-102.9,598.8-104,598.8z M-148.4,599.2c0.4-0.3,0.8-0.4,1.4-0.4c1.1,0,2.2,1,2.2,2.2v19c0,1.1-1,2.1-2.2,2.1
	c-1.2,0-2.2-1-2.2-2.1v-14.8l-19.2,16.3c-0.4,0.3-0.9,0.6-1.6,0.6c-1.1,0-2.1-1-2.1-2.1v-19c0-1.2,1-2.2,2.1-2.2
	c1.3,0,2.2,1,2.2,2.2v14.7L-148.4,599.2z M-114.2,598.8c-1.2,0-2.2,1-2.2,2.2v7.5h-18.2V601c0-1.2-1-2.2-2.2-2.2
	c-1.2,0-2.2,1-2.2,2.2v19c0,1.1,1,2.1,2.2,2.1c1.1,0,2.2-1,2.2-2.1v-7.4h18.2v7.4c0,1.1,1,2.1,2.2,2.1c1.2,0,2.1-1,2.1-2.1v-19
	C-112,599.8-113,598.8-114.2,598.8z M-94.6,610.5l12.2,7.9c0.7,0.4,1,1.1,1,1.9c0,1-0.9,2-2,2c-0.4,0-0.9-0.1-1.3-0.4l-14.8-9.6
	c-0.6-0.4-0.9-1.1-0.9-1.8c0-0.6,0.3-1.4,0.9-1.8l14.8-9.6c0.4-0.2,0.9-0.4,1.3-0.4c0.9,0,2,0.7,2,2c0,0.7-0.3,1.5-1,1.8
	L-94.6,610.5z M-186.8,599.9c-0.5-0.9-1.2-1.1-2-1.1c-0.7,0-1.4,0.4-1.9,1.1l-11.5,19.2c-0.2,0.3-0.3,0.7-0.3,1.1c0,1.1,0.9,2,2,2
	c0.8,0,1.5-0.4,2-1l9.8-16.3l9.7,16.2c0.4,0.7,1.2,1.1,1.9,1.1c1.2,0,2.1-1,2.1-2.1c0-0.4-0.1-0.8-0.3-1.1L-186.8,599.9z
	 M-209.1,599.2c0.4-0.3,0.7-0.4,1.4-0.4c1.2,0,2.2,1,2.2,2.2v19c0,1.1-1,2.1-2.2,2.1c-1.2,0-2.1-1-2.1-2.1v-14.8l-19.2,16.3
	c-0.4,0.3-0.9,0.6-1.6,0.6c-1.1,0-2.1-1-2.1-2.1v-19c0-1.2,1-2.2,2.1-2.2c1.3,0,2.2,1,2.2,2.2v14.7L-209.1,599.2z"/>
<path class="st0" d="M-347.8,626.3c1.2,0,2.1,0.9,2.1,2.1v7.5c0,4.7-2.7,9.1-9.2,9.1h-7.5h-2l0.1-3.9h1.9h7.4c3.1,0,5.1-2,5.1-5.1
	v-7.6C-349.9,627.2-349,626.3-347.8,626.3z M-404.1,645l13,17c0.8,1.1,1.7,2.2,2.9,2.9c1.3,0.8,2.7,0.9,4.2,0.9h9.6
	c1.1,0,2.2-0.2,3.2-0.7c1.3-0.7,2.1-1.9,2.5-3.2c0.7-2,1.5-4.1,2.2-6.1c0.5-1.5,0.9-2.9,1.2-4.5c0.3-1.7,0.4-3.5,0.4-5.3v-12.2
	c0-1.3-0.5-2.6-1.5-3.6c-0.9-0.9-2.2-1.5-3.5-1.5c-0.7,0-1.3,0.1-1.9,0.4l-0.4,0.2l-0.2-0.4c-0.3-0.5-0.6-1-1-1.4
	c-0.9-0.9-2.2-1.5-3.6-1.5c-0.8,0-1.6,0.2-2.3,0.5l-0.3,0.2l-0.2-0.3c-0.2-0.3-0.4-0.6-0.7-0.8c-1-0.9-2.2-1.5-3.6-1.5
	c-0.5,0-1,0.1-1.4,0.2l-0.6,0.2l0-10.3c0-2.8-2.3-5-5-5c-2.8,0-5.1,2.3-5.1,5l0,22.3l-2.3-2.1c-1.6-1.4-3.7-2.3-5.8-1.7
	c-2.2,0.6-3.7,2.5-3.9,4.7c-0.1,1.3,0.3,2.6,1,3.8h-1.9h-3.4c-3.1,0-5.1-2-5.1-5.1v-31.8c0-3.1,2-5.1,5.1-5.1h57.2
	c3.1,0,5.1,2,5.1,5.1v7.6c0,1.2,0.9,2.1,2.1,2.1c1.2,0,2.1-0.9,2.1-2.1v-7.5c0-4.7-2.7-9.1-9.2-9.1h-57.3c-6.5,0-9.2,4.4-9.2,9.1
	v31.5c0,4.7,2.7,9.1,9.2,9.1h6.3H-404.1z M-368.2,650.8c0.3-1.6,0.4-3.2,0.4-4.8h-0.1v-12.3c0-0.5-0.2-1-0.6-1.4
	c-0.4-0.4-0.9-0.6-1.4-0.6c-0.5,0-1.1,0.2-1.4,0.6c-0.4,0.4-0.6,0.9-0.6,1.4l0,1.3c0,0.8-0.7,1.5-1.5,1.5c-0.9,0-1.5-0.7-1.5-1.5v-4
	c0-0.5-0.2-1.1-0.6-1.4c-0.4-0.4-0.9-0.6-1.4-0.6c-0.5,0-1,0.2-1.4,0.6c-0.3,0.3-0.6,0.8-0.6,1.2l0,2.9c0,0.9-0.7,1.5-1.5,1.5
	c-0.8,0-1.5-0.7-1.5-1.5l0-2.7v-1.9c0-0.5-0.2-1-0.6-1.4c-0.4-0.4-0.9-0.6-1.4-0.6c-0.5,0-1,0.2-1.4,0.6c-0.4,0.4-0.6,0.9-0.6,1.4
	v4.7c0,0.9-0.7,1.5-1.5,1.5c-0.8,0-1.5-0.7-1.5-1.5v-3.6l0-16c0-2.6-4-2.6-4,0l0,25.8c0,0.9-0.7,1.5-1.5,1.5c-0.4,0-0.8-0.2-1.1-0.5
	l-4.8-4.4c-1.1-0.9-2.7-1.6-3.9-0.5c-0.4,0.4-0.7,1-0.7,1.6c0,1,0.3,1.6,0.9,2.4l15.4,20.1c0,0,0.1,0.1,0.1,0.1
	c0.5,0.7,1.2,1.6,1.9,2c0.7,0.4,1.8,0.5,2.7,0.5h9.6c0.6,0,1.2,0,1.7-0.3c0.7-0.4,1-1,1.2-1.8l2.1-5.9
	C-368.7,653.5-368.4,652.2-368.2,650.8z"/>
<path class="st1" d="M-323.3,639h3.3c0,1.8-1,2.7-2.4,2.7c-1.1,0-1.7-0.5-2-1.5h-1.1c0.3,1.4,1.4,2.5,3.1,2.5c2.1,0,3.5-1.4,3.5-3.9
	v-0.7c0-2.3-1.4-3.7-3.5-3.7c-1.8,0-2.8,1-3.1,2.3h1.1c0.3-0.7,0.9-1.3,2-1.3c1.3,0,2.3,1,2.4,2.6h-3.3V639z M-316.1,642.8h0.2
	c1.5,0,2.4-1,2.4-4.3v-2.9h3.4v7.1h1.1v-8.1h-5.5v3.9c0,2.7-0.6,3.3-1.4,3.3h-0.2V642.8z M-301.5,642.8c2,0,3.1-1.1,3.4-2.5h-1.1
	c-0.3,0.8-1,1.5-2.3,1.5c-1.4,0-2.4-0.9-2.4-2.8v0h5.8v-0.7c0-2.4-1.4-3.8-3.5-3.8s-3.5,1.4-3.5,3.8v0.7
	C-304.9,641.4-303.6,642.8-301.5,642.8z M-301.5,635.5c1.4,0,2.3,0.8,2.4,2.5h-4.7C-303.7,636.4-302.8,635.5-301.5,635.5z
	 M-288.8,642.7h1.3l-3-4.2l2.7-3.9h-1.3l-2.3,3.4h-1.4v-3.4h-1.1v8.1h1.1v-3.7h1.4L-288.8,642.7z M-284.9,635.6h2.7v7.1h1.1v-7.1
	h2.7v-1h-6.5V635.6z M-271.3,642.8c1.8,0,3.2-1.3,3.2-3.8v-0.7c0-2.5-1.3-3.8-3.2-3.8c-1.2,0-2.1,0.5-2.7,1.5l-0.1-1.4h-0.8v11.3
	h1.1v-4.4C-273.3,642.3-272.4,642.8-271.3,642.8z M-271.5,641.8c-1.4,0-2.3-1-2.3-2.8v-0.8c0-1.7,1-2.7,2.3-2.7
	c1.4,0,2.3,0.9,2.3,2.8v0.7C-269.2,640.8-270.1,641.8-271.5,641.8z M-261,642.8c2.1,0,3.6-1.4,3.6-3.8v-0.7c0-2.4-1.4-3.8-3.6-3.8
	c-2.1,0-3.6,1.4-3.6,3.8v0.7C-264.6,641.4-263.2,642.8-261,642.8z M-261,641.8c-1.4,0-2.5-1-2.5-2.8v-0.7c0-1.8,1-2.8,2.5-2.8
	c1.4,0,2.5,1,2.5,2.8v0.7C-258.6,640.8-259.6,641.8-261,641.8z M-247.9,642.7h1.1v-8.1h-1.1v3.5h-4.5v-3.5h-1.1v8.1h1.1V639h4.5
	V642.7z M-236.8,642.7h1.1v-8.1h-1.1v3.5h-4.5v-3.5h-1.1v8.1h1.1V639h4.5V642.7z M-231.2,642.7h2.9c2.2,0,3.3-1,3.3-2.6
	c0-1.6-1-2.6-3.3-2.6h-1.8v-2.9h-1.1V642.7z M-228.3,638.5c1.6,0,2.2,0.6,2.2,1.6c0,1-0.6,1.6-2.2,1.6h-1.8v-3.2H-228.3z
	 M-223.5,642.7h1.1v-8.1h-1.1V642.7z M-212.4,642.7h1.1v-8.1h-1.3l-3.2,5.2l-1,1.7v-6.9h-1.1v8.1h1.3l3.2-5.2l1-1.7V642.7z
	 M-214.6,633.6c1.3,0,2.2-0.8,2.2-2.2h-1c0,1-0.4,1.4-1.2,1.4c-0.7,0-1.1-0.4-1.1-1.4h-1C-216.8,632.7-216,633.6-214.6,633.6z
	 M-194.9,644.8h1.1v-3.1h-1.1v-7.1h-5.4v2.4c0,2.7-0.2,3.5-0.9,4.7h-0.9v3.1h1.1v-2.1h6.2V644.8z M-199.3,637v-1.5h3.3v6.1h-4
	C-199.5,640.7-199.3,639.7-199.3,637z M-184.8,642.7h1.1v-8.1h-1.3l-3.2,5.2l-1,1.7v-6.9h-1.1v8.1h1.3l3.2-5.2l1-1.7V642.7z
	 M-176.2,642.8c1.8,0,2.8-1,3.1-2.5h-1.1c-0.3,0.9-0.9,1.5-2,1.5c-1.4,0-2.4-1-2.4-2.8v-0.7c0-1.8,1-2.8,2.4-2.8
	c1.1,0,1.7,0.5,2,1.3h1.1c-0.3-1.3-1.4-2.3-3.1-2.3c-2.1,0-3.5,1.4-3.5,3.8v0.7C-179.7,641.4-178.3,642.8-176.2,642.8z
	 M-164.1,642.7h1.3l-3-4.2l2.7-3.9h-1.3l-2.3,3.4h-1.4v-3.4h-1.1v8.1h1.1v-3.7h1.4L-164.1,642.7z M-157.5,642.8
	c1.2,0,2.2-0.6,2.8-1.6l0.2,1.5h0.8v-5.5c0-1.7-1-2.7-2.9-2.7c-1.9,0-2.9,1-3,2.3h1.1c0.1-0.8,0.7-1.3,1.8-1.3
	c1.3,0,1.8,0.5,1.8,1.7v0.7h-1.8c-2.4,0-3.4,1-3.4,2.5C-160,641.9-159.1,642.8-157.5,642.8z M-157.4,641.8c-1,0-1.5-0.5-1.5-1.3
	c0-0.9,0.6-1.6,2.3-1.6h1.8v0.4C-154.8,640.6-155.9,641.8-157.4,641.8z M-148.4,645.9h1.1l4.4-11.3h-1.1l-2.5,6.7l-2.7-6.7h-1.2
	l3.3,8.1L-148.4,645.9z M-133.9,642.7h1.1v-8.1h-1.1v3.5h-4.5v-3.5h-1.1v8.1h1.1V639h4.5V642.7z M-129.2,635.6h2.7v7.1h1.1v-7.1h2.7
	v-1h-6.5V635.6z M-116.6,642.8c2,0,3.1-1.1,3.4-2.5h-1.1c-0.3,0.8-1,1.5-2.3,1.5c-1.4,0-2.4-0.9-2.4-2.8v0h5.8v-0.7
	c0-2.4-1.4-3.8-3.5-3.8c-2.1,0-3.5,1.4-3.5,3.8v0.7C-120,641.4-118.7,642.8-116.6,642.8z M-116.6,635.5c1.4,0,2.3,0.8,2.4,2.5h-4.7
	C-118.8,636.4-117.9,635.5-116.6,635.5z M-105.4,642.8c1.8,0,3.2-1.3,3.2-3.8v-0.7c0-2.5-1.3-3.8-3.2-3.8c-1.2,0-2.1,0.5-2.7,1.5
	l-0.1-1.4h-0.8v11.3h1.1v-4.4C-107.4,642.3-106.6,642.8-105.4,642.8z M-105.7,641.8c-1.4,0-2.3-1-2.3-2.8v-0.8c0-1.7,1-2.7,2.3-2.7
	c1.4,0,2.3,0.9,2.3,2.8v0.7C-103.4,640.8-104.3,641.8-105.7,641.8z"/>
</svg>
