<?xml version="1.0" encoding="utf-8"?>
<!-- Generator: Adobe Illustrator 19.1.0, SVG Export Plug-In . SVG Version: 6.00 Build 0)  -->
<svg version="1.1" id="Слой_1" xmlns="http://www.w3.org/2000/svg" xmlns:xlink="http://www.w3.org/1999/xlink" x="0px" y="0px"
	 viewBox="-411.2 598 340.5 81.1" style="enable-background:new -411.2 598 340.5 81.1;" xml:space="preserve">
<style type="text/css">
	.st0{fill:url(#SVGID_1_);}
	.st1{fill:url(#SVGID_2_);}
	.st2{fill:url(#SVGID_3_);}
	.st3{fill:#FFFFFF;}
	.st4{font-family:'OpenSans';}
	.st5{font-size:27.7362px;}
	.st6{font-family:'OpenSans-Semibold';}
	.st7{fill:none;stroke:#FFFFFF;stroke-miterlimit:10;}
</style>
<g>
	
		<linearGradient id="SVGID_1_" gradientUnits="userSpaceOnUse" x1="-345.4122" y1="515.5374" x2="-345.4122" y2="596.6625" gradientTransform="matrix(1 0 0 -1 0 1194.6499)">
		<stop  offset="0" style="stop-color:#C6C6C6"/>
		<stop  offset="1" style="stop-color:#FFFFFF"/>
	</linearGradient>
	<path class="st0" d="M-396,679.1c-3.4-0.4-6.1-1.8-8.7-4.5c-4.8-4.9-7.3-13-6.3-20.6c0.8-5.6,2.7-10.1,6.1-13.5
		c2.9-3,5.9-4.4,9.4-4.6l1.7-0.1v-1.2c0-11.4,6.1-21.6,14.5-24.5c5.3-1.8,11.2-0.4,15.7,3.6c0.9,0.8,1.2,1,1.2,0.7
		c0-0.3,1.4-3.5,2.2-4.8c2.5-4.4,6.4-8.2,10.2-10c5.8-2.7,12.1-2.1,17.5,1.3c4.2,2.8,7.8,7.4,9.9,12.8c0.3,0.8,0.6,1.4,0.6,1.5
		c0,0,0.6-0.3,1.2-0.8c2.5-1.6,4.8-2.3,7.6-2.3c2.1,0,3.5,0.3,5.6,1.3c3.7,1.8,6.9,5.2,9.2,10c1.3,2.7,2,5,3,9.4
		c0.1,0.3,0.2,0.3,0.7,0.3c0.8,0,2.6,0.5,3.8,1c1.5,0.7,3,1.7,4.5,3.3c3.5,3.5,5.7,8.1,6.6,14.2c0.4,2.1,0.4,7.2,0,9.3
		c-1.2,7-3.9,12.3-8.3,15.5c-1.1,0.8-2.9,1.6-4.2,2.1l-1.1,0.3h-50.8C-372.2,679.2-395.4,679.1-396,679.1z"/>
	
		<linearGradient id="SVGID_2_" gradientUnits="userSpaceOnUse" x1="-369.9436" y1="533.3192" x2="-320.7699" y2="533.3192" gradientTransform="matrix(1 0 0 -1 0 1194.6499)">
		<stop  offset="0" style="stop-color:#923433"/>
		<stop  offset="1" style="stop-color:#CF4947"/>
	</linearGradient>
	<path class="st1" d="M-339.8,672.7c2.3-0.5,4.1-1.1,6.2-2.1c2.5-1.2,4.3-2.5,6.5-4.7c2.8-2.8,4.7-5.9,6-9.6
		c0.5-1.3,0.5-1.4,0.2-1.5c-0.1-0.1-2.2-0.6-4.6-1.2s-4.5-1.2-4.6-1.2c-0.2-0.1-0.3,0.2-0.6,1c-1.3,4.1-4.7,7.6-8.7,9
		c-3.9,1.4-7.3,1.2-11.3-0.8c-1.5-0.8-3.5-2-3.6-2.3c0-0.1,1-1.1,2.3-2.2c1.3-1.2,2.3-2.1,2.1-2.1c-0.5-0.2-20.1-5.4-20.1-5.4
		s3.5,20.5,3.6,20.6c0,0,0.9-0.8,2-1.6c1.1-1,2.1-1.8,2.3-2l0.4-0.3l1.2,1c3.9,3.2,8.5,5.3,13.3,6.1
		C-345.6,673.1-341.9,673-339.8,672.7z"/>
	
		<linearGradient id="SVGID_3_" gradientUnits="userSpaceOnUse" x1="-369.9025" y1="559.478" x2="-320.6988" y2="559.478" gradientTransform="matrix(1 0 0 -1 0 1194.6499)">
		<stop  offset="0" style="stop-color:#B03433"/>
		<stop  offset="1" style="stop-color:#CF4947"/>
	</linearGradient>
	<path class="st2" d="M-322.4,636.9c-1-5.6-1.8-10.3-1.8-10.3s-1.1,0.9-2.2,1.9c-1.2,1.1-2.2,2-2.3,2s-0.6-0.4-1.2-0.9
		c-5.6-4.5-12.5-6.8-18.5-6.2c-2.1,0.2-3.6,0.5-5.6,1.2c-2.3,0.8-3.8,1.5-6,2.9c-4.6,3.1-8.2,7.9-9.7,13c-0.2,0.7-0.4,1.2-0.3,1.2
		c0,0,9.2,2.3,9.4,2.4s0.3-0.2,0.7-1.2c1.5-4.3,5.3-7.9,9.6-9c3.6-1,6.5-0.7,10.3,1.2c1.4,0.7,3.6,2.1,3.6,2.3
		c0,0.1-1.1,1.1-2.3,2.2c-1.2,1.2-2.3,2.1-2.2,2.1c0.3,0.1,20.1,5.4,20.2,5.4C-320.7,647.2-321.4,642.6-322.4,636.9z"/>
</g>
<text transform="matrix(1 0 0 1 -257.7017 646.5883)" class="st3 st4 st5">cloud</text>
<text transform="matrix(1 0 0 1 -179.8169 646.5883)" class="st3 st6 st5">convert</text>
<text transform="matrix(1 0 0 1 -179.8169 646.5883)" class="st7 st6 st5">convert</text>
</svg>
