<?xml version="1.0" encoding="utf-8"?>
<!-- Generator: Adobe Illustrator 19.1.0, SVG Export Plug-In . SVG Version: 6.00 Build 0)  -->
<svg version="1.1" id="Слой_1" xmlns:serif="http://www.serif.com/"
	 xmlns="http://www.w3.org/2000/svg" xmlns:xlink="http://www.w3.org/1999/xlink" x="0px" y="0px" viewBox="-351 579.5 139 32"
	 style="enable-background:new -351 579.5 139 32;" xml:space="preserve">
<style type="text/css">
	.st0{fill:none;}
	.st1{fill:#FFFFFF;}
	.st2{fill:#FF9E00;}
</style>
<g>
	<rect id="_32_-cloud_w" x="-351" y="579.5" serif:id="32_@cloud_w" class="st0" width="139" height="32">
	</rect>
	<rect x="-351" y="579.5" class="st0" width="139" height="32"/>
	<path class="st1" d="M-286.1,600.5c-1.9,0-3.5-1.1-4.2-2.7c0,0-0.2-0.4-0.3-0.7c-0.1-0.4-0.2-0.9-0.2-1.4c0-2.6,2.1-4.7,4.7-4.7
		c2.6,0,4.7,2.1,4.7,4.7C-281.4,598.4-283.5,600.5-286.1,600.5 M-291.2,590.9c0-1.2,0.7-3.1,1.9-4.2c1.5-1.4,3-1.7,5.2-2.2
		c1.2-0.3,2.6-0.7,3.9-1.3l-1.1-2.8c-0.9,0.4-1.9,0.6-3.1,0.8c-2.4,0.5-5.2,1.1-7.1,3.4c-1.6,1.8-2.5,4.6-2.6,7.6
		c-0.1,2.6,0.2,5.1,1,6.8c1.2,2.6,3.9,4.4,6.9,4.4c4.2,0,7.7-3.4,7.7-7.7c0-4.2-3.2-7.7-7.4-7.7
		C-288.7,588.1-290.5,589.7-291.2,590.9z"/>
	<path class="st1" d="M-263.3,588.5h-11.3v0c0,0.6-0.1,7.4-0.2,9.4c-0.1,1.8-0.5,2.4-2.4,2.6c-0.1,0-0.3,0-0.5,0l0,2.7
		c0,0,2.2,0.3,3.6-0.5c1.8-1.1,2.2-3,2.3-4.6c0.1-1.2,0.1-4.4,0.2-6.6h5.4l0,11.7h3C-263.3,603.1-263.3,588.5-263.3,588.5z"/>
	<path class="st1" d="M-248.2,588.5v1.5c-1.2-1.2-3-1.8-4.7-1.8c-4.2,0-7.7,3.4-7.7,7.7c0,4.2,3.4,7.7,7.7,7.7c1.8,0,3.7-0.8,4.7-2
		v1.6h3v-14.6H-248.2z M-252.8,600.4c-2.6,0-4.6-2-4.6-4.6c0-2.6,2-4.6,4.6-4.6c2.6,0,4.7,1.9,4.7,4.6
		C-248.2,598.5-250.2,600.4-252.8,600.4z"/>
	<path class="st1" d="M-241.9,588.5h3v5.9h3.3l3.4-5.9h3.7l-4.2,7.2l4.8,7.4h-3.7l-3.7-5.8h-3.6v5.8h-3
		C-241.9,603.1-241.9,588.5-241.9,588.5z"/>
	<path class="st1" d="M-219.9,588.1c-4.2,0-7.7,3.4-7.7,7.7c0,4.2,3.4,7.7,7.7,7.7c4.2,0,7.7-3.4,7.7-7.7
		C-212.2,591.6-215.7,588.1-219.9,588.1z M-219.9,600.5c-2.6,0-4.7-2.1-4.7-4.7c0-2.6,2.1-4.7,4.7-4.7c2.6,0,4.7,2.1,4.7,4.7
		C-215.2,598.4-217.3,600.5-219.9,600.5z"/>
	<path class="st1" d="M-304.1,588.2c-4.2,0-7.7,3.4-7.7,7.7c0,4.2,3.4,7.7,7.7,7.7c4.2,0,7.7-3.4,7.7-7.7
		C-296.4,591.6-299.9,588.2-304.1,588.2z M-304.1,600.5c-2.6,0-4.7-2.1-4.7-4.7s2.1-4.7,4.7-4.7c2.6,0,4.7,2.1,4.7,4.7
		S-301.5,600.5-304.1,600.5z"/>
	<path class="st2" d="M-330.2,595.5c0,2.7-2.2,4.8-4.8,4.8s-4.8-2.2-4.8-4.8s2.2-4.8,4.8-4.8S-330.2,592.9-330.2,595.5 M-335,579.5
		c-8.8,0-16,7.2-16,16c0,8.8,7.2,16,16,16c3.2,0,6.3-1,9-2.8l0,0l-2.2-2.5l0,0c-2.1,1.3-4.4,2-6.9,2c-7,0-12.7-5.7-12.7-12.7
		c0-7,5.7-12.7,12.7-12.7s12.7,5.7,12.7,12.7c0,0.9-0.1,1.8-0.3,2.7c-0.4,1.7-1.6,2.2-2.4,2.1c-0.9-0.1-1.9-0.7-1.9-2.2v-1.2v-1.4
		c0-4.5-3.6-8.1-8.1-8.1s-8.1,3.6-8.1,8.1s3.6,8.1,8.1,8.1c2.2,0,4.2-0.8,5.7-2.4c0.9,1.4,2.3,2.3,4,2.4c0.1,0,0.3,0,0.4,0
		c1.2,0,2.3-0.4,3.2-1.1c1-0.7,1.7-1.8,2.1-3c0.1-0.2,0.2-0.7,0.2-0.7l0,0c0.2-1,0.3-2,0.3-3.3C-319,586.7-326.2,579.5-335,579.5"/>
</g>
</svg>
