<?xml version="1.0" encoding="utf-8"?>
<!-- Generator: Adobe Illustrator 19.1.0, SVG Export Plug-In . SVG Version: 6.00 Build 0)  -->
<svg version="1.1" id="svg_logo" xmlns="http://www.w3.org/2000/svg" xmlns:xlink="http://www.w3.org/1999/xlink" x="0px" y="0px"
	 viewBox="-420 596 138 27" style="enable-background:new -420 596 138 27;" xml:space="preserve">
<style type="text/css">
	.st0{fill:#4C4C4C;}
	.st1{clip-path:url(#SVGID_2_);fill:#4C4C4C;}
	.st2{clip-path:url(#SVGID_4_);fill:#4C4C4C;}
	.st3{clip-path:url(#SVGID_6_);fill:#4C4C4C;}
	.st4{clip-path:url(#SVGID_8_);fill:#4C4C4C;}
	.st5{clip-path:url(#SVGID_10_);fill:#4C4C4C;}
	.st6{clip-path:url(#SVGID_12_);fill:#E64100;}
	.st7{clip-path:url(#SVGID_14_);fill:#FFD21C;}
	.st8{clip-path:url(#SVGID_16_);fill:#5EDFFF;}
	.st9{clip-path:url(#SVGID_18_);fill:#63B739;}
	.st10{clip-path:url(#SVGID_20_);fill:#FF8800;}
</style>
<rect x="-312.7" y="601.7" class="st0" width="2.4" height="14.4"/>
<rect x="-305.5" y="601.7" class="st0" width="2.4" height="14.4"/>
<g>
	<defs>
		<rect id="SVGID_1_" x="-420" y="596" width="136.2" height="25.7"/>
	</defs>
	<clipPath id="SVGID_2_">
		<use xlink:href="#SVGID_1_"  style="overflow:visible;"/>
	</clipPath>
	<path class="st1" d="M-355,603.2C-355,603.2-355,603.3-355,603.2C-355,603.3-354.9,603.3-355,603.2c0,0.1,0,0.1,0,0.1c0,0,0,0,0,0
		c0,0,0,0,0,0c0,0,0,0,0,0l0,0c0,0,0,0,0,0c0,0,0,0,0,0c0,0,0,0,0,0c0,0,0,0,0,0c0,0,0,0,0,0c0,0,0,0,0,0c0,0,0,0,0,0c0,0,0,0,0,0
		c0,0,0,0,0,0c0,0,0,0,0,0c0,0,0,0,0,0c0,0,0,0,0,0c0,0,0,0,0,0c0,0,0,0,0,0c0,0,0,0,0,0c0,0,0,0,0,0c0,0,0,0,0,0c0,0,0,0,0,0
		c0,0,0,0,0,0c0,0,0,0,0,0c0,0,0,0,0,0c0,0,0,0,0,0c0,0,0,0,0,0c0,0,0,0,0,0s0,0,0,0c0,0,0,0,0,0c0,0,0,0,0,0c0,0,0,0,0,0
		c0,0,0,0,0,0c0,0,0,0,0,0c0,0,0,0,0,0c0,0,0,0,0,0c0,0,0,0,0,0c0,0,0,0,0,0v0c0,0,0,0,0,0v2c0,1-0.8,1.7-1.7,1.9
		c-0.8,0.2-1.6,0.3-2.3,0.5l1.6,2.5l0.3,0.6l2.4,3.9h-2.8l-5.2-8.3l0.2,0c1.6-0.3,3.2-0.7,4.7-1c0.1,0,0.3-0.1,0.3-0.3v-1.8l0,0l0,0
		v0c0,0,0,0,0,0l0,0l0,0c0,0,0,0,0,0c0,0,0,0,0,0c0,0,0,0,0,0c0,0,0,0,0,0c0,0,0,0,0,0c0,0,0,0,0,0c0,0,0,0,0,0c0,0,0,0,0,0
		c0,0,0,0,0,0c0,0,0,0,0,0c0,0,0,0,0,0c0,0,0,0,0,0c0,0,0,0,0,0c0,0,0,0,0,0c0,0,0,0,0,0c0,0,0,0,0,0c0,0,0,0,0,0c0,0,0,0,0,0
		c0,0,0,0,0,0s0,0,0,0c0,0,0,0,0,0c0,0,0,0,0,0c0,0,0,0,0,0c0,0,0,0,0,0c0,0,0,0,0,0c0,0,0,0,0,0c0,0,0,0,0,0c0,0,0,0,0,0
		c0,0,0,0,0,0c0,0,0,0,0,0v0c0,0,0,0,0,0l0,0c0,0,0,0,0,0l0,0c0,0,0,0,0,0c0,0,0,0,0,0c0,0,0,0,0,0c0,0,0,0,0,0c0,0,0,0,0,0
		c0,0,0,0,0,0c0,0,0,0,0,0c0,0,0,0,0,0c0,0,0,0,0,0c0,0,0,0,0,0c0,0,0,0,0,0c0,0,0,0,0,0c0,0,0,0,0,0c0,0,0,0,0,0l0,0c0,0,0,0,0,0
		c0,0,0,0,0,0c0,0,0,0,0,0l0,0c0,0,0,0,0,0c0,0,0,0,0,0c0,0,0,0,0,0c0,0,0,0,0,0c0,0,0,0,0,0c0,0,0,0,0,0c0,0,0,0,0,0c0,0,0,0,0,0
		c0,0,0,0,0,0c0,0,0,0,0,0c0,0,0,0,0,0h0c0,0,0,0,0,0c0,0,0,0,0,0c0,0,0,0,0,0c0,0,0,0,0,0c0,0,0,0,0,0c0,0,0,0,0,0c0,0,0,0,0,0
		c0,0,0,0,0,0c0,0,0,0,0,0c0,0,0,0,0,0l0,0c0,0,0,0,0,0c0,0,0,0,0,0l0,0c0,0,0,0,0,0c0,0,0,0,0,0c0,0,0,0,0,0s0,0,0,0l0,0l0,0l0,0
		l0,0l0,0l0,0l0,0l0,0l0,0l0,0l0,0l0,0l0,0l0,0l0,0l0,0l0,0l0,0l0,0l0,0l0,0l0,0l0,0l0,0l0,0l0,0l0,0l0,0l0,0l0,0l0,0l0,0h0l0,0l0,0
		l0,0l0,0l0,0l0,0h0l0,0l0,0l0,0l0,0l0,0l0,0l0,0l0,0l0,0l0,0l0,0h0l0,0l0,0l0,0h0l0,0l0,0l0,0h0l0,0l0,0h0h0l0,0h0l0,0l0,0h0l0,0h0
		l0,0h0l0,0l0,0h0l0,0h0l0,0h0l0,0h0l0,0h0l0,0h0l0,0l0,0h0l0,0h0l0,0h0l0,0h0l0,0h0l0,0h0l0,0h0l0,0h0l0,0h0l0,0h0l0,0h0l0,0h-0.1
		l0,0h-10v12.6h-2.4v-14.4h12.8l0,0h0.1l0,0h0l0,0l0,0h0l0,0l0,0l0,0l0,0l0,0l0,0l0,0c0,0,0,0,0,0l0,0l0,0l0,0l0,0l0,0l0,0
		c0,0,0,0,0,0l0,0c0,0,0,0,0,0c0,0,0,0,0,0c0,0,0,0,0,0s0,0,0,0c0,0,0,0,0,0c0,0,0,0,0,0c0,0,0,0,0,0c0,0,0,0,0,0c0,0,0,0,0,0
		c0,0,0,0,0,0c0,0,0,0,0,0c0,0,0,0,0,0c0,0,0,0,0,0c0,0,0,0,0,0c0,0,0,0,0,0c0,0,0,0,0,0c0,0,0,0,0,0c0,0,0,0,0,0c0,0,0,0,0,0
		c0,0,0,0,0,0c0,0,0,0,0,0c0,0,0,0,0,0c0,0,0,0,0,0c0,0,0,0,0,0c0,0,0,0,0,0c0,0,0,0,0,0c0,0,0,0,0,0s0,0,0,0c0,0,0,0,0,0
		c0,0,0,0,0,0l0,0c0,0,0,0,0,0c0,0,0,0,0,0s0,0,0,0c0,0,0,0,0,0c0,0,0,0,0,0c0,0,0,0,0,0c0,0,0,0,0,0c0,0,0,0,0,0c0,0,0,0,0,0
		c0,0,0,0,0,0c0,0,0,0,0,0c0,0,0,0,0,0c0,0,0,0,0,0c0,0,0,0,0,0c0,0,0,0,0,0c0,0,0,0,0,0s0,0,0,0c0,0,0,0,0,0c0,0,0,0,0,0
		c0,0,0,0,0,0c0,0,0,0,0,0h0c0,0,0,0,0,0l0,0c0,0,0,0,0,0c0,0,0,0,0,0c0,0,0,0,0,0c0,0,0,0,0,0c0,0,0,0,0,0l0,0c0,0,0,0,0,0l0,0
		c0,0,0,0,0,0c0,0,0,0,0,0c0,0,0,0,0,0s0,0,0,0c0,0,0,0,0,0c0,0,0,0,0,0c0,0,0,0,0,0c0,0,0,0,0,0c0,0,0,0,0,0c0,0,0,0,0,0
		c0,0,0,0,0,0c0,0,0,0,0,0c0,0,0,0,0,0c0,0,0,0,0,0c0,0,0,0,0,0c0,0,0,0,0,0c0,0,0,0,0,0c0,0,0,0,0,0c0,0,0,0,0,0c0,0,0,0,0,0
		c0,0,0,0,0,0c0,0,0,0,0,0c0,0,0,0,0,0c0,0,0,0,0,0c0,0,0,0,0,0l0,0c0,0,0,0,0,0c0,0,0,0,0,0l0,0c0,0,0,0,0,0c0,0,0,0,0,0
		c0,0,0,0,0,0c0,0,0,0,0,0c0,0,0,0,0,0c0,0,0,0,0,0l0,0l0,0c0,0,0,0,0,0s0,0,0,0s0,0,0,0c0,0,0,0,0,0c0,0,0,0,0,0c0,0,0,0,0,0
		c0,0,0,0,0,0c0,0,0,0,0,0c0,0,0,0,0,0c0,0,0,0,0,0c0,0,0,0,0,0c0,0,0,0,0,0c0,0,0,0,0,0c0,0,0,0,0,0c0,0,0,0,0,0l0,0c0,0,0,0,0,0
		C-355,603.1-355,603.2-355,603.2C-355,603.2-355,603.2-355,603.2C-355,603.2-355,603.2-355,603.2"/>
</g>
<g>
	<defs>
		<rect id="SVGID_3_" x="-420" y="596" width="136.2" height="25.7"/>
	</defs>
	<clipPath id="SVGID_4_">
		<use xlink:href="#SVGID_3_"  style="overflow:visible;"/>
	</clipPath>
	<path class="st2" d="M-297.8,608.7c-0.9-0.2-1.7-0.9-1.7-1.9v-1.9c0-0.8,0.1-1.7,0.7-2.3c0.4-0.4,0.8-0.6,1.3-0.7
		c0.6-0.1,1.2-0.2,1.8-0.2h11.9v1.8h-11.3c-0.2,0-0.4,0-0.6,0c-0.2,0-0.3,0-0.5,0c-0.2,0-0.4,0.1-0.5,0.2c-0.2,0.2-0.3,0.8-0.3,1.1
		v1.7c0,0.2,0.2,0.2,0.3,0.3c3.7,0.8,7.5,1.6,11.2,2.4c0.9,0.2,1.7,0.9,1.7,1.9v1.9c0,0.8-0.1,1.7-0.7,2.3c-0.4,0.4-0.8,0.6-1.3,0.7
		c-0.6,0.1-1.2,0.2-1.8,0.2h-11.6v-1.8h11c0.2,0,0.4,0,0.6,0c0.2,0,0.3,0,0.5,0c0.2,0,0.4-0.1,0.5-0.2c0.2-0.2,0.3-0.8,0.3-1.1v-1.7
		c0-0.2-0.2-0.2-0.3-0.3C-290.3,610.2-294.1,609.5-297.8,608.7"/>
</g>
<g>
	<defs>
		<rect id="SVGID_5_" x="-420" y="596" width="136.2" height="25.7"/>
	</defs>
	<clipPath id="SVGID_6_">
		<use xlink:href="#SVGID_5_"  style="overflow:visible;"/>
	</clipPath>
	<path class="st3" d="M-330.6,608.7c-0.9-0.2-1.7-0.9-1.7-1.9v-1.9c0-0.8,0.1-1.7,0.7-2.3c0.4-0.4,0.8-0.6,1.3-0.7
		c0.6-0.1,1.2-0.2,1.8-0.2h11.9v1.8H-328c-0.2,0-0.4,0-0.6,0c-0.2,0-0.3,0-0.5,0c-0.2,0-0.4,0.1-0.5,0.2c-0.2,0.2-0.3,0.8-0.3,1.1
		v1.7c0,0.2,0.2,0.2,0.3,0.3c3.7,0.8,7.5,1.6,11.2,2.4c0.9,0.2,1.7,0.9,1.7,1.9v1.9c0,0.8-0.1,1.7-0.7,2.3c-0.4,0.4-0.8,0.6-1.3,0.7
		c-0.6,0.1-1.2,0.2-1.8,0.2H-332v-1.8h11c0.2,0,0.4,0,0.6,0c0.2,0,0.3,0,0.5,0c0.2,0,0.4-0.1,0.5-0.2c0.2-0.2,0.3-0.8,0.3-1.1v-1.7
		c0-0.2-0.2-0.2-0.3-0.3C-323.1,610.2-326.9,609.5-330.6,608.7"/>
</g>
<g>
	<defs>
		<rect id="SVGID_7_" x="-420" y="596" width="136.2" height="25.7"/>
	</defs>
	<clipPath id="SVGID_8_">
		<use xlink:href="#SVGID_7_"  style="overflow:visible;"/>
	</clipPath>
	<path class="st4" d="M-374.3,616.1h-9.6c-0.9,0-1.8-0.3-2.6-0.7c-0.7-0.5-1.3-1.1-1.7-1.9c-0.2-0.5-0.4-1.1-0.4-1.6V606
		c0-0.6,0.1-1.1,0.4-1.6c0.4-0.8,1-1.5,1.7-1.9c0.8-0.5,1.7-0.7,2.6-0.7h9.6v1.8h-9.1c-1.1,0-2.1,0.6-2.6,1.6
		c-0.1,0.3-0.2,0.6-0.2,0.9v5.7c0,0.3,0.1,0.6,0.2,0.9c0.4,1,1.5,1.6,2.6,1.6h9.1C-374.3,614.3-374.3,616.1-374.3,616.1z"/>
</g>
<g>
	<defs>
		<rect id="SVGID_9_" x="-420" y="596" width="136.2" height="25.7"/>
	</defs>
	<clipPath id="SVGID_10_">
		<use xlink:href="#SVGID_9_"  style="overflow:visible;"/>
	</clipPath>
	<polygon class="st5" points="-343.2,603.8 -350.1,616.1 -352.9,616.1 -344.7,601.7 -341.8,601.7 -333.6,616.1 -336.2,616.1 	"/>
</g>
<g>
	<defs>
		<rect id="SVGID_11_" x="-420" y="596" width="136.2" height="25.7"/>
	</defs>
	<clipPath id="SVGID_12_">
		<use xlink:href="#SVGID_11_"  style="overflow:visible;"/>
	</clipPath>
	<path class="st6" d="M-410.2,598.4c-0.5-0.2-1-0.4-1.6-0.4c-3.8-0.6-7.4,1.9-8.1,5.7c-0.4,2.3,0.4,4.6,1.9,6.1
		c0.9-1.1,1.8-2.2,2.7-3.2c0.6-0.7,1.3-1.5,1.9-2.2C-413,603.2-411,599.8-410.2,598.4"/>
</g>
<g>
	<defs>
		<rect id="SVGID_13_" x="-420" y="596" width="136.2" height="25.7"/>
	</defs>
	<clipPath id="SVGID_14_">
		<use xlink:href="#SVGID_13_"  style="overflow:visible;"/>
	</clipPath>
	<path class="st7" d="M-404.8,602.4c-0.1,0.1-0.1,0.2-0.2,0.3c-0.3,0.4-0.7,0.8-1.1,1.1c-0.2,0.5,0,1,0,1.5c1.1-1,2.4-1.9,3.7-2.9
		c0.3-0.2,0.7-0.1,1,0.2c0.2,0.2,0.3,0.7,0,1c-1.6,1.8-3.6,3-5.2,4.8c-0.2,0.2,0,0.8,0.2,0.8c1.4-0.1,3.5-1.7,4.8-2.5
		c0.6-0.4,1.2-0.9,1.9-0.9c0.4,0,0.7,0.8,0.6,1.2c-0.3,0.8-1,1.4-1.7,1.9c-1.2,0.8-2.3,1.7-3.4,2.6c0.7,1.4,2.6,1.5,4.1,2
		c2.5-1.3,4.5-3.7,5-6.7c0.9-5-2.4-9.8-7.5-10.6c-2.9-0.5-5.7,0.4-7.7,2.2c0.1,1.4,1.2,2.7,3.6,3.4c0.2-0.2,0.4-0.3,0.6-0.4
		C-405.5,601-404.4,601.7-404.8,602.4"/>
</g>
<g>
	<defs>
		<rect id="SVGID_15_" x="-420" y="596" width="136.2" height="25.7"/>
	</defs>
	<clipPath id="SVGID_16_">
		<use xlink:href="#SVGID_15_"  style="overflow:visible;"/>
	</clipPath>
	<path class="st8" d="M-400,613.5c-2.3-0.3-4.8-0.1-7,0.6c-0.4,0.5-0.6,1-0.4,1.6c0.2,0.6,0.8,0.4,1.5,0.2c1.1-0.3,2.9-0.6,3.6,0.6
		c0.2,0.4,0,1.2-0.4,1.4c-0.6,0.4-1.5,0-2.2,0.2c-0.8,0.2-1.7,0.4-2.4,0.7c-0.4,0.2-0.6,0.5-1,0.8c0.8,1.1,1.9,1.9,3.3,2.1
		c2.8,0.5,5.5-1.4,6-4.2C-398.8,616-399.2,614.6-400,613.5"/>
</g>
<g>
	<defs>
		<rect id="SVGID_17_" x="-420" y="596" width="136.2" height="25.7"/>
	</defs>
	<clipPath id="SVGID_18_">
		<use xlink:href="#SVGID_17_"  style="overflow:visible;"/>
	</clipPath>
	<path class="st9" d="M-400,613.5c-0.8-1-1.9-1.7-3.2-1.9c-0.3-0.1-0.6-0.1-0.9-0.1l-1,0.9c-0.6,0.5-1.4,1.1-1.8,1.7
		c0.4,0.1,0.8,0.2,1.3,0.3C-403.7,614.7-401.7,614.4-400,613.5"/>
</g>
<g>
	<defs>
		<rect id="SVGID_19_" x="-420" y="596" width="136.2" height="25.7"/>
	</defs>
	<clipPath id="SVGID_20_">
		<use xlink:href="#SVGID_19_"  style="overflow:visible;"/>
	</clipPath>
	<path class="st10" d="M-406.1,603.8c-0.5,0.5-1,0.9-1.4,1.3v1.4c0.4-0.2,1-0.7,1.5-1.2C-406,604.8-406,604.3-406.1,603.8
		 M-407.5,602.6v-2.1c0.3,0.4,0.6,0.9,0.9,1.4C-406.9,602.1-407.2,602.3-407.5,602.6 M-407.5,605c-0.5,0.5-0.9,0.9-0.9,1.2
		c0.1,0.5,0.4,0.5,0.9,0.2V605z M-407.5,600.4v2.1c-0.7,0.6-1.4,1.3-2,1.9c-0.9,0.9-2.2,2.3-2.7,1.8c-0.6-0.5,1.5-2,2.1-3
		c0.1-0.3,0.3-0.7,0.1-0.9c-0.2-0.3-0.6-0.4-0.9-0.2c-0.8,0.6-1.7,1.5-2.4,2.2c0-0.2,0.1-0.4,0.1-0.6c0.4-2.2,1.5-4,3.1-5.4
		C-409.1,598.9-408.2,599.6-407.5,600.4"/>
</g>
</svg>
