<svg xmlns="http://www.w3.org/2000/svg" viewBox="0 0 294 67" fill="currentColor"><path d="M66.5727 51.9661C73.2655 51.9661 78.6146 49.2509 81.3526 44.4993C81.7075 43.8959 81.4793 43.1166 80.8455 42.7646L75.2682 39.7477C74.6851 39.446 73.9753 39.622 73.6204 40.15C71.7951 42.7395 69.3107 43.8708 66.522 43.8708C61.4771 43.8708 57.5223 40.4014 57.5223 34.443C57.5223 28.4847 61.4771 25.0152 66.522 25.0152C69.3107 25.0152 71.8204 26.1717 73.6204 28.7361C74.0007 29.264 74.6851 29.44 75.2682 29.1383L80.8709 26.1717C81.5047 25.8449 81.7328 25.0655 81.3779 24.4621C78.6653 19.61 73.2908 16.9451 66.5981 16.9451C55.4435 16.9451 47.4831 24.2107 47.4831 34.4682C47.4578 44.7004 55.4181 51.9661 66.5727 51.9661Z" fill="currentColor"/><path d="M94.4086 21.9477V18.7046C94.4086 18.0006 93.8508 17.4475 93.141 17.4475H86.1694C85.4595 17.4475 84.9018 18.0006 84.9018 18.7046V50.2059C84.9018 50.9098 85.4595 51.4629 86.1694 51.4629H93.572C94.2818 51.4629 94.8396 50.9098 94.8396 50.2059V35.398C94.8396 28.8865 98.4648 25.9199 103.966 25.9199C104.27 25.9199 104.574 25.9199 104.853 25.9451C105.589 25.9954 106.197 25.4171 106.197 24.688V18.252C106.197 17.5229 105.589 16.9447 104.853 16.995C100.214 17.2464 96.6141 18.9308 94.4086 21.9477Z" fill="currentColor"/><path d="M126.174 44.0719C121.712 44.0719 118.518 42.3623 117.047 39.0186L141.359 34.3425C141.968 34.2167 142.424 33.6636 142.373 33.0603C141.79 22.8531 134.058 16.9451 124.678 16.9451C114.107 16.9451 106.324 24.2862 106.324 34.4682C106.324 44.5747 114.031 51.9912 125.895 51.9912C131.548 51.9912 136.036 50.4074 139.179 47.3905C139.686 46.9128 139.711 46.1334 139.23 45.6306L135.579 41.7087C135.123 41.231 134.388 41.1807 133.855 41.583C131.751 43.2423 129.368 44.0719 126.174 44.0719ZM124.703 24.4119C128.836 24.4119 131.853 26.7499 132.791 30.2194L116.109 33.4625C116.287 27.7053 119.735 24.4119 124.703 24.4119Z" fill="currentColor"/><path d="M171.071 18.7049V21.043C168.587 18.2524 165.012 16.9451 160.804 16.9451C151.12 16.9451 143.666 23.7833 143.666 34.4682C143.666 45.153 151.12 51.9912 160.804 51.9912C165.392 51.9912 169.018 50.5331 171.502 47.5665V50.2314C171.502 50.9353 172.06 51.4884 172.77 51.4884H179.741C180.451 51.4884 181.009 50.9353 181.009 50.2314V18.7049C181.009 18.001 180.451 17.4479 179.741 17.4479H172.339C171.654 17.4479 171.071 18.0261 171.071 18.7049ZM162.528 43.8708C157.559 43.8708 153.731 40.3259 153.731 34.443C153.731 28.5601 157.559 25.0152 162.528 25.0152C167.446 25.0152 171.274 28.5601 171.274 34.443C171.274 40.3259 167.446 43.8708 162.528 43.8708Z" fill="currentColor"/><path d="M203.496 44.2475C203.242 43.5687 202.456 43.2419 201.797 43.5436C200.91 43.9458 199.896 44.1469 198.882 44.1469C196.194 44.1469 194.673 42.5631 194.673 39.6467V25.7942H201.873C202.583 25.7942 203.141 25.2411 203.141 24.5372V19.4839C203.141 18.78 202.583 18.2269 201.873 18.2269H194.699V11.1875C194.699 10.4835 194.141 9.93042 193.431 9.93042H186.028C185.319 9.93042 184.761 10.4835 184.761 11.1875V39.7724C184.761 47.8678 189.426 51.9657 197.563 51.9657C200.124 51.9657 202.71 51.4629 204.662 50.3818C205.219 50.0801 205.448 49.4265 205.219 48.8482L203.496 44.2475Z" fill="currentColor"/><path d="M213.281 12.7214C216.982 12.7214 219.467 10.3078 219.467 7.03955C219.467 3.99753 216.982 1.73486 213.281 1.73486C209.58 1.73486 207.095 4.14837 207.095 7.24068C207.095 10.333 209.605 12.7214 213.281 12.7214ZM209.58 51.4632H217.008C217.718 51.4632 218.275 50.9101 218.275 50.2062V18.7048C218.275 18.0009 217.718 17.4478 217.008 17.4478H209.605C208.895 17.4478 208.338 18.0009 208.338 18.7048V50.2062C208.312 50.9101 208.895 51.4632 209.58 51.4632Z" fill="currentColor"/><path d="M248.748 18.2271L239.266 40.6023L230.089 18.2523C229.886 17.7746 229.43 17.4729 228.923 17.4729H221.419C220.506 17.4729 219.898 18.378 220.253 19.2076L233.588 50.7089C233.79 51.1866 234.247 51.4883 234.754 51.4883H243.323C243.83 51.4883 244.286 51.1866 244.489 50.7089L257.9 19.2076C258.254 18.378 257.646 17.4729 256.733 17.4729H249.914C249.407 17.4478 248.951 17.7494 248.748 18.2271Z" fill="currentColor"/><path d="M275.189 51.9661C286.09 51.9661 294 44.7004 294 34.443C294 24.2107 286.09 16.9199 275.189 16.9199C264.288 16.9199 256.328 24.1856 256.328 34.443C256.302 44.7004 264.288 51.9661 275.189 51.9661ZM275.189 43.8708C270.22 43.8708 266.392 40.3259 266.392 34.443C266.392 28.5601 270.22 25.0152 275.189 25.0152C280.158 25.0152 283.936 28.5601 283.936 34.443C283.936 40.3259 280.158 43.8708 275.189 43.8708Z" fill="currentColor"/><path fill-rule="evenodd" clip-rule="evenodd" d="M16.8841 28.4092C14.6531 28.4092 12.8278 30.2193 12.8278 32.4317V62.9777C12.8278 65.19 14.6531 67.0002 16.8841 67.0002C19.115 67.0002 20.9403 65.19 20.9403 62.9777V32.4317C20.9403 30.2193 19.1403 28.4092 16.8841 28.4092Z" fill="currentColor"/><path fill-rule="evenodd" clip-rule="evenodd" d="M33.0075 19.2075L20.2558 1.65929C19.4699 0.578236 18.2276 0 16.9601 0C16.9347 0 16.9094 0 16.9094 0C16.884 0 16.8587 0 16.8333 0C15.5657 0 14.3235 0.578236 13.5123 1.65929L0.760541 19.2075C0.253514 19.8863 0 20.7159 0 21.5707V50.9351C0 53.1475 1.8253 54.9576 4.05622 54.9576C6.28714 54.9576 8.11244 53.1475 8.11244 50.9351V22.8529L11.6363 18.0007H22.1318L25.6556 22.8529V50.9099C25.6556 53.1223 27.4809 54.9324 29.7118 54.9324C31.9427 54.9324 33.768 53.1223 33.768 50.9099V21.5456C33.7934 20.7159 33.5145 19.8863 33.0075 19.2075Z" fill="currentColor"/></svg>