<?xml version="1.0" encoding="utf-8"?>
<!-- Generator: Adobe Illustrator 19.1.0, SVG Export Plug-In . SVG Version: 6.00 Build 0)  -->
<svg version="1.1" id="Слой_1" xmlns="http://www.w3.org/2000/svg" xmlns:xlink="http://www.w3.org/1999/xlink" x="0px" y="0px"
	 viewBox="0 0 256 94.2" enable-background="new 0 0 256 94.2" xml:space="preserve">
<g>
	<polyline fill="#DA0000" points="15.5,27.4 42.3,27.4 54.8,49 74.5,34.9 216.3,34.9 208.6,40.8 93,40.8 62.7,62.7 74.7,84.7 
		56.7,84.7 48.5,73.5 33.2,84.7 6.8,84.7 39,60.4 	"/>
	<polygon fill="#DA0000" points="8.5,17.4 36.3,17.4 39.6,22.7 12.3,22.7 	"/>
	<polygon fill="#DA0000" points="80.1,30.9 85.1,27.4 224.4,27.4 219.8,31 	"/>
	<polygon fill="#DA0000" points="91.7,22.7 232.2,22.7 239.2,17.4 99.2,17.4 	"/>
	<polyline fill="#0044D9" points="67.7,63.9 94.3,44.2 249.3,44.2 249.3,84.7 78.3,84.7 	"/>
	<text transform="matrix(0.9848 0 -0.1736 0.9848 93.034 75.1112)"><tspan x="0" y="0" fill="#FFFFFF" font-family="'Impact'" font-size="29.4474px">D</tspan><tspan x="16.3" y="0" fill="#FFFFFF" font-family="'Impact'" font-size="5.0771px">        </tspan><tspan x="23.4" y="0" fill="#FFFFFF" font-family="'Impact'" font-size="29.4474px">A</tspan><tspan x="38.4" y="0" fill="#FFFFFF" font-family="'Impact'" font-size="5.0771px">        </tspan><tspan x="45.5" y="0" fill="#FFFFFF" font-family="'Impact'" font-size="29.4474px">L</tspan><tspan x="56.7" y="0" fill="#FFFFFF" font-family="'Impact'" font-size="5.0771px">      </tspan><tspan x="62.1" y="0" fill="#FFFFFF" font-family="'Impact'" font-size="29.4474px">Y</tspan><tspan x="76.1" y="0" fill="#FFFFFF" font-family="'Impact'" font-size="5.0771px">        </tspan><tspan x="83.2" y="0" fill="#FFFFFF" font-family="'Impact'" font-size="29.4474px">S</tspan><tspan x="98.4" y="0" fill="#FFFFFF" font-family="'Impact'" font-size="5.0771px">        </tspan><tspan x="105.6" y="0" fill="#FFFFFF" font-family="'Impact'" font-size="29.4474px">.</tspan><tspan x="111" y="0" fill="#FFFFFF" font-family="'Impact'" font-size="5.0771px">        </tspan><tspan x="118.2" y="0" fill="#FFFFFF" font-family="'Impact'" font-size="29.4474px">L</tspan><tspan x="129.4" y="0" fill="#FFFFFF" font-family="'Impact'" font-size="5.0771px">      </tspan><tspan x="134.8" y="0" fill="#FFFFFF" font-family="'Impact'" font-size="29.4474px">T</tspan></text>
	<path fill="none" d="M239.2,17.4"/>
	<path fill="none" d="M208.6,40.8"/>
	<polyline fill="#DA0000" points="85.7,27.4 226.1,27.4 221.3,31 	"/>
</g>
</svg>
