<?xml version="1.0" encoding="utf-8"?>
<!-- Generator: Adobe Illustrator 19.1.0, SVG Export Plug-In . SVG Version: 6.00 Build 0)  -->
<svg version="1.1" id="Слой_1" xmlns="http://www.w3.org/2000/svg" xmlns:xlink="http://www.w3.org/1999/xlink" x="0px" y="0px"
	 viewBox="-423.5 602.8 347 85.6" style="enable-background:new -423.5 602.8 347 85.6;" xml:space="preserve">
<style type="text/css">
	.st0{fill:#FFFFFF;}
	.st1{fill:#CF0A2C;}
	.st2{fill:#0069A6;}
</style>
<path class="st0" d="M-318.7,639.4h-17.2c-0.6,0-1,0.5-1,1v39.5c0,0.6,0.5,1,1,1h17.3c13.6,0,22.4-8.2,22.4-20.8
	C-296.3,647.5-305.1,639.4-318.7,639.4L-318.7,639.4z M-318.7,670L-318.7,670h-5.9v-19.6h5.9c6.1,0,9.8,3.7,9.8,9.8
	C-308.9,665.1-312.2,670-318.7,670z"/>
<path class="st0" d="M-216.7,650.1c-4.8,0-8.6,2.7-10.3,5.3c-1.3-3.5-4.1-5.3-8.5-5.3c-4.8,0-8.5,2.5-9.8,4.2v-2.4c0-0.6-0.5-1-1-1
	h-9c-0.6,0-1,0.5-1,1v28c0,0.6,0.5,1,1,1h9c0.6,0,1-0.5,1-1v-17.5c0.6-0.8,2-2.4,4.5-2.4c2.2,0,3.4,1.2,3.4,3.4v16.5
	c0,0.6,0.5,1,1,1h9c0.6,0,1-0.5,1-1v-17.5c0.7-0.8,2-2.4,4.5-2.4c2.1,0,3.4,1.2,3.4,3.4v16.5c0,0.6,0.5,1,1,1h9c0.6,0,1-0.5,1-1
	v-20.8C-207.6,653.3-210.9,650.1-216.7,650.1z"/>
<path class="st0" d="M-191.6,650.9h-9c-0.6,0-1,0.5-1,1v28c0,0.6,0.5,1,1,1h9c0.6,0,1-0.5,1-1v-28
	C-190.5,651.3-191,650.9-191.6,650.9z"/>
<path class="st0" d="M-195.8,636.1c-3.4,0-6.2,2.8-6.2,6.3c0,3.5,2.8,6.3,6.2,6.3c3.4,0,6.2-2.8,6.2-6.3
	C-189.6,638.9-192.3,636.1-195.8,636.1z"/>
<path class="st0" d="M-163.1,650.1c-5.7,0-8.8,2.6-10.2,4.2v-2.4c0-0.6-0.5-1-1-1h-9c-0.6,0-1,0.5-1,1v28c0,0.6,0.5,1,1,1h9
	c0.6,0,1-0.5,1-1v-17.5c0.7-0.8,2.1-2.4,4.7-2.4c2.8,0,4.3,1.5,4.3,4.3v15.6c0,0.6,0.5,1,1,1h9c0.6,0,1-0.5,1-1v-20.3
	C-153.2,653.7-156.9,650.1-163.1,650.1z"/>
<path class="st0" d="M-276.9,650c-8.6,0-15.6,7.1-15.6,15.9c0,8.8,7,15.9,15.6,15.9c8.6,0,15.6-7.1,15.6-15.9
	C-261.3,657.1-268.3,650-276.9,650L-276.9,650z M-276.9,671.1L-276.9,671.1c-2.9,0-5.3-2.4-5.3-5.4s2.4-5.4,5.3-5.4
	c3,0,5.3,2.4,5.3,5.4S-274,671.1-276.9,671.1z"/>
<path class="st0" d="M-132.7,650c-8.6,0-15.6,7.1-15.6,15.9c0,8.8,7,15.9,15.6,15.9c8.6,0,15.6-7.1,15.6-15.9
	C-117.1,657.1-124.1,650-132.7,650L-132.7,650z M-132.7,671.1L-132.7,671.1c-2.9,0-5.3-2.4-5.3-5.4c0-3,2.4-5.4,5.3-5.4
	c2.9,0,5.3,2.4,5.3,5.4S-129.8,671.1-132.7,671.1z"/>
<path class="st0" d="M-107.1,641.1L-107.1,641.1L-107.1,641.1L-107.1,641.1c-0.7-3.2-4.1-5.5-7.4-4.8c-3.3,0.7-5.5,3.9-4.9,7
	c0.5,2.6,2.9,4.3,5.5,4.5c-0.1,1.1-1.1,2.1-1.9,2.6c-0.5,0.3-0.2,0.9-0.2,0.9l0.7,1c0.2,0.3,0.5,0.5,0.9,0.4
	C-107.5,649.9-106.4,644-107.1,641.1z"/>
<path class="st0" d="M-97.4,659.8c0-1.1,1.4-1.6,3.2-1.6c3.6,0,5.6,1,7.9,2.6c0.2,0.2,0.5,0.2,0.8,0.2c0.3-0.1,0.5-0.2,0.6-0.5
	l3-5.3c0.3-0.5,0.1-1.1-0.4-1.4c-2.5-1.5-6.1-3.5-12.5-3.5c-9.1,0-14,4.4-13.2,10.6c1.4,11,18.3,7.3,18,11c-0.1,0.9-1.6,1.5-4.1,1.5
	c-3.3,0-7.1-1.7-9.5-3.2c-0.2-0.1-0.5-0.2-0.8-0.1c-0.3,0.1-0.5,0.2-0.6,0.5l-3.5,5.9c-0.3,0.5-0.1,1.1,0.3,1.4
	c3.4,2.3,8.8,3.9,13.5,3.9c9.1,0,14.4-4,14.4-10.5C-80.2,659.1-97.3,662.8-97.4,659.8z"/>
<path class="st0" d="M-347,629.1l-20.2-20.6c-0.8-0.8-1.8-1.3-2.9-1.3h-0.6c-1.1,0.1-2.1,0.5-2.9,1.3l-17,17.3l-28.2,28.7
	c-1.8,1.8-1.8,4.7,0,6.5l20.2,20.6c0.8,0.9,1.9,1.3,3.1,1.3h0.1h0.1c1.2,0,2.3-0.5,3.1-1.3l25.3-25.8l19.9-20.3
	C-345.3,633.8-345.3,630.9-347,629.1z"/>
<path class="st1" d="M-348.5,630.6l-20.2-20.6c-1-1-2.6-1-3.5,0l-21.9,22.3l23.8,24.2l21.9-22.3
	C-347.5,633.2-347.5,631.6-348.5,630.6L-348.5,630.6z M-366.2,636.5L-366.2,636.5c-1.1,1.2-2.7,1.7-4.1,1.7s-3-0.6-4.1-1.7
	c-1.1-1.2-1.7-2.7-1.7-4.2c0-1.5,0.6-3.1,1.7-4.2c1.1-1.2,2.6-1.7,4.1-1.7s3,0.6,4.1,1.7c1.1,1.2,1.7,2.7,1.7,4.2
	C-364.5,633.8-365.1,635.4-366.2,636.5z"/>
<path class="st2" d="M-417.4,656c-1,1-1,2.6,0,3.6l20.2,20.6c0.5,0.5,1.1,0.8,1.8,0.8c0.6,0,1.3-0.3,1.8-0.8l21.9-22.3l-23.8-24.2
	L-417.4,656L-417.4,656z M-399.9,661.9L-399.9,661.9c-1.1,1.2-2.7,1.7-4.2,1.7c-1.5,0-3-0.6-4.1-1.7c-1.1-1.2-1.7-2.7-1.7-4.2
	s0.6-3.1,1.7-4.2c1.1-1.2,2.6-1.7,4.1-1.7c1.5,0,3,0.6,4.2,1.7c1.1,1.2,1.7,2.7,1.7,4.2C-398.2,659.2-398.8,660.8-399.9,661.9
	L-399.9,661.9z M-391,653.7L-391,653.7c1.1-1.2,2.6-1.7,4.1-1.7c1.5,0,3,0.6,4.1,1.7s1.7,2.7,1.7,4.2c0,1.5-0.6,3-1.7,4.2
	c-1.1,1.2-2.6,1.7-4.1,1.7s-3-0.6-4.1-1.7c-1.1-1.2-1.7-2.7-1.7-4.2C-392.7,656.4-392.1,654.9-391,653.7z"/>
<g>
	<path class="st0" d="M-379.5,675.8c-1.6,0-2.9,1.3-2.9,2.9c0,1.6,1.3,2.9,2.9,2.9c1.6,0,2.9-1.3,2.9-2.9
		C-376.6,677.1-377.9,675.8-379.5,675.8L-379.5,675.8z M-379.5,681.8L-379.5,681.8c-1.8,0-3.2-1.4-3.2-3.2c0-1.7,1.4-3.2,3.2-3.2
		c1.8,0,3.2,1.4,3.2,3.2C-376.3,680.4-377.7,681.8-379.5,681.8z"/>
	<path class="st0" d="M-379.5,675.8L-379.5,675.8c-1.6-0.1-3,1.2-3,2.8s1.3,2.9,3,2.9c1.6,0,3-1.3,3-2.9S-377.9,675.7-379.5,675.8
		L-379.5,675.8L-379.5,675.8c1.5,0.1,2.8,1.3,2.8,2.8c0,1.5-1.3,2.8-2.8,2.8c-1.5,0-2.8-1.2-2.8-2.8S-381.1,675.9-379.5,675.8
		L-379.5,675.8L-379.5,675.8z M-379.5,681.8L-379.5,681.8L-379.5,681.8c-1.8,0.1-3.3-1.4-3.3-3.2c0-1.8,1.5-3.2,3.3-3.2
		s3.3,1.4,3.3,3.2C-376.2,680.4-377.7,681.9-379.5,681.8L-379.5,681.8L-379.5,681.8c1.7-0.1,3.1-1.5,3.1-3.2c0-1.7-1.4-3.1-3.1-3.1
		c-1.7,0-3.1,1.4-3.1,3.1C-382.6,680.3-381.2,681.7-379.5,681.8L-379.5,681.8z"/>
	<path class="st0" d="M-378.7,680.3l-0.9-1.3h-0.6v1.3h-0.5v-3.4h1.4c0.6,0,1.1,0.4,1.1,1c0,0.8-0.7,1-0.9,1l0.9,1.3H-378.7
		L-378.7,680.3z M-379.3,677.4L-379.3,677.4h-0.9v1.2h0.9c0.3,0,0.6-0.2,0.6-0.6C-378.6,677.6-379,677.4-379.3,677.4z"/>
	<path class="st0" d="M-378.7,680.3L-378.7,680.3l-0.9-1.4h-0.6h-0.1v1.3h-0.3V677h1.3c0.5,0,1,0.4,1,0.9c0,0.4-0.2,0.6-0.3,0.7
		c-0.2,0.1-0.4,0.2-0.5,0.2h-0.2l0.9,1.3L-378.7,680.3L-378.7,680.3L-378.7,680.3L-378.7,680.3L-378.7,680.3l0.6,0.1h0.2l-1-1.5
		l-0.1,0v0.1c0.2,0,1-0.3,1-1.1c0-0.7-0.6-1.1-1.2-1.1h-1.4h-0.1v3.6h0.6h0.1v-1.3h0.5l0.9,1.3h0V680.3L-378.7,680.3z M-379.3,677.3
		L-379.3,677.3v0.2h-0.8v1.1h0.8c0.2,0,0.5-0.2,0.5-0.5c0-0.3-0.3-0.5-0.5-0.5V677.3c0.3,0,0.7,0.3,0.7,0.7c0,0.4-0.4,0.7-0.7,0.7
		h-1v-0.1v-1.3h0.1H-379.3z"/>
</g>
</svg>
