<?xml version="1.0" encoding="utf-8"?>
<!-- Generator: Adobe Illustrator 19.1.0, SVG Export Plug-In . SVG Version: 6.00 Build 0)  -->
<svg version="1.1" id="Слой_1" xmlns="http://www.w3.org/2000/svg" xmlns:xlink="http://www.w3.org/1999/xlink" x="0px" y="0px"
	 viewBox="-143 527.5 554 137" style="enable-background:new -143 527.5 554 137;" xml:space="preserve">
<style type="text/css">
	.st0{fill:#FFFFFF;}
</style>
<path class="st0" d="M38.1,527.9c-20.6,0-34.3,10.8-36.2,27.1c-0.4,3.8-0.9,7.5-1.4,11.3h268.1c0,0,0.5-4,0.9-7.1
	c2-16.4-4.9-31.2-30.2-31.2v0C239.3,527.9,48.9,527.9,38.1,527.9z M-125.6,527.9l-4.7,38.3H-8.7l4.7-38.3L-125.6,527.9L-125.6,527.9
	L-125.6,527.9z M282.6,527.9l-4.7,38.3h131.8c0,0,0.2-1.4,0.7-5.9c3.2-25.2-13-32.4-28.7-32.4H282.6z M276.1,580.8l-10.3,83.7
	l45.5,0l10.3-83.6L276.1,580.8L276.1,580.8L276.1,580.8z M362.5,580.8l-10.3,83.7l45.5,0l10.3-83.6L362.5,580.8L362.5,580.8
	L362.5,580.8z M-132.1,580.8l-10.3,83.6h121.6l4.5-36.3l-76.1,0l1.9-15.6h76.1l3.9-31.7L-132.1,580.8
	C-132.1,580.8-132.1,580.8-132.1,580.8z M-1.3,580.8c-3.3,21.8,7.6,31.7,23.1,31.7c8.4,0,61.5,0,61.5,0l-1.9,15.7l-88.5,0l-4.5,36.3
	c0,0,96.3,0,100.2,0c3.2-0.2,25.8-0.8,33.4-19.3c2.5-6,4.7-27.4,5.3-31.9c3.5-26.2-14.6-32.4-28.8-32.4
	C90.7,580.9,14.2,580.8-1.3,580.8z M140.3,580.8L130,664.5h45.5l6.4-51.9H239c16.2,0,24.9-8.7,26.5-20.4c0.5-3.8,1-7.5,1.4-11.3
	L140.3,580.8C140.3,580.8,140.3,580.8,140.3,580.8z"/>
</svg>
