<svg xmlns="http://www.w3.org/2000/svg" id="icon-fifacom-logo" viewBox="0 0 111.72 20"><defs><style>
								.fi-iconFifaPrefixfifacom-logo--1, .fi-iconFifaPrefixfifacom-logo--3 {
										fill: #fff;
								}

								.fi-iconFifaPrefixfifacom-logo--2 {
										fill: #ffcc00;
								}
      </style></defs><g id="Layer_2" data-name="Layer 2"><g id="Layer_1-2" data-name="Layer 1"><polygon class="fi-iconFifaPrefixfifacom-logo--1" points="15.35 0 13.73 4.36 6.32 4.36 6.32 8.41 12.41 8.41 10.7 12.78 6.32 12.78 6.32 20 0 20 0 0 15.35 0 15.35 0"/><polygon class="fi-iconFifaPrefixfifacom-logo--1" points="17.29 0 17.28 20 23.52 20 23.52 0 17.29 0 17.29 0"/><polygon class="fi-iconFifaPrefixfifacom-logo--1" points="27.83 0 27.83 20 34.15 20 34.15 12.78 38.52 12.78 40.24 8.41 34.15 8.41 34.15 4.36 41.55 4.36 43.19 0 27.83 0 27.83 0"/><path class="fi-iconFifaPrefixfifacom-logo--1" d="M52.91,13.47,50.42,5.14,48,13.47ZM61,20H54.75l-.81-2.69h-7L46.12,20h-6L47.28,0h6.48L61,20Z"/><path class="fi-iconFifaPrefixfifacom-logo--2" d="M61.68,10.52,65.07,20a5.06,5.06,0,0,0-1-10A5.27,5.27,0,0,0,61.68,10.52Z"/><path class="fi-iconFifaPrefixfifacom-logo--3" d="M80.09,11a4.35,4.35,0,0,0-2-.41c-1.8,0-2.94,1.43-2.94,3.53s1,3.64,3,3.64a6.1,6.1,0,0,0,2.23-.52l.13,2.41a9.47,9.47,0,0,1-2.9.37c-3.67,0-5.51-2.5-5.51-5.9,0-3.23,1.91-5.78,5.4-5.78a9.34,9.34,0,0,1,2.81.37Z"/><path class="fi-iconFifaPrefixfifacom-logo--3" d="M87.59,8.32a5.58,5.58,0,0,1,5.85,5.91,5.84,5.84,0,0,1-11.68,0A5.58,5.58,0,0,1,87.59,8.32Zm0,9.42c2.23,0,2.82-2,2.82-3.85s-.91-3.32-2.82-3.32-2.79,1.65-2.79,3.32C84.8,15.73,85.38,17.74,87.59,17.74Z"/><path class="fi-iconFifaPrefixfifacom-logo--3" d="M95.34,8.84h2.71V10.4h0a3.92,3.92,0,0,1,3.31-1.82,3.25,3.25,0,0,1,3.3,2,3.83,3.83,0,0,1,3.49-2c2.75,0,3.53,1.88,3.53,4.37V20h-2.9V13.34c0-1,0-2.51-1.67-2.51-1.93,0-2.17,2.3-2.17,3.75V20h-2.9V13.34c0-1,0-2.51-1.67-2.51-1.93,0-2.17,2.3-2.17,3.75V20h-2.9Z"/></g></g></svg>