<?xml version="1.0" encoding="utf-8"?>
<!-- Generator: Adobe Illustrator 19.1.0, SVG Export Plug-In . SVG Version: 6.00 Build 0)  -->
<svg version="1.1" id="Слой_1" xmlns="http://www.w3.org/2000/svg" xmlns:xlink="http://www.w3.org/1999/xlink" x="0px" y="0px"
	 viewBox="0 0 50 48.8" style="enable-background:new 0 0 50 48.8;" xml:space="preserve">
<style type="text/css">
	.st0{fill-rule:evenodd;clip-rule:evenodd;}
</style>
<g>
	<path class="st0" d="M25,0C11.2,0,0,11.2,0,25c0,11.1,7.2,20.4,17.1,23.7c1.2,0.2,1.7-0.5,1.7-1.2c0-0.6,0-2.6,0-4.7
		c-6.3,1.2-7.9-1.5-8.4-2.9c-0.3-0.7-1.5-2.9-2.6-3.5c-0.9-0.5-2.1-1.6,0-1.7c2,0,3.4,1.8,3.8,2.6c2.2,3.8,5.8,2.7,7.3,2.1
		c0.2-1.6,0.9-2.7,1.6-3.3c-5.6-0.6-11.4-2.8-11.4-12.3c0-2.7,1-5,2.6-6.7c-0.2-0.6-1.1-3.2,0.2-6.6c0,0,2.1-0.7,6.9,2.6
		c2-0.6,4.1-0.8,6.3-0.8c2.1,0,4.2,0.3,6.3,0.8c4.8-3.3,6.9-2.6,6.9-2.6c1.4,3.4,0.5,6,0.3,6.6c1.6,1.7,2.6,4,2.6,6.7
		c0,9.6-5.8,11.7-11.4,12.3c0.9,0.8,1.7,2.3,1.7,4.6c0,3.3,0,6,0,6.9c0,0.7,0.5,1.4,1.7,1.2c10.2-3.4,17-13,17-23.7
		C50,11.2,38.8,0,25,0L25,0z M25,0"/>
</g>
</svg>
