<?xml version="1.0" encoding="utf-8"?>
<!-- Generator: Adobe Illustrator 19.1.0, SVG Export Plug-In . SVG Version: 6.00 Build 0)  -->
<svg version="1.1" id="Слой_1" xmlns="http://www.w3.org/2000/svg" xmlns:xlink="http://www.w3.org/1999/xlink" x="0px" y="0px"
	 viewBox="-2090.4 581.4 4338.9 1028.3" style="enable-background:new -2090.4 581.4 4338.9 1028.3;" xml:space="preserve">
<style type="text/css">
	.st0{fill:#FFFFFF;}
</style>
<g>
	<path class="st0" d="M-1832,1091.4c0-62.6,50.7-113.3,113.3-113.3s113.4,50.7,113.4,113.3c0,62.6-50.7,113.3-113.3,113.3
		S-1832,1154-1832,1091.4z M-1590.4,601.4c-270.6,0-490,219.4-490,490s219.4,490,490,490s490-219.4,490-490
		S-1319.8,601.4-1590.4,601.4z M-1717.3,1519.5c-147.3-85.8-246.4-245.3-246.4-428.1s99.1-342.3,246.4-428.1
		c147.4,85.7,246.5,245.3,246.5,428.1S-1569.9,1433.8-1717.3,1519.5L-1717.3,1519.5z"/>
</g>
<g>
	<path class="st0" d="M-886,1510.4V874.3h98.2v636.1H-886z"/>
	<path class="st0" d="M-499.4,1035.9c31.3,0,68.1,4.3,110.6,13l22.1,4.6l-3.5,79.9c-46.6-4.9-81.1-7.4-103.5-7.4
		c-44.8,0-74.9,10.5-90.2,31.6c-15.3,21.1-23,60.7-23,118.9c0,58.2,7.4,98.4,22.1,120.7c14.7,22.3,45.4,33.4,92,33.4l103.5-7.4
		l2.7,80.8c-59.6,11.1-104.4,16.7-134.5,16.7c-67.2,0-114.6-19-142-57.1s-41.1-100.4-41.1-187.1c0-86.7,14.4-148.4,43.4-185.3
		C-612.1,1054.3-564.9,1035.9-499.4,1035.9z"/>
	<path class="st0" d="M-253.9,1096.2c30.4-40.2,81-60.4,151.7-60.4s121.4,20.1,151.7,60.4c30.4,40.2,45.6,100.6,45.6,181.1
		c0,80.5-14.8,141.1-44.2,182c-29.5,40.9-80.5,61.3-153.1,61.3s-123.6-20.4-153.1-61.3c-29.5-40.9-44.2-101.5-44.2-182
		C-299.4,1196.8-284.3,1136.5-253.9,1096.2z M-181.8,1398c13.6,24.8,40.1,37.1,79.6,37.1c39.5,0,66.1-12.4,79.6-37.1
		c13.6-24.8,20.3-65.3,20.3-121.6c0-56.3-7.2-96.3-21.7-119.8c-14.5-23.5-40.6-35.3-78.3-35.3c-37.8,0-63.9,11.8-78.3,35.3
		c-14.5,23.5-21.7,63.5-21.7,119.8C-202.1,1332.7-195.3,1373.3-181.8,1398z"/>
	<path class="st0" d="M196.9,1510.4V874.3h170.8l135.4,496.8l135.4-496.8h171.6v636.1H711V988.5h-13.3l-143.3,495.9H451.8
		L308.4,988.5h-13.3v521.9H196.9z"/>
	<path class="st0" d="M956.5,1096.2c30.4-40.2,81-60.4,151.7-60.4s121.4,20.1,151.7,60.4c30.4,40.2,45.6,100.6,45.6,181.1
		c0,80.5-14.8,141.1-44.2,182c-29.5,40.9-80.5,61.3-153.1,61.3s-123.6-20.4-153.1-61.3c-29.5-40.9-44.2-101.5-44.2-182
		C911,1196.8,926.1,1136.5,956.5,1096.2z M1028.6,1398c13.6,24.8,40.1,37.1,79.6,37.1c39.5,0,66.1-12.4,79.6-37.1
		c13.6-24.8,20.3-65.3,20.3-121.6c0-56.3-7.2-96.3-21.7-119.8c-14.5-23.5-40.6-35.3-78.3-35.3c-37.8,0-63.9,11.8-78.3,35.3
		c-14.5,23.5-21.7,63.5-21.7,119.8C1008.3,1332.7,1015.1,1373.3,1028.6,1398z"/>
	<path class="st0" d="M1425.5,1096.2c30.4-40.2,81-60.4,151.7-60.4s121.4,20.1,151.7,60.4c30.4,40.2,45.6,100.6,45.6,181.1
		c0,80.5-14.8,141.1-44.2,182c-29.5,40.9-80.5,61.3-153.1,61.3s-123.6-20.4-153.1-61.3c-29.5-40.9-44.2-101.5-44.2-182
		C1379.9,1196.8,1395.1,1136.5,1425.5,1096.2z M1497.6,1398c13.6,24.8,40.1,37.1,79.6,37.1c39.5,0,66.1-12.4,79.6-37.1
		c13.6-24.8,20.3-65.3,20.3-121.6c0-56.3-7.2-96.3-21.7-119.8c-14.5-23.5-40.6-35.3-78.3-35.3c-37.8,0-63.9,11.8-78.3,35.3
		c-14.5,23.5-21.7,63.5-21.7,119.8C1477.2,1332.7,1484,1373.3,1497.6,1398z"/>
	<path class="st0" d="M1966.5,1510.4h-96.4v-464.3h95.6v28.8c43.1-26,83.8-39,122.1-39c59,0,99.2,17.5,120.8,52.5
		c21.5,35,32.3,92.7,32.3,173.2v248.9h-95.6v-246.1c0-50.1-5.2-85.7-15.5-106.8c-10.3-21-31.4-31.6-63.3-31.6
		c-30.1,0-59,6.2-86.7,18.6l-13.3,5.6V1510.4z"/>
</g>
</svg>
