<?xml version="1.0" encoding="utf-8"?>
<!-- Generator: Adobe Illustrator 21.0.0, SVG Export Plug-In . SVG Version: 6.00 Build 0)  -->
<!DOCTYPE svg PUBLIC "-//W3C//DTD SVG 1.0//EN" "http://www.w3.org/TR/2001/REC-SVG-20010904/DTD/svg10.dtd">
<svg version="1.0" id="Layer_1" xmlns="http://www.w3.org/2000/svg" xmlns:xlink="http://www.w3.org/1999/xlink" x="0px" y="0px"
	 viewBox="0 0 200.8 64.3" enable-background="new 0 0 200.8 64.3" xml:space="preserve">
<g>
	<path fill="#F21937" d="M158.6,1.7c-0.3,4.3,1,8.4,4.9,10.5c0.9,3.8,1.1,7.9,0.9,12.1c-0.4,4.4-1,8.8-2.2,12.9l-1.4,1.4v7.4
		c-0.3,0.1-0.7,0-1.1,0.1c-0.1-0.6,0-1.3-0.1-2c-1.7-0.1-1.6,1.7-1.8,2.9c-0.3,2.7-0.6,5.8,0,8.5c-0.8-0.2-1.7-0.3-2.6-0.4l-0.3-3.6
		c-0.5-0.1-1.2,0.1-1.6,0.4c-0.9,0.8-1.1,1.9-1.5,3h-0.6l0.3-5.1l1.8-1.5c0.2-1.9,0.3-3.9,0.2-5.9l-3.4,3.7l-6.5,13.3l-0.1,0.1
		c1-0.1,2-0.4,3-0.6c0.1-0.4,0.2-0.8,0.1-1.3c0.3-0.1,0.7-0.2,1.1-0.2c-1.3,4.2-5.8,6.5-9.9,6.8c-3.3-2.3-6.4-5-9.4-7.9
		c-5.6-14.6-5.5-34.1-0.6-49c0-1.7,1.8-0.3,2.7-0.5c0,1-0.7,2.2-1.7,2.7c-0.8,0.2-0.8,1.3-1.1,2c-0.7,2.5-1,5.1-1,7.8
		c2.5-1.5,4.2-4.2,5.3-6.7l3,0.3l0.6,10c-0.3,0.4-1.2-0.2-1.1,0.6l-0.8,13.9c-0.3,6,0.1,12,0.5,17.8c1.8,0.3,3.6-0.3,5.2-1.1
		c8-4.7,9.2-13.7,12-21.3c2.1-7.1,2.3-15,2.8-22.7C155,6.9,155.4,3.3,158.6,1.7z"/>
	<path fill="#F21937" d="M37.9,11.3h1l0.4,3.4c4.1,2.5,4.7,7,5.4,11.1c3.4-3.4,5.3-7.5,7.8-11.3c1.8-2.8,4.8-3.7,8-3.2L64,24.8
		c-1.9,5.7-2.7,11.9-2.9,18.2c-0.4,0.3-0.9,0.8-1.3,0.8l-0.3-0.4l-0.4-17.7v-0.1c-3.9,0.2-6.6,4.4-7.7,7.7c-2,5.5-3.4,11.3-4.5,17.3
		l-6.7-2l-1.3-13.9c-0.4-0.2-0.9-0.1-1.4-0.1c-2.4,8.3-2.1,17.8-4.3,26.2c-0.5,1.4-1.1,2.9-2.5,3.8c-1.7-3.1-4.8-5.8-4.9-9.7
		c-0.8-0.3-1.7-0.1-2.6-0.1c1.1-10.8,1.7-22,5.2-31.9c1.5,0.4,3.7,0.8,5.1-0.3c1.8-1.8,2.3-4.2,2.7-6.6c0.3-1.9,0.6-3.7,0.6-5.7
		l-0.8-0.1L36,8.2h1.8L37.9,11.3z"/>
	<path fill="#F21937" d="M120,15.5c1,0.7,2.1,1.1,3.2,1.6c0.2,8.5-0.4,16.7-2.2,24.4l-1.6,1.3l-0.3,14.1l-2.7-0.6
		c-0.6-3.8-0.9-7.8-1.8-11.6c-1.9-2.3-4.5-3.2-7.1-3.7c0.1,1.3,0.6,2.6,0.7,4c-2,0.4-4,1-5.2,2.9c-1.5,3.4-1.1,7.6-1.5,11.4
		c-0.3,1.5-0.8,3.1-2.3,3.9c-0.8,0.2-1.7-0.1-2.3-0.6c-1.6-1.5-2.4-3.3-2.9-5.3c-1.2-0.3-2.4-0.7-3.6-1l-0.5-4.9
		c0.3,0.1,0.7,0.1,1,0.1v2.8l1.4-1c0.7-5.3,2.4-10.2,1.8-16c0.3-0.1,0.6-0.1,0.9-0.1c0.2,0.3,0,0.9,0.2,1.2c0.2,0.1,0.5,0,0.8,0.1
		c0.1-1,0.2-2.2-0.1-3.2c-0.8-0.4-1.8-0.1-2.7,0c1.5-2.3,3.4-4.5,4.4-7l1.8-14c0.2-0.4,0.5-0.7,0.8-0.9c2,0.1,4.5-0.9,5.8,1
		c0.9,5.5-2.5,9.8-1.5,15.4l0.3,2.4c2.3,1.7,4.5,3.7,7.5,3.4c1.6-1.2,1.8-3.1,2-5c0.1-6.7-0.5-13.8,1.8-19.6
		c0.8-0.2,1.5-0.5,2.3-0.6L120,15.5z"/>
	<path fill="#F21937" d="M198.9,10.1c-0.4,0-0.9-0.1-1.3,0.1l-0.3,4.2h-1c-4-1.1-6.6-5.4-9.6-8.4c-1.8-1.8-3.7-3.5-6.3-3.4
		c-2.6,1-4,3.9-5.1,6.2c-0.4,0-0.8-0.1-1.2,0.1c-2.8,0.5-3.5,3.5-4.4,5.6h-1.1l-0.5,5.1c0.4,0.3,1.2-0.1,1.6,0.3
		c0.8,3.5,3.9,6.6,7.1,8.3c0.4,0.2,1,0.6,0.8,1.1l-18.1,22l0.6,4.4c2,0.5,3.7,2,5.4,3.4c5.9-3.6,10.9-9.5,15.8-14.7
		c0.1-0.4-0.2-0.8-0.3-1.1l-5.6,6.2c-0.3-0.3-0.4-0.8-0.6-1.1l2.8-3.1c0.1-0.7-0.1-1.4-0.1-2c3.5-3.4,5.2-7.5,7.3-11.5l1.6-0.1
		l0.8-2.4l1.7,0.1c1.2,3.6,1.5,7.7,1.7,11.7l0.1,14.8c0.3,0,0.6,0.1,0.9-0.1c0.4-2.8,0.6-5.6,1.1-8.4c0.3,0.1,0.7-0.1,1,0.1
		c0.2,3,0.2,6.3-0.3,9.2l4.4-0.1l0.4-2.6l1.7-14.1C200.6,30.3,202,19.2,198.9,10.1z M185.7,28.7c-3.4-0.2-6.5-1.4-8.4-4.4
		c-1.2-2.1-1.8-4.6-1.3-7.2l5,4.7c0.1-0.6,0.1-1.3,0-2c-0.5-0.5-1-0.7-1.5-1.2v-2.2h0.2c2,3.6,4.5,7,7.5,10.2
		C187,27.4,186.5,28.3,185.7,28.7z"/>
	<path fill="#F21937" d="M90.9,33.2c-1-5.5-2-11-2.1-17c-0.6-5.7-2.1-11.1-4-16.3c-2.5,0.2-5.2,0-7.7,0.1c-0.4,2.9-0.9,5.6-1.6,8.4
		l-5.9,20.3L67,40.3c-0.4,0.2-0.9,0.4-1.3,0.4c-0.1-3,0-6.1-0.1-9.1c-0.7,0.8-1.5,1.5-2.2,2.3c-1.3,9.7-1.3,20.4,0.3,30
		c2.9-1,6.1-1.1,9.3-1.3l0.3-6l1.1-14.1l0.7-3.2c1-2.5,3.6-4.1,6.1-4.3c0.1,0.1,0.2,0.2,0.1,0.3l3,15.7l3.6-2.2
		c-0.2-2.3-0.5-4.7-0.6-7h0.2c1.7,0.1,1,2.2,1.7,3.3c0.4-0.2,0.8-0.3,1.1-0.6l-0.1-10.8L90.9,33.2z M79.6,30.5
		c-1,0.7-2.1,0.9-3.2,1.3l1-7.2c0.9,0.6,1.9,1.4,2.2,2.4C79.5,28.2,79.9,29.4,79.6,30.5z"/>
	<path fill="#F21937" d="M10.1,39.7c0.5-0.3,1.1-0.8,1.1-1.4c-0.5-1-1.8-1-2.7-0.8L8.6,40C9.1,40.2,9.6,39.8,10.1,39.7z M10.6,54.9
		c-0.1,0-0.1-0.1-0.1-0.2l-0.2-0.5c-0.2-0.7,0.2-1.7-0.3-2.3c-0.4-0.2-0.8,0.1-1.1,0.2c0,1.1,0.1,2.2-0.6,3c-0.1-0.7-0.1-1.4-0.3-2
		l-0.1,0.1c-0.5,1.4-0.7,3.4,0.5,4.5c0.1-0.3,0-0.7,0.3-0.9c0.1,0.3,0.2,0.7,0.2,1c0.1,0.4,0.4,0.7,0.8,0.6c0.7-0.2,0.6-1,0.8-1.6
		c0.3,0.3,0.2,0.7,0.3,1c0.5-0.5,0.7-1,0.9-1.6c0.1-1.2,0.2-2.7-0.7-3.6C11.1,53.6,10.9,54.3,10.6,54.9z M19.1,6
		c-0.6-1.3-2-2.4-3.4-2.7l-12-0.1L2.6,3.6C1.3,4.2,0.2,5.4,0,6.8v52.5c0.3,1.6,1.7,3.1,3.3,3.4h12.4c1.6-0.2,3.1-1.5,3.5-3.1
		l0.1-52.1L19.1,6z M8.1,24.7C8,24.3,7.6,24.1,7.3,24l-0.1,0.2c0,1.5,0,3-0.2,4.4v-5.9c0.4-0.4,1.4-0.4,1.8,0h3.4
		c0,0.8-0.1,1.7,0.1,2.5c-0.2-1.4-1.8-1-2.8-1l-0.2,0.2v7.6c0.2,0.2,0.2,0.5,0.5,0.6H6.8c0-0.1-0.1-0.2-0.1-0.2
		c0.7-0.1,1.4-0.6,1.6-1.3C8,29,8.3,26.8,8.1,24.7z M12.3,36.9c0.5,0.5,0.7,1.1,0.8,1.7c-0.1,1-0.3,1.9-1.1,2.5
		c-0.9,0.8-2.1,0.9-3.3,1l-0.3,3.6c-0.2,0.2-0.6,0.1-0.9,0.1l-0.1-0.2v-8c-0.3-0.3-1.1-0.5-1-1.1C8.3,36.7,10.4,36.5,12.3,36.9z
		 M12,59c-0.9,1.1-2.2,1.5-3.5,1c-2-1.1-2.2-3.4-2.1-5.6c0.2-1.5,0.5-3.3,2.1-3.9c1.5-0.5,3.2,0.2,3.9,1.6
		C13.4,54.1,13.3,57.1,12,59z M13.4,10.6c-0.1-0.2-0.2-0.3-0.3-0.4c-0.4-0.2-0.6,0.2-0.7,0.5L12.2,17c-0.1,0.2-0.2,0.5-0.3,0.8
		l-0.1-5.2c-0.1-0.3-0.5-0.5-0.7-0.3c-2,1.9-3.7,4.1-5.6,5.9H5.3c-0.2-3.1-0.1-6.4-0.1-9.6C5.6,8,6.9,8.1,7.3,8.5
		C7.4,9.8,7,11.4,8,12.3c0.7-0.1,0.9-0.8,1.3-1.3c0.5-0.8,0.9-1.8,1.6-2.5h2.3C13.5,9.1,13.3,9.9,13.4,10.6z"/>
</g>
</svg>
