<?xml version="1.0" encoding="utf-8"?>
<!-- Generator: Adobe Illustrator 19.1.0, SVG Export Plug-In . SVG Version: 6.00 Build 0)  -->
<svg version="1.1" id="Слой_1" xmlns="http://www.w3.org/2000/svg" xmlns:xlink="http://www.w3.org/1999/xlink" x="0px" y="0px"
	 viewBox="-388 579.5 64 32" style="enable-background:new -388 579.5 64 32;" xml:space="preserve">
<style type="text/css">
	.st0{fill:#F5C518;}
</style>
<g>
	<path class="st0" d="M-384,579.5h56c2.2,0,4,1.8,4,4v24c0,2.2-1.8,4-4,4h-56c-2.2,0-4-1.8-4-4v-24
		C-388,581.3-386.2,579.5-384,579.5z"/>
</g>
<g transform="translate(8.000000, 7.000000)">
	<polygon points="-388,597.5 -383,597.5 -383,579.5 -388,579.5 	"/>
	<path d="M-372.3,579.5l-1.1,8.4l-0.7-4.6c-0.2-1.5-0.4-2.7-0.6-3.8h-6.3v18h4.2l0-11.9l1.8,11.9h3l1.7-12.1l0,12.1h4.2v-18H-372.3z
		"/>
	<path d="M-364,597.5v-18h7.8c1.8,0,3.2,1.4,3.2,3.2v11.6c0,1.8-1.4,3.2-3.2,3.2H-364z M-358.2,582.8c-0.2-0.1-0.6-0.2-1.1-0.2v11.8
		c0.7,0,1.2-0.1,1.3-0.4c0.2-0.3,0.3-1,0.3-2.2v-7c0-0.8,0-1.3-0.1-1.6C-357.8,583.1-358,582.9-358.2,582.8z"/>
	<path d="M-343.6,584.1h0.3c1.8,0,3.3,1.4,3.3,3.1v7.2c0,1.7-1.5,3.1-3.3,3.1h-0.3c-1.1,0-2.1-0.5-2.7-1.3l-0.3,1.1h-4.5v-17.8h4.8
		v5.8C-345.6,584.6-344.6,584.1-343.6,584.1z M-344.6,592.8v-4.3c0-0.7,0-1.2-0.1-1.4c-0.1-0.2-0.5-0.3-0.7-0.3s-0.7,0.1-0.8,0.3
		v1.4v4.4v1.4c0.1,0.2,0.5,0.3,0.8,0.3s0.7-0.1,0.7-0.3S-344.6,593.6-344.6,592.8z"/>
</g>
</svg>
