<?xml version="1.0" encoding="utf-8"?>
<!-- Generator: Adobe Illustrator 19.1.0, SVG Export Plug-In . SVG Version: 6.00 Build 0)  -->
<svg version="1.1" id="Слой_1" xmlns="http://www.w3.org/2000/svg" xmlns:xlink="http://www.w3.org/1999/xlink" x="0px" y="0px"
	 viewBox="-372 579.5 96 32" style="enable-background:new -372 579.5 96 32;" xml:space="preserve">
<style type="text/css">
	.st0{fill:#FFFFFF;}
	.st1{fill:#FF9E00;}
</style>
<title>Logo</title>
<desc>Created with Sketch.</desc>
<g>
	<path class="st0" d="M-327.8,603h-3v-14.4h3v0.8c0.7-0.6,1.9-1.3,3.5-1.3c2,0,3.8,0.9,5,2.3c1.2-1.4,3-2.3,5-2.3
		c3.6,0,6.5,2.9,6.5,6.5v8.4h-3v-8.4c0-1.9-1.6-3.5-3.5-3.5c-1.9,0-3.5,1.6-3.5,3.5v8.4h-3v-8.4c0-1.9-1.6-3.5-3.5-3.5
		c-1.9,0-3.5,1.6-3.5,3.5V603z"/>
	<rect x="-286.2" y="588.6" class="st0" width="3" height="14.4"/>
	<rect x="-279.6" y="582.5" class="st0" width="3" height="20.6"/>
	<circle class="st0" cx="-284.6" cy="584" r="2.1"/>
	<path id="Clip-2" class="st1" d="M-355.9,579.5c-8.8,0-16,7.2-16,16c0,8.8,7.2,16,16,16c3.2,0,6.4-1,9-2.8l-2.1-2.4
		c-2.1,1.3-4.4,2-6.9,2c-7.1,0-12.8-5.7-12.8-12.8c0-7.1,5.7-12.8,12.8-12.8c7.1,0,12.8,5.7,12.8,12.8c0,0.9-0.1,1.9-0.3,2.8
		c-0.4,1.7-1.6,2.2-2.5,2.1c-0.9-0.1-1.9-0.7-2-2.3v-2.6c0-4.4-3.6-8.1-8.1-8.1c-4.4,0-8.1,3.6-8.1,8.1c0,4.4,3.6,8.1,8.1,8.1
		c2.3,0,4.3-0.9,5.8-2.4c0.9,1.4,2.3,2.3,4,2.4c0.1,0,0.3,0,0.4,0c1.2,0,2.3-0.4,3.2-1.1c1-0.7,1.7-1.8,2.1-3
		c0.1-0.2,0.2-0.7,0.2-0.7h0c0.3-1.1,0.3-2.2,0.3-3.3C-339.9,586.7-347.1,579.5-355.9,579.5z M-360.8,595.5c0-2.7,2.2-4.9,4.9-4.9
		c2.7,0,4.9,2.2,4.9,4.9c0,2.7-2.2,4.9-4.9,4.9C-358.6,600.4-360.8,598.2-360.8,595.5z"/>
	<path class="st0" d="M-327.8,603h-3v-14.4h3v0.8c0.7-0.6,1.9-1.3,3.5-1.3c2,0,3.8,0.9,5,2.3c1.2-1.4,3-2.3,5-2.3
		c3.6,0,6.5,2.9,6.5,6.5v8.4h-3v-8.4c0-1.9-1.6-3.5-3.5-3.5c-1.9,0-3.5,1.6-3.5,3.5v8.4h-3v-8.4c0-1.9-1.6-3.5-3.5-3.5
		c-1.9,0-3.5,1.6-3.5,3.5V603z"/>
	<rect x="-286.2" y="588.6" class="st0" width="3" height="14.4"/>
	<rect x="-279.6" y="582.5" class="st0" width="3" height="20.6"/>
	<path class="st0" d="M-292.7,588.6v1.1c-1.2-1-2.7-1.6-4.5-1.6c-4.3,0-7.7,3.5-7.7,7.7s3.5,7.7,7.7,7.7c1.8,0,3.3-0.6,4.5-1.6v1.1
		h3v-14.4H-292.7z M-297.2,600.6c-2.6,0-4.8-2.1-4.8-4.8s2.1-4.8,4.8-4.8s4.7,2.1,4.7,4.8S-294.6,600.6-297.2,600.6z"/>
	<circle class="st0" cx="-284.6" cy="584" r="2.1"/>
</g>
</svg>
