<?xml version="1.0" encoding="utf-8"?>
<!-- Generator: Adobe Illustrator 19.1.0, SVG Export Plug-In . SVG Version: 6.00 Build 0)  -->
<svg version="1.1" id="Слой_1" xmlns="http://www.w3.org/2000/svg" xmlns:xlink="http://www.w3.org/1999/xlink" x="0px" y="0px"
	 viewBox="-457.9 533.5 340 123.9" style="enable-background:new -457.9 533.5 340 123.9;" xml:space="preserve">
<style type="text/css">
	.st0{fill:#E31235;}
	.st1{fill:#FFFFFF;}
</style>
<path class="st0" d="M-350.5,615.9c3.1,0,5.5-2.4,5.5-5.5c0-3-2.5-5.5-5.5-5.5c-3,0-5.5,2.4-5.5,5.5
	C-356,613.5-353.5,615.9-350.5,615.9z"/>
<path class="st0" d="M-320.4,589.5c29.2-15,47.7-43.3,42.6-46.1c-8.3-4.6-45.4,5.8-57.3,45.4c-1.4,0.4-8.1,2.1-8.1,2.1l-2.9,7.8
	l10.4-3.2c0,0-1.1,19.7,16.4,20.3c13.7-0.5,20.9-20.5,16.5-34.1c-0.9,0.4-11.8,5.7-11.8,5.7s2.5,14.9-3.5,16.7
	C-320.2,604.5-322.6,598.5-320.4,589.5z"/>
<path class="st1" d="M-317.6,581.7c6.9-1.4,33.8-29.7,28.2-29.2C-300.6,555.2-319.8,580.4-317.6,581.7z"/>
<path class="st0" d="M-295.9,585.3v-5.7c0,0,15.4-10.2,19.2-11.4c3.6-0.8,6.6,1,5.7,5c-0.2,1-1.7,4.9-3.6,9.6
	c-3.6,8.9-8.2,20.6-6.5,20.7c7.9-1,19.6-24.7,21.6-33.8h13.6c0,0-12.3,35.7-11.4,36.2c0.9,0.5,4.8-3.2,4.8-3.2s1.2,3.8,1.5,4.6
	c-2.1,2.5-7.7,6.3-12.1,7.9c-4.3,1.6-8.4,0-9.2-3.8c-0.8-3.8,1-8.6,1-8.6s-7.8,7.6-15.1,11.5c-2,1.1-4.3,1.5-5.5,1.5
	c-5,0-5.8-5.7-5.6-7.3c0.1-1.6,2.4-7.5,4.7-13.4c2.4-6.3,4.9-12.6,4.8-13.9C-288.3,580.4-295.9,585.3-295.9,585.3z"/>
<path class="st0" d="M-200.4,569.7h-12.9c0,0-1.3,3.1-1.6,3.7c-1.5-2.5-6.7-7.5-17.3-0.9c-11.2,7.1-15.9,19.3-14.4,32.2
	c1.6,10.7,10.8,15.8,21.2,2.9c-1.6,2-8.9,26.9-8.9,26.9h13L-200.4,569.7z M-225.4,580.1c3-3.4,6.9-3.5,6.8,1.9
	c-0.4,6.2-4.6,17.1-8.9,20l-0.1,0c-1.8,1-4.6,2.6-5-3.7C-232.8,590.9-226.5,581.4-225.4,580.1z"/>
<path class="st0" d="M-383.9,575.7c-6.9,14.7-19,40.2-29.2,40.2c-1.8,0-4.5-0.7-6.5-2.7c-4.9-5-3.3-13.6-1.7-22.2
	c0.5-3,1.1-6,1.4-8.9c-0.3,0.3-1,1.6-2,3.7c-4.6,8.8-15.7,30.1-26.2,30.1c-0.2,0-0.5,0-0.7,0c-11.6-1.1-10.1-17-6.5-26.6h18.8
	c-5.8,15.7,2.2,9.3,7.6-0.7c10.7-21.4,10.9-22.1,22.3-53.4c0.2-0.5,0.4-1.1,0.6-1.6h20.6c-6.1,18.6-11.3,35.4-13.8,54.6
	c0,0.7,0.4,1.4,1.1,1.1c3.2-0.5,16.8-29.2,24.4-45.3c2.6-5.5,4.5-9.6,5.1-10.5h20.6c0,0-21.9,60-18.3,65.7c1.3,2.3,3-0.2,4.7-2.8
	c0.6-0.9,1.2-1.9,1.8-2.6l3.3,3.2c-1.3,1.4-2.7,3.1-4.1,4.9c-5.6,7.1-12.2,15.3-20.8,13.6c-1.5-0.3-2.9-1.1-4-2.1
	c-7.7-6.6-0.5-25.5,4-37.4c2-5.4,3.5-9.3,2.9-10c-0.5,0.1-1.1,1.2-1.9,3c-0.2,0.4-0.4,0.8-0.6,1.3
	C-382.1,571.9-382.9,573.7-383.9,575.7z"/>
<path class="st0" d="M-170.1,598.5c0,0-13.1,12.4-17.7,5.8c24.7-12.9,30.7-29.2,23.1-33.8c-11.3-6.2-42.1,4.9-38.6,35.4
	c-1.5,0.9-4.8,2.6-4.8,2.6l2.3,6.1c0,0,4.3-2.5,5.5-3.3l0.2,0.2c3.5,2.8,5.4,4.3,10.9,4.4c11.9,0.2,22.2-12.8,22.2-12.8
	L-170.1,598.5z M-172.4,576.5c2.8,1.9-2.9,11.7-16.2,22.2c-0.5-0.9,0.5-6.8,4.1-13.1C-181,579.4-175.2,574.5-172.4,576.5z"/>
<path class="st0" d="M-149.8,615.9c-7.1-0.2-10.4-5.9-11.2-7.8c-7.9-19.5,14-37,15-37.8c0,0,0,0,0,0l13.8,0c0,0-20.4,15.9-17.4,30.6
	c2.3,9,10.8,4.6,15.4-5.5c0.9-2,6.5-15.5,3-15.5c-3.5,0-7.2,6.9-7.2,6.9l-3.9-3.8c0,0,7.8-11.1,16.8-14c1.1-0.3,7.5-1.6,7.6,7.5
	c0.3,4.3-3.8,26.8-20.6,35.9C-143.5,615-146.8,616-149.8,615.9z"/>
<path class="st0" d="M-120.8,652.1h-3v-3.4h3V652.1z"/>
<path class="st0" d="M-142.8,652.1h-2.2v-11.9h3.1l5.1,9.4l5.1-9.4h3v11.9h-2.3v-9.3l-5.2,9.4h-1.6l-5.1-9.3V652.1z"/>
<path class="st0" d="M-162.5,646.1c0-3.5,2.9-6.2,6.8-6.2c3.8,0,6.8,2.7,6.8,6.2c0,3.5-2.9,6.2-6.8,6.2
	C-159.6,652.3-162.5,649.7-162.5,646.1z M-160.1,646.1c0,2.3,1.7,4.2,4.3,4.2c2.6,0,4.3-1.9,4.3-4.2c0-2.4-1.7-4.2-4.3-4.2
	C-158.3,641.9-160.1,643.8-160.1,646.1z"/>
<path class="st0" d="M-177.8,652.1v3.6h-2.1v-5.6h1.5c0.8-1,1.2-2.5,1.6-5.5l0.5-4.4h9.5v9.9h2.3v5.6h-2.1v-3.6H-177.8z
	 M-176.1,650.1h7v-7.9h-5.3l-0.3,2.6C-175.1,647.6-175.4,649.1-176.1,650.1z"/>
<path class="st0" d="M-182.8,640.2v11.9h-2.4v-4.3h-3.8l-3.1,4.3h-2.7l3.4-4.6c-2.1-0.5-3-1.8-3-3.6c0-1.9,1.4-3.7,4.6-3.7H-182.8z
	 M-191.9,643.9c0,1.2,0.8,1.9,2.4,1.9v0h4.4v-3.6h-4.4C-191.1,642.1-191.9,642.7-191.9,643.9z"/>
<path class="st0" d="M-211,652.1h-2.5V635h9.6c4.1,0,6.2,1.8,6.2,4.9c0,3-2.1,5-6.2,5h-7.1V652.1z M-200.3,640
	c0-1.8-1.2-2.8-3.5-2.8v0h-7.2v5.6h7.2C-201.5,642.8-200.3,641.6-200.3,640z"/>
<path class="st0" d="M-225.6,652.1h-3v-3.4h3V652.1z"/>
<path class="st0" d="M-245.9,646.1c0-3.5,2.9-6.2,6.8-6.2c3.8,0,6.8,2.7,6.8,6.2c0,3.5-2.9,6.2-6.8,6.2
	C-243,652.3-245.9,649.7-245.9,646.1z M-243.5,646.1c0,2.3,1.7,4.2,4.3,4.2c2.6,0,4.3-1.9,4.3-4.2c0-2.4-1.7-4.2-4.3-4.2
	C-241.7,641.9-243.5,643.8-243.5,646.1z"/>
<path class="st0" d="M-255.2,652.3c-2.9,0-4.4-1.7-4.7-2.2v7.3h-2.3v-17.3h2.3v2c0.3-0.6,1.8-2.3,4.7-2.3c3.4,0,6.3,2.3,6.3,6.2
	C-248.9,650.1-251.8,652.3-255.2,652.3z M-255.6,641.9c-2.6,0-4.3,1.8-4.3,4.2c0,2.4,1.7,4.2,4.3,4.2c2.6,0,4.3-1.9,4.3-4.2
	C-251.3,643.7-253,641.9-255.6,641.9z"/>
<path class="st0" d="M-270.7,652.1h-2.4v-9.9h-5.2v-2h12.8v2h-5.2V652.1z"/>
<path class="st0" d="M-280.1,643.9h-2.4c-0.2-0.4-1.2-2-3.7-2c-2.4,0-4.1,1.9-4.1,4.2c0,2.3,1.7,4.2,4.1,4.2c2.6,0,3.6-1.6,3.8-2
	h2.3c-0.2,0.8-1.5,4-6.1,4c-3.7,0-6.5-2.7-6.5-6.2c0-3.5,2.8-6.2,6.5-6.2C-281.6,639.9-280.3,643-280.1,643.9z"/>
<path class="st0" d="M-296.7,652.1h-2.4v-11.9h2.4V652.1z"/>
<path class="st0" d="M-310.3,644h3.9c3.6,0,5.1,1.7,5.1,4c0,2.1-1.6,4.1-5.1,4.1h-6.3v-11.9h2.4V644z M-303.7,648c0-1.3-1-2-2.9-2
	h-3.6v4.1h3.6C-304.7,650.1-303.7,649.4-303.7,648z"/>
<path class="st0" d="M-330,641.9h6.6c4.3,0,6.5,2.1,6.5,5.1c0,3.2-2.2,5-6.5,5h-9.1V635h14.2v2.2H-330V641.9z M-319.5,647
	c0-1.7-1.3-2.9-3.9-2.9h-6.7v5.8h6.7C-320.8,649.9-319.5,648.9-319.5,647z"/>
<path class="st0" d="M-344.6,652.1h-3v-3.4h3V652.1z"/>
<path class="st0" d="M-362,652.1h-2.4v-11.9h2.4v4.9h7.2v-4.9h2.4v11.9h-2.4V647h-7.2V652.1z"/>
<path class="st0" d="M-379.1,652.1h-2.4v-11.9h2.4v8.9l7.5-8.9h2.4v11.9h-2.4v-9L-379.1,652.1z"/>
<path class="st0" d="M-376.9,634.8c0,0.9,0.5,1.7,1.6,1.7c1.1,0,1.6-0.8,1.6-1.7v-0.4h2v0.5c0,1.9-1.2,3.4-3.6,3.4
	c-2.4,0-3.6-1.5-3.6-3.4v-0.5h2V634.8z"/>
<path class="st0" d="M-388.7,652.1v-2c-0.3,0.6-1.6,2.3-4.6,2.3c-3.4,0-6.3-2.3-6.3-6.2c0-3.9,2.9-6.2,6.3-6.2
	c2.8,0,4.2,1.6,4.6,2.3v-2h2.4v11.9H-388.7z M-392.8,650.3c2.5,0,4.2-1.9,4.2-4.2c0-2.4-1.7-4.2-4.2-4.2c-2.6,0-4.3,1.8-4.3,4.2
	C-397.1,648.5-395.4,650.3-392.8,650.3z"/>
<path class="st0" d="M-416.2,650.2c1.8,0,2.1-0.8,2.4-3.5l0.7-6.6h9.6v11.9h-2.4v-9.9h-5.3l-0.5,4.8c-0.4,3.7-1.4,5.3-4.1,5.3h-0.7
	v-2H-416.2z"/>
<path class="st0" d="M-429.3,652.1h-2.4v-11.9h2.4v4.9h7.2v-4.9h2.4v11.9h-2.4V647h-7.2V652.1z"/>
<path class="st0" d="M-436,643.5c0,5-4.1,8.8-9.6,8.8c-5.5,0-9.6-3.8-9.6-8.8c0-5,4.1-8.8,9.6-8.8C-440.1,634.7-436,638.5-436,643.5
	z M-452.5,643.5c0,3.7,2.8,6.7,7,6.7c4.2,0,7-3,7-6.7c0-3.6-2.8-6.7-7-6.7C-449.7,636.8-452.5,639.9-452.5,643.5z"/>
</svg>
