<?xml version="1.0" encoding="utf-8"?>
<!-- Generator: Adobe Illustrator 19.1.0, SVG Export Plug-In . SVG Version: 6.00 Build 0)  -->
<svg version="1.1" id="_x31_" xmlns="http://www.w3.org/2000/svg" xmlns:xlink="http://www.w3.org/1999/xlink" x="0px" y="0px"
	 viewBox="0 0 340 137.2" style="enable-background:new 0 0 340 137.2;" xml:space="preserve">
<style type="text/css">
	.st0{fill-rule:evenodd;clip-rule:evenodd;fill:#0060AF;}
</style>
<path class="st0" d="M299.6,0c13.5,0.1,26.9,0,40.4,0.1c-11.2,33.6-22.1,67.2-33.2,100.8c-13.4-0.1-26.9,0-40.3,0
	C277.6,67.3,288.6,33.6,299.6,0L299.6,0z M31.1,0.1L21,30.3l199.6,0c8-0.1,15.8,5.7,17.7,13.5c1.2,5.1,1.1,10.6-0.7,15.5
	c-1.9,5.2-6.5,9.3-11.9,10.7c-5.7,1.3-11.6,0.4-17.3,0.5l11.6-34.3l-37.5,0l-21.6,64.7l58.2,0c11.9,0,24-1.6,34.2-7.9
	c9.6-6.2,17.2-15.6,20.5-26.7c2.7-9.4,2.9-19.4,0.7-28.9c-2.9-12.6-13.8-27.5-26-32.7C237.1-0.2,223.1,0.1,211,0L31.1,0.1L31.1,0.1z
	 M48.6,35.8c11.9-0.9,24.2,0.2,35,5.3c11,5.2,19.9,14.7,24.3,26.1c3.8,10.4,4.2,21.9,1.7,32.6c-3,12.5-11.5,23.5-22.7,29.9
	c-10,5.8-21.9,7.6-33.3,7.4c-10.4-0.3-21.1-2.4-30.1-7.9C13.3,123.1,5.2,113.1,2,101.4c-2.7-9.9-2.7-20.5,0.1-30.4
	c3.2-11.4,11-21.3,21.1-27.5C30.8,38.9,39.7,36.5,48.6,35.8L48.6,35.8z M51.6,66.6c5.4-1,11.4,0.1,15.7,3.6
	c3.8,2.9,6.2,7.4,6.8,12.1c0.7,5.6,0.1,11.6-3.1,16.4c-4.3,6.7-13.3,9.1-20.8,7.1c-6.5-1.7-11.8-7.3-13-14c-1-5.5-0.8-11.4,1.9-16.4
	C41.7,70.7,46.5,67.5,51.6,66.6L51.6,66.6z M134.5,35.9c-11,33.6-22.1,67.2-33.1,100.8c64.3,0,128.7,0,193,0
	c3.2-9.7,6.3-19.5,9.6-29.2c-50.9,0-101.8,0-152.7,0c7.8-23.9,15.7-47.7,23.5-71.6C161.4,36,147.9,35.9,134.5,35.9z"/>
</svg>
