<?xml version="1.0" encoding="utf-8"?>
<!-- Generator: Adobe Illustrator 19.1.0, SVG Export Plug-In . SVG Version: 6.00 Build 0)  -->
<svg version="1.1" id="Слой_1" xmlns="http://www.w3.org/2000/svg" xmlns:xlink="http://www.w3.org/1999/xlink" x="0px" y="0px"
	 viewBox="0 0 514 231" style="enable-background:new 0 0 514 231;" xml:space="preserve">
<style type="text/css">
	.st0{fill-rule:evenodd;clip-rule:evenodd;fill:#5FAE2C;}
	.st1{fill-rule:evenodd;clip-rule:evenodd;fill:#005A27;}
	.st2{fill-rule:evenodd;clip-rule:evenodd;fill:#A9E641;}
	.st3{fill-rule:evenodd;clip-rule:evenodd;fill:#1E8537;}
	.st4{fill-rule:evenodd;clip-rule:evenodd;fill:#6CA14A;}
	.st5{fill-rule:evenodd;clip-rule:evenodd;fill:#6DA04B;}
	.st6{fill-rule:evenodd;clip-rule:evenodd;fill:#6CA149;}
	.st7{fill-rule:evenodd;clip-rule:evenodd;fill:#6E9F4F;}
	.st8{fill-rule:evenodd;clip-rule:evenodd;fill:#FFFFFF;}
	.st9{fill-rule:evenodd;clip-rule:evenodd;fill:#6BBF23;}
	.st10{fill-rule:evenodd;clip-rule:evenodd;fill:#B2D539;}
	.st11{fill-rule:evenodd;clip-rule:evenodd;fill:#149226;}
</style>
<g>
	<g>
		<path class="st0" d="M51.6,16.6c4-1.1,8.3-0.7,12.1,0.9c5.1,2.1,9.2,6.7,10.7,12.1c1.9,6.5-0.1,13.9-5,18.5
			c-4.4,4.3-8.7,8.8-13.1,13c-3.4-3.4-6.8-6.8-10.2-10.3c-2.1-2.1-4.3-4.1-5.8-6.7c-2.7-4.6-3.3-10.4-1.6-15.5
			C40.6,22.8,45.6,18.1,51.6,16.6z"/>
		<path class="st0" d="M131.3,87.6c3.1-3.9,8.9-5.2,13.5-3.3c2.4,0.9,4.4,2.7,5.7,4.9c-1.6,1.1-3.3,2-5,3c-1.5-2.7-5.1-3.8-7.9-2.3
			c-4,1.8-4.4,8.3-0.6,10.5c2.8,1.9,6.8,0.9,8.5-1.9c1.7,0.9,3.3,1.8,5,2.8c-3.2,6.2-12.1,7.7-17.4,3.5
			C127.9,100.9,127.1,92.5,131.3,87.6z"/>
		<g>
			<path class="st0" d="M204,86.8c3.8-3.8,10.2-4.4,14.7-1.5c4.1,2.6,5.8,7.9,4.9,12.5c-5.6,0.1-11.3-0.2-16.9,0.1
				c0.6,1.2,1.3,2.4,2.6,3.1c2.8,1.5,6.7,1.1,8.9-1.3c1.5,0.9,3.1,1.8,4.6,2.7c-4.1,5.9-13.4,6.3-18.6,1.6
				C199.6,99.5,199.5,91.3,204,86.8L204,86.8z M209,89.7L209,89.7c-1.2,0.7-1.8,2.1-2.4,3.4c3.8,0.1,7.6,0.1,11.4,0
				c-0.4-1-0.8-2-1.6-2.7C214.6,88.3,211.3,88.2,209,89.7z"/>
		</g>
		<g>
			<path class="st0" d="M232.7,86.5c2.3-2.6,6-3.6,9.3-2.9c2.7,0.6,5.1,2.2,6.7,4.5c3,4.3,2.9,10.5-0.3,14.7
				c-3.5,4.9-11.6,5.9-15.7,1.2c0,3.8,0,7.6,0,11.3c-1.9,0-3.8,0-5.8,0c0-10.4,0-20.8,0-31.2c1.9,0,3.8,0,5.8,0
				C232.7,84.9,232.7,85.7,232.7,86.5L232.7,86.5z M236.8,89.3L236.8,89.3c-4.1,1.2-5.4,6.9-2.7,10.1c2.2,2.8,7,2.9,9.3,0.2
				c2.3-2.5,2.1-6.8-0.5-9.1C241.3,89,238.9,88.7,236.8,89.3z"/>
		</g>
		<g>
			<path class="st0" d="M288.6,83.8c3.5-1,7.4,0,9.8,2.7c0-0.8,0-1.6,0-2.4c2,0,4,0,5.9,0c0,7.4,0.1,14.9-0.1,22.3
				c-2,0-3.9,0-5.9-0.1c0-0.8,0-1.6,0-2.4c-4,4.7-12,3.8-15.5-1.1c-2.7-3.5-3.3-8.5-1.6-12.5C282.6,87.2,285.3,84.6,288.6,83.8
				L288.6,83.8z M290.4,89.3L290.4,89.3c-4,1.1-5.5,6.5-3.1,9.7c1.9,2.9,6.5,3.3,9.1,1.1c2.4-2.1,2.8-6.1,0.9-8.6
				C295.8,89.3,292.9,88.6,290.4,89.3z"/>
		</g>
		<g>
			<path class="st0" d="M314.4,86.4c2.4-2.7,6.3-3.6,9.7-2.7c3.4,0.8,6.2,3.5,7.4,6.7c1.4,3.5,1.2,7.6-0.6,10.9
				c-1.4,2.5-3.8,4.6-6.6,5.3c-3.5,1-7.4,0.1-9.9-2.6c0,3.7,0.1,7.5-0.1,11.2c-1.9,0-3.9,0-5.8,0c-0.2-10.4,0-20.8-0.1-31.2
				c2,0,4,0,5.9,0C314.4,84.9,314.4,85.7,314.4,86.4L314.4,86.4z M318.7,89.2L318.7,89.2c-3.9,1-5.4,6-3.5,9.3
				c1.7,3.2,6.4,3.9,9.2,1.7c3.1-2.4,3.1-7.7-0.1-10C322.7,89,320.6,88.8,318.7,89.2z"/>
		</g>
		<g>
			<path class="st0" d="M360.9,86.5c3.5-3.3,9.2-4,13.5-1.8c2.9,1.5,5,4.4,5.7,7.6c0.3,1.6,0.2,3.2,0.3,4.8c-4.7,0.3-9.3,0.1-14,0.1
				c-1.1,0-2.1,0.2-3.2,0.4c0.6,1.3,1.4,2.7,2.7,3.4c2.8,1.4,6.5,1,8.7-1.4c1.6,0.9,3.1,1.8,4.6,2.7c-3.8,5.6-12.3,6.2-17.5,2.4
				C356,100.6,355.7,91.1,360.9,86.5L360.9,86.5z M363.3,93.1L363.3,93.1c3.8,0,7.6,0.1,11.4-0.1c-0.5-1.4-1.3-2.8-2.6-3.6
				C368.8,87.5,364,89.3,363.3,93.1z"/>
		</g>
		<path class="st0" d="M151.2,84.1c2,0,4.1,0,6.1,0c2,4.9,3.9,9.8,5.9,14.6c1.8-4.8,3.3-9.8,4.9-14.6c2.1,0,4.2,0,6.3,0
			c-2.8,7.6-5.5,15.3-8.4,22.9c-1.2,3.2-3.4,6.4-6.8,7.7c-1.5,0.6-3.2,0.7-4.8,0.7c0-1.8,0-3.5,0-5.3c1.4-0.2,3-0.3,4.1-1.4
			c0.9-0.9,1.9-2.2,1.2-3.5C156.9,98.1,154,91.2,151.2,84.1z"/>
		<path class="st0" d="M177.2,84.1c6.7,0,13.5,0.1,20.2,0l0,0c-0.2,0.8-0.3,1.6-0.4,2.3c-0.2,6.6,0.2,13.2-0.2,19.7
			c-1.5,0-3.1-0.1-4.6-0.2c-0.1-5.4,0.1-10.8-0.1-16.3c-0.1,0-0.4-0.1-0.5-0.1c-2.9-0.2-5.7,0-8.6-0.1c-0.1,5.6,0.1,11.2,0,16.9
			c-2,0.1-3.9,0.1-5.9,0C177.2,99,177,91.5,177.2,84.1z"/>
		<path class="st0" d="M253.9,84.2c1.9,0,3.9,0,5.8,0c1.9,3.1,3.9,6.2,5.9,9.2c1.9-3.1,3.9-6.1,5.8-9.2c1.9,0,3.8,0,5.7,0
			c0,7.4,0,14.8,0,22.2c-1.9,0.1-3.8,0.1-5.7,0c0-4.2,0-8.5,0-12.7c-1.9,3-3.7,6.1-5.8,9c-2.4-2.7-3.9-6.1-6.1-8.9
			c-0.1,4.2,0,8.4-0.1,12.7c-1.9,0.1-3.8,0.1-5.6,0C253.9,99,253.9,91.6,253.9,84.2z"/>
		<g>
			<path class="st0" d="M335.5,84.1c2,0,4,0,6,0c0,3,0,6,0,9c0.6,0,1.3,0,1.9,0c2.1-3,4.2-6,6.4-9c2.3,0,4.6,0,7,0
				c-2.8,3.7-5.5,7.3-8.2,11c2.5,3.2,4.9,6.5,7.4,9.7c0.3,0.5,0.8,1,0.9,1.6c-1.6,0.1-3.3,0-4.9,0.1c-0.7,0-1.6,0.2-1.9-0.6
				c-2-2.7-4-5.4-6-8.1c-0.8,0-1.6,0-2.4,0c0,2.9,0,5.9,0,8.8l0-0.2c-0.3-2.9,0-5.9-0.3-8.9c-0.5,2.8-0.1,5.6-0.4,8.4
				c-1.5,0.4-3.1,0.4-4.6,0c-0.2-1.3-0.1-2.7-0.1-4c0.1-5.7-0.1-11.5,0.1-17.2C336,84.5,335.7,84.3,335.5,84.1L335.5,84.1z
				 M340.4,84.4L340.4,84.4c1,2.9,0,6,0.7,8.9c0.3-3,0.1-6,0.2-9C341.1,84.3,340.6,84.3,340.4,84.4z"/>
		</g>
		<path class="st0" d="M382.2,84.1c6.6,0,13.2,0,19.7,0c0,1.8,0,3.7,0,5.5c-2.3,0-4.6,0-6.9,0c0,5.6,0,11.1,0,16.7c-2,0.1-4,0.1-6,0
			c0-5.6,0-11.2,0-16.7c-2.3,0-4.6,0-6.9,0C382,87.8,382,86,382.2,84.1z"/>
	</g>
	<g>
		<path class="st1" d="M129.5,19.7c10.5,0,20.9,0,31.4,0c0.1,13.7,0.1,27.5,0,41.2c-2.8,0-5.6,0-8.4,0c0-11.2,0-22.3,0-33.5
			c-4.9,0-9.8,0-14.7,0c0,11.2,0,22.3,0,33.5c-2.8,0-5.5,0-8.3,0C129.5,47.2,129.5,33.4,129.5,19.7z"/>
		<path class="st1" d="M352.3,20.1c2.7-1.6,6.3,0.9,5.9,4c-0.1,3.1-4.1,4.8-6.5,2.9C349.3,25.4,349.7,21.4,352.3,20.1z"/>
		<path class="st1" d="M363.9,20c2.1-0.9,4.8,0.1,5.4,2.4c0.8,1.9-0.3,4.4-2.3,5.1c-2.2,1-5.2-0.5-5.5-3
			C361.2,22.7,362.3,20.8,363.9,20z"/>
		<path class="st1" d="M385.5,33c4.6-3.3,11-3.8,16.1-1.4c2.8,1.3,5.2,3.6,6.7,6.3c-2.2,1.3-4.4,2.6-6.7,3.9
			c-2.2-4.4-8.7-5.3-12.2-2c-2.9,2.5-3.4,7-1.7,10.3c1.5,2.9,4.9,4.4,8.1,4c2.5-0.1,4.7-1.8,5.9-3.9c2.2,1.3,4.5,2.6,6.7,3.9
			c-2.1,3.6-5.6,6.3-9.7,7.3c-4.2,1-8.8,0.4-12.5-1.9c-3.5-2.1-6-5.7-6.9-9.7C378,43.6,380.3,36.6,385.5,33z"/>
		<g>
			<path class="st1" d="M454.3,30.3c6.5-1.1,13.6,2.2,16.6,8.2c2,3.9,2.4,8.7,0.9,12.8c-1.4,4-4.5,7.4-8.4,9.1
				c-6.9,3.2-15.9,0.8-20-5.7c-3.2-4.9-3.4-11.6-0.5-16.7C445.3,33.9,449.6,31,454.3,30.3L454.3,30.3z M454.2,38.1L454.2,38.1
				c-5,1.4-7,8-4.4,12.2c2.2,4,8.1,5.1,11.7,2.4c4.1-2.8,4.5-9.2,1.1-12.7C460.5,37.9,457.1,37.1,454.2,38.1z"/>
		</g>
		<g>
			<path class="st1" d="M175.2,31.3c4.1-1.6,8.9-1.7,13,0.1c2.6,1.2,4.9,3.2,6.3,5.7c2.3,3.5,2.8,7.9,2.2,12c-7.6,0-15.2,0-22.7,0
				c0.7,1.9,1.8,3.7,3.6,4.5c3.7,1.9,8.8,1.4,11.6-1.9c2.1,1.2,4.2,2.4,6.2,3.6c-2.1,2.9-5.2,5.2-8.8,5.9
				c-5.4,1.2-11.6,0.3-15.8-3.5c-4.4-3.9-5.9-10.5-4.5-16.1C167.5,37.1,170.8,33.1,175.2,31.3L175.2,31.3z M177.4,38.1L177.4,38.1
				c-1.9,1-2.9,2.9-3.6,4.9c5.1,0.1,10.2,0,15.4,0c-0.5-1.6-1.2-3.2-2.6-4.3C184.1,36.7,180.3,36.6,177.4,38.1z"/>
		</g>
		<g>
			<path class="st1" d="M210,34.4c4.6-5.8,14.2-5.5,19.3-0.5c6.4,5.8,6.8,16.7,1.1,23.1c-3,3.4-7.6,5.3-12.1,4.8
				c-3.2-0.2-6.2-1.7-8.3-4.2c0,5.1,0,10.3,0,15.4c-2.6,0-5.1,0-7.7,0c0-14,0-28,0-42c2.6,0,5.2,0,7.7,0
				C210.1,32.1,210.1,33.2,210,34.4L210,34.4z M216.4,37.7L216.4,37.7c-1.6,0.4-3.1,1.2-4.2,2.4c-2.9,3.3-2.9,8.8,0.2,11.9
				c2.9,3,8.2,3.2,11.4,0.5c3.5-2.9,3.8-8.8,0.8-12.2C222.7,37.9,219.4,37.1,216.4,37.7z"/>
		</g>
		<g>
			<path class="st1" d="M241.8,35.6c4.1-5.1,11.6-6.7,17.7-4.6c4.5,1.6,7.9,5.6,9.2,10.1c0.8,2.6,0.7,5.3,0.4,8
				c-7.6,0-15.1,0-22.7,0c0.6,1.6,1.4,3.3,3,4.2c3.8,2.3,9.3,1.9,12.3-1.5c2.1,1.2,4.1,2.4,6.2,3.6c-2.1,3.1-5.4,5.3-9.1,6
				c-5.3,1.1-11.2,0.2-15.4-3.5C237.2,52.5,236.6,42,241.8,35.6L241.8,35.6z M249.8,38.2L249.8,38.2c-1.9,1-2.9,3-3.5,4.9
				c5.1,0,10.2,0,15.3,0c-0.4-1.5-1-2.9-2.2-4C256.9,36.7,252.8,36.5,249.8,38.2z"/>
		</g>
		<g>
			<path class="st1" d="M316.2,34.4c4.8-5.8,14.4-5.5,19.5-0.3c6.2,5.8,6.6,16.6,0.8,22.9c-3,3.4-7.6,5.2-12.1,4.7
				c-3.2-0.2-6.1-1.8-8.2-4.2c0,5.1,0,10.2,0,15.4c-2.6,0-5.1,0-7.7,0c0-14,0-28,0-42c2.6,0,5.1,0,7.7,0
				C316.2,32.1,316.2,33.2,316.2,34.4L316.2,34.4z M322.4,37.7L322.4,37.7c-1.8,0.4-3.4,1.4-4.5,2.8c-2.6,3.4-2.3,8.9,1,11.8
				c3,2.7,7.9,2.7,11,0.2c3.6-3.1,3.9-9.2,0.6-12.6C328.5,37.8,325.3,37,322.4,37.7z"/>
		</g>
		<g>
			<path class="st1" d="M347.9,35.6c5-6.2,15.2-7.4,21.5-2.5c4.8,3.6,6.9,10.2,5.7,16c-7.6,0-15.1,0-22.7,0c0.6,1.7,1.6,3.4,3.2,4.3
				c3.8,2.2,9.1,1.7,12.1-1.7c2.1,1.2,4.2,2.4,6.2,3.6c-2.1,3-5.3,5.2-8.9,6c-5.3,1.2-11.4,0.2-15.6-3.4
				C343.3,52.5,342.7,42,347.9,35.6L347.9,35.6z M355.1,38.7L355.1,38.7c-1.4,1-2.2,2.7-2.7,4.4c5.1,0,10.2,0,15.3,0
				c-0.4-1.5-1-2.9-2.2-4C362.7,36.5,358.1,36.5,355.1,38.7z"/>
		</g>
		<path class="st1" d="M274.7,30.9c2.6,0,5.2,0,7.8,0c0,4.1,0,8.2,0,12.2c0.9,0,1.7,0,2.6,0c2.9-4.1,5.8-8.1,8.7-12.2
			c3.1,0,6.2,0,9.3,0c-3.7,5-7.5,9.9-11.2,14.8c3.8,5.1,7.6,10.2,11.5,15.2c-3,0-6.1,0-9.1,0c-2.9-3.9-5.8-7.9-8.6-11.8
			c-1.1,0-2.1,0-3.2,0c0,3.9,0,7.9,0,11.8c-2.6,0-5.2,0-7.8,0C274.7,50.9,274.7,40.9,274.7,30.9z"/>
		<path class="st1" d="M411.9,30.9c8.8,0,17.7,0,26.5,0c0,2.5,0,5,0,7.5c-3.1,0-6.2,0-9.3,0c0,7.5,0,15,0,22.6c-2.6,0-5.2,0-7.9,0
			c-0.1-7.5,0-15,0-22.6c-3.1,0-6.2,0-9.3,0C411.9,35.9,411.9,33.4,411.9,30.9z"/>
		<path class="st1" d="M477.3,30.9c2.6,0,5.1,0,7.7,0c0,4.1,0,8.2,0,12.2c0.9,0,1.7,0,2.6,0c2.9-4.1,5.8-8.1,8.7-12.2
			c3.1,0,6.2,0,9.3,0c-3.8,4.9-7.4,9.9-11.2,14.8c3.8,5.1,7.6,10.1,11.5,15.2c-3,0-6,0-9,0c-2.9-3.9-5.8-7.9-8.7-11.8
			c-1.1,0-2.2,0-3.2,0c0,3.9,0,7.9,0,11.8c-2.6,0-5.1,0-7.7,0C477.3,50.9,477.3,40.9,477.3,30.9z"/>
		<path class="st1" d="M56.2,71.9c0.5,0,0.8,0.5,1.2,0.8c3.5,3.5,6.9,6.9,10.4,10.4c1.8,1.7,3.5,3.5,4.7,5.7
			c2.6,4.4,3.2,9.8,1.8,14.7c-1.5,5.2-5.3,9.6-10.2,11.8c-3.5,1.5-7.4,2.1-11.2,1.3c-6.2-1.1-11.7-5.7-13.9-11.5
			c-2.7-6.6-1.1-14.7,3.9-19.8C47.3,80.8,51.7,76.3,56.2,71.9z"/>
	</g>
	<g>
		<path class="st2" d="M16.6,49.5C20,48,23.8,47.3,27.5,48c4.1,0.5,7.9,2.7,10.8,5.6c4.2,4.3,8.6,8.5,12.8,12.8
			c-4.3,4.4-8.7,8.7-13.1,13.1c-3.6,3.7-8.7,5.8-13.9,5.5C14.5,85.3,5.8,76.5,6,67C5.5,59.7,10.1,52.5,16.6,49.5z"/>
	</g>
	<g>
		<path class="st3" d="M74.9,53.2c4.3-4.3,10.9-6.4,16.9-5.1c8.5,1.5,15.3,9.7,15,18.4c0.2,6.8-3.9,13.4-10,16.5
			c-6.1,3.2-14,2.7-19.6-1.4c-2.1-1.5-3.8-3.4-5.6-5.2c-3.3-3.3-6.7-6.6-10-10C66,62,70.4,57.6,74.9,53.2z"/>
	</g>
	<g>
		<path class="st4" d="M197,86.5c0.1-0.8,0.2-1.6,0.4-2.3c0.2,0.9,0.3,1.9,0.3,2.8c0,6.5,0,13,0,19.5c-2,0-4,0-6,0
			c0-5.6,0-11.2,0-16.8c0.1,0,0.4,0.1,0.5,0.1c0.2,5.4,0,10.8,0.1,16.3c1.5,0.1,3.1,0.2,4.6,0.2C197.2,99.6,196.9,93,197,86.5z"/>
	</g>
	<g>
		<path class="st5" d="M335.5,84.1c0.2,0.1,0.5,0.4,0.7,0.5c-0.2,5.7,0,11.5-0.1,17.2c0,1.3-0.1,2.7,0.1,4c1.5,0.4,3.1,0.4,4.6,0
			c0.3-2.8-0.1-5.6,0.4-8.4c0.3,2.9,0,5.9,0.3,8.9c-2,0.1-4,0.1-5.9,0C335.5,99,335.5,91.6,335.5,84.1z"/>
	</g>
	<g>
		<path class="st6" d="M340.4,84.4c0.2,0,0.7,0,0.9-0.1c-0.1,3,0.1,6-0.2,9C340.4,90.3,341.4,87.3,340.4,84.4z"/>
	</g>
	<g>
		<path class="st7" d="M366.3,97.2c4.7,0,9.3,0.2,14-0.1c-0.3,1.1-1.6,0.6-2.4,0.7c-4.9-0.1-9.9,0.2-14.8-0.2
			C364.2,97.4,365.3,97.1,366.3,97.2z"/>
	</g>
</g>
<g>
	<path class="st8" d="M129.7,148.4c10.5,0,20.9,0,31.4,0c0.1,13.7,0.1,27.5,0,41.2c-2.8,0-5.6,0-8.4,0c0-11.2,0-22.3,0-33.5
		c-4.9,0-9.8,0-14.7,0c0,11.2,0,22.3,0,33.5c-2.8,0-5.5,0-8.3,0C129.7,175.9,129.7,162.1,129.7,148.4z"/>
	<path class="st8" d="M352.5,148.8c2.7-1.6,6.3,0.9,5.9,4c-0.1,3.1-4.1,4.8-6.5,2.9C349.5,154.1,349.9,150,352.5,148.8z"/>
	<path class="st8" d="M364.1,148.7c2.1-0.9,4.8,0.1,5.4,2.4c0.8,1.9-0.3,4.4-2.3,5.1c-2.2,1-5.2-0.5-5.5-3
		C361.4,151.4,362.5,149.4,364.1,148.7z"/>
	<path class="st8" d="M385.7,161.6c4.6-3.3,11-3.8,16.1-1.4c2.8,1.3,5.2,3.6,6.7,6.3c-2.2,1.3-4.4,2.6-6.7,3.9
		c-2.2-4.4-8.7-5.3-12.2-2c-2.9,2.5-3.4,7-1.7,10.3c1.5,2.9,4.9,4.4,8.1,4c2.5-0.1,4.7-1.8,5.9-3.9c2.2,1.3,4.5,2.6,6.7,3.9
		c-2.1,3.6-5.6,6.3-9.7,7.3c-4.2,1-8.8,0.4-12.5-1.9c-3.5-2.1-6-5.7-6.9-9.7C378.2,172.2,380.5,165.2,385.7,161.6z"/>
	<g>
		<path class="st8" d="M454.5,158.9c6.5-1.1,13.6,2.2,16.6,8.2c2,3.9,2.4,8.7,0.9,12.8c-1.4,4-4.5,7.4-8.4,9.1
			c-6.9,3.2-15.9,0.8-20-5.7c-3.2-4.9-3.4-11.6-0.5-16.7C445.5,162.5,449.8,159.6,454.5,158.9L454.5,158.9z M454.4,166.7
			L454.4,166.7c-5,1.4-7,8-4.4,12.2c2.2,4,8.1,5.1,11.7,2.4c4.1-2.8,4.5-9.2,1.1-12.7C460.7,166.6,457.3,165.8,454.4,166.7z"/>
	</g>
	<g>
		<path class="st8" d="M175.4,160c4.1-1.6,8.9-1.7,13,0.1c2.6,1.2,4.9,3.2,6.3,5.7c2.3,3.5,2.8,7.9,2.2,12c-7.6,0-15.2,0-22.7,0
			c0.7,1.9,1.8,3.7,3.6,4.5c3.7,1.9,8.8,1.4,11.6-1.9c2.1,1.2,4.2,2.4,6.2,3.6c-2.1,2.9-5.2,5.2-8.8,5.9c-5.4,1.2-11.6,0.3-15.8-3.5
			c-4.4-3.9-5.9-10.5-4.5-16.1C167.7,165.8,171,161.8,175.4,160L175.4,160z M177.6,166.8L177.6,166.8c-1.9,1-2.9,2.9-3.6,4.9
			c5.1,0.1,10.2,0,15.4,0c-0.5-1.6-1.2-3.2-2.6-4.3C184.3,165.3,180.5,165.3,177.6,166.8z"/>
	</g>
	<g>
		<path class="st8" d="M210.2,163.1c4.6-5.8,14.2-5.5,19.3-0.5c6.4,5.8,6.8,16.7,1.1,23.1c-3,3.4-7.6,5.3-12.1,4.8
			c-3.2-0.2-6.2-1.7-8.3-4.2c0,5.1,0,10.3,0,15.4c-2.6,0-5.1,0-7.7,0c0-14,0-28,0-42c2.6,0,5.2,0,7.7,0
			C210.3,160.8,210.3,161.9,210.2,163.1L210.2,163.1z M216.6,166.4L216.6,166.4c-1.6,0.4-3.1,1.2-4.2,2.4c-2.9,3.3-2.9,8.8,0.2,11.9
			c2.9,3,8.2,3.2,11.4,0.5c3.5-2.9,3.8-8.8,0.8-12.2C222.9,166.6,219.6,165.7,216.6,166.4z"/>
	</g>
	<g>
		<path class="st8" d="M242,164.3c4.1-5.1,11.6-6.7,17.7-4.6c4.5,1.6,7.9,5.6,9.2,10.1c0.8,2.6,0.7,5.3,0.4,8c-7.6,0-15.1,0-22.7,0
			c0.6,1.6,1.4,3.3,3,4.2c3.8,2.3,9.3,1.9,12.3-1.5c2.1,1.2,4.1,2.4,6.2,3.6c-2.1,3.1-5.4,5.3-9.1,6c-5.3,1.1-11.2,0.2-15.4-3.5
			C237.4,181.1,236.8,170.6,242,164.3L242,164.3z M250,166.8L250,166.8c-1.9,1-2.9,3-3.5,4.9c5.1,0,10.2,0,15.3,0
			c-0.4-1.5-1-2.9-2.2-4C257.1,165.3,253,165.2,250,166.8z"/>
	</g>
	<g>
		<path class="st8" d="M316.4,163c4.8-5.8,14.4-5.5,19.5-0.3c6.2,5.8,6.6,16.6,0.8,22.9c-3,3.4-7.6,5.2-12.1,4.7
			c-3.2-0.2-6.1-1.8-8.2-4.2c0,5.1,0,10.2,0,15.4c-2.6,0-5.1,0-7.7,0c0-14,0-28,0-42c2.6,0,5.1,0,7.7,0
			C316.4,160.7,316.4,161.9,316.4,163L316.4,163z M322.6,166.4L322.6,166.4c-1.8,0.4-3.4,1.4-4.5,2.8c-2.6,3.4-2.3,8.9,1,11.8
			c3,2.7,7.9,2.7,11,0.2c3.6-3.1,3.9-9.2,0.6-12.6C328.7,166.5,325.5,165.7,322.6,166.4z"/>
	</g>
	<g>
		<path class="st8" d="M348.1,164.3c5-6.2,15.2-7.4,21.5-2.5c4.8,3.6,6.9,10.2,5.7,16c-7.6,0-15.1,0-22.7,0c0.6,1.7,1.6,3.4,3.2,4.3
			c3.8,2.2,9.1,1.7,12.1-1.7c2.1,1.2,4.2,2.4,6.2,3.6c-2.1,3-5.3,5.2-8.9,6c-5.3,1.2-11.4,0.2-15.6-3.4
			C343.5,181.1,342.9,170.7,348.1,164.3L348.1,164.3z M355.3,167.4L355.3,167.4c-1.4,1-2.2,2.7-2.7,4.4c5.1,0,10.2,0,15.3,0
			c-0.4-1.5-1-2.9-2.2-4C362.9,165.1,358.3,165.1,355.3,167.4z"/>
	</g>
	<path class="st8" d="M274.9,159.6c2.6,0,5.2,0,7.8,0c0,4.1,0,8.2,0,12.2c0.9,0,1.7,0,2.6,0c2.9-4.1,5.8-8.1,8.7-12.2
		c3.1,0,6.2,0,9.3,0c-3.7,5-7.5,9.9-11.2,14.8c3.8,5.1,7.6,10.2,11.5,15.2c-3,0-6.1,0-9.1,0c-2.9-3.9-5.8-7.9-8.6-11.8
		c-1.1,0-2.1,0-3.2,0c0,3.9,0,7.9,0,11.8c-2.6,0-5.2,0-7.8,0C274.9,179.6,274.9,169.6,274.9,159.6z"/>
	<path class="st8" d="M412.1,159.6c8.8,0,17.7,0,26.5,0c0,2.5,0,5,0,7.5c-3.1,0-6.2,0-9.3,0c0,7.5,0,15,0,22.6c-2.6,0-5.2,0-7.9,0
		c-0.1-7.5,0-15,0-22.6c-3.1,0-6.2,0-9.3,0C412.1,164.6,412.1,162.1,412.1,159.6z"/>
	<path class="st8" d="M477.5,159.6c2.6,0,5.1,0,7.7,0c0,4.1,0,8.2,0,12.2c0.9,0,1.7,0,2.6,0c2.9-4.1,5.8-8.1,8.7-12.2
		c3.1,0,6.2,0,9.3,0c-3.8,4.9-7.4,9.9-11.2,14.8c3.8,5.1,7.6,10.1,11.5,15.2c-3,0-6,0-9,0c-2.9-3.9-5.8-7.9-8.7-11.8
		c-1.1,0-2.2,0-3.2,0c0,3.9,0,7.9,0,11.8c-2.6,0-5.1,0-7.7,0C477.5,179.6,477.5,169.6,477.5,159.6z"/>
</g>
<path class="st9" d="M51.8,125.1c4-1.1,8.3-0.7,12.1,0.9c5.1,2.1,9.2,6.7,10.7,12.1c1.9,6.5-0.1,13.9-5,18.5
	c-4.4,4.3-8.7,8.8-13.1,13c-3.4-3.4-6.8-6.8-10.2-10.3c-2.1-2.1-4.3-4.1-5.8-6.7c-2.7-4.6-3.3-10.4-1.6-15.5
	C40.8,131.3,45.8,126.6,51.8,125.1z"/>
<path class="st8" d="M56.4,180.4c0.5,0,0.8,0.5,1.2,0.8c3.5,3.5,6.9,6.9,10.4,10.4c1.8,1.7,3.5,3.5,4.7,5.7
	c2.6,4.4,3.2,9.8,1.8,14.7c-1.5,5.2-5.3,9.6-10.2,11.8c-3.5,1.5-7.4,2.1-11.2,1.3c-6.2-1.1-11.7-5.7-13.9-11.5
	c-2.7-6.6-1.1-14.7,3.9-19.8C47.5,189.3,51.9,184.8,56.4,180.4z"/>
<g>
	<g>
		<path class="st10" d="M16.8,158c3.4-1.5,7.2-2.3,10.8-1.5c4.1,0.5,7.9,2.7,10.8,5.6c4.2,4.3,8.6,8.5,12.8,12.8
			c-4.3,4.4-8.7,8.7-13.1,13.1c-3.6,3.7-8.7,5.8-13.9,5.5C14.7,193.7,6,185,6.2,175.4C5.7,168.2,10.3,161,16.8,158z"/>
	</g>
</g>
<g>
	<g>
		<path class="st11" d="M75.1,161.7c4.3-4.3,10.9-6.4,16.9-5.1c8.5,1.5,15.3,9.7,15,18.4c0.2,6.8-3.9,13.4-10,16.5
			c-6.1,3.2-14,2.7-19.6-1.4c-2.1-1.5-3.8-3.4-5.6-5.2c-3.3-3.3-6.7-6.6-10-10C66.2,170.5,70.6,166.1,75.1,161.7z"/>
	</g>
</g>
</svg>
