<?xml version="1.0" encoding="utf-8"?>
<!-- Generator: Adobe Illustrator 19.1.0, SVG Export Plug-In . SVG Version: 6.00 Build 0)  -->
<svg version="1.1" id="Layer_1" xmlns="http://www.w3.org/2000/svg" xmlns:xlink="http://www.w3.org/1999/xlink" x="0px" y="0px"
	 viewBox="0 0 237 124" style="enable-background:new 0 0 237 124;" xml:space="preserve">
<style type="text/css">
	.st0{fill:none;stroke:#050D0C;stroke-width:2.8347;}
	.st1{fill:#050D0C;}
</style>
<g>
	<path class="st0" d="M168.6,104.6c8.9,0,17.9-2.6,26-7.7c22.4-14.2,29-44,14.7-66.4c-9.2-14.4-24.8-22.1-40.7-22.1H55.8
		c-8.8,0-17.7,2.7-25.6,7.7c-22.4,14.3-29,44-14.7,66.4c9.1,14.3,24.5,22,40.4,22.1H168.6z"/>
	<path class="st1" d="M175.7,60.8v11.8H157c-2.5,0-2-1.4-0.4-4.1c6.9-12,12.2-20.5,19.1-32.2v11.6h17.4V31.1c0-4.7-1.5-6.1-4.5-6.1
		c-4.9-0.1-5.3,0-8.4,0c-3.5,0-4.6,2.6-4.2,7.9c-0.2-5.8-2.9-7.9-6.8-7.9c-7.8,0-13.8,0-19.9,0c-3,0-4.8,1.6-6,4
		c-1.5,3.2-2.1,4-3.3,6.4c-0.1-2.2-0.1-4.5-0.1-6.9c0-2.3-2-3.5-3.6-3.6c-10.3-0.3-20.6-0.2-30.8,0c-3.3,0.1-4.5,1.1-6.2,3.9
		c-1.4,2.3-2.4,3.9-3.5,6.6c0-2.3,0-3.5,0-5.4c0-2.6-1.3-5.1-4.2-5.1c-7.6-0.1-14.7,0.2-21.4,0c-1.4,0-3.7,1.1-3.9,3.8
		c-0.4,5.3,0,5.6,0,8.3C58.2,20.6,42,24.7,25.5,24.7c-3.1,0-5.1,2.4-5.2,4.9c0,1.3,0,8.7,0,18.3h17.1v-7.1
		c5.7,0.2,13.8-1.5,13.8,7.5c0,7.5-6.3,8.4-13.8,8.1v-4.2v-4.2H20.3c0,20.2,0,50.2,0,52.8c0,5,0.8,8.8,3.9,11.2
		c2.3,1.7,3.8,3.6,6.5,5.8c2.9,2.4,6.6,3.8,6.6-1.8c-0.1-15.7-0.2-46.8,0-51.5c2.2,2,4.5,4,6.1,5.4c2.1,1.9,3.7,1.8,6.1,1.7
		c6.5-0.5,13.1-5.3,16.5-10.6c0.2,10.4,0,15.6,0,23.4c0,2.4,3.6,4,6.1,4c10.2,0.1,15.3,0,22.8,0c1.4,0,3.9-0.2,5.2-2.7
		c1.7-3.2,2.9-5.2,4.7-9.2c2.1-4.6-1.4-4-1.9-4c-3.9,0.1-11.6,0.1-19.6,0v-7.4c3.9,0.1,9.5-0.1,11.5-0.2c2.6-0.1,4.3-1.4,5.1-2.6
		c2.8-4.3,3.4-6,5.2-9.6c0.9-1.9,0.7-3.5-2-3.5c-10.3,0-16.1,0.1-19.8,0l0-8.5c9-0.2,14.5-0.1,25.4,0v42.7c0,3.5,1,4.9,3.4,4.9
		c6.7,0,2.6,0,10,0c2.3,0,3.5-1.6,3.5-4.9c0-8.9,0-30.7,0-42.7c13.2,0,16.8-0.2,28.7,0c-7.2,13.7-13.3,23.7-21,37.3
		c-3.2,5.7-1.8,10.5,4.1,10.5c17.1,0,16.3-0.2,29.1,0c4,0,6.9-5.9,9.3-10.4c0.1,5.4,0.1,10.3,4.8,10.4c18.5,0.1,22.5,0.1,37.2,0
		c4.7,0,5.2-2,6.8-3.9c2.4-2.8,4.1-5.3,5.9-7.9c1.1-1.6,0.9-4.1-2.1-4.1c-21.4,0.1-26,0-35.3,0V47.9h-17.4V60.8"/>
	<path class="st1" d="M208.3,55.3c0,1.6-0.6,2.9-1.7,4c-1.1,1.1-2.4,1.7-4,1.7c-1.6,0-2.9-0.6-4-1.7c-1.1-1.1-1.6-2.4-1.6-4
		c0-1.6,0.6-2.9,1.7-4c1.1-1.1,2.4-1.6,4-1.6c1.6,0,2.9,0.6,4,1.6C207.8,52.4,208.3,53.7,208.3,55.3L208.3,55.3z M202.6,50.4
		c-1.3,0-2.5,0.5-3.4,1.4c-0.9,0.9-1.4,2.1-1.4,3.4c0,1.4,0.5,2.5,1.4,3.5c0.9,1,2.1,1.4,3.4,1.4c1.4,0,2.5-0.5,3.4-1.4
		c0.9-1,1.4-2.1,1.4-3.5c0-1.3-0.5-2.5-1.4-3.4C205.1,50.9,204,50.4,202.6,50.4L202.6,50.4z M202.5,52.1c0.8,0,1.3,0.1,1.7,0.2
		c0.6,0.3,1,0.8,1,1.6c0,0.6-0.2,1-0.6,1.2c-0.2,0.1-0.5,0.2-0.9,0.3c0.5,0.1,0.8,0.3,1.1,0.6c0.2,0.3,0.3,0.6,0.3,1v0.5
		c0,0.1,0,0.3,0,0.5c0,0.2,0,0.3,0.1,0.3l0,0.1h-1c0,0,0,0,0-0.1c0,0,0,0,0-0.1l0-0.2v-0.5c0-0.7-0.2-1.2-0.6-1.4
		c-0.2-0.1-0.6-0.2-1.2-0.2h-0.9v2.4h-1.1v-6.2H202.5z M204.1,54c0-0.5-0.1-0.8-0.4-0.9c-0.3-0.2-0.7-0.2-1.3-0.2h-0.9v2.2h1
		c0.5,0,0.8,0,1-0.1C203.9,54.8,204.1,54.5,204.1,54L204.1,54z"/>
</g>
</svg>
