<?xml version="1.0" encoding="utf-8"?>
<!-- Generator: Adobe Illustrator 19.1.0, SVG Export Plug-In . SVG Version: 6.00 Build 0)  -->
<svg version="1.1" id="Layer_1" xmlns="http://www.w3.org/2000/svg" xmlns:xlink="http://www.w3.org/1999/xlink" x="0px" y="0px"
	 viewBox="-420 595.5 152 46" style="enable-background:new -420 595.5 152 46;" xml:space="preserve">
<style type="text/css">
	.st0{fill:#FFFFFF;}
	.st1{fill:#AAAAAA;}
	.st2{fill:#60B050;}
</style>
<rect x="-420" y="595.5" class="st0" width="152" height="46"/>
<rect x="-314" y="595.5" class="st1" width="46" height="46"/>
<rect x="-420" y="595.5" class="st2" width="104" height="46"/>
<rect x="-317.9" y="622.5" class="st0" width="6" height="6"/>
<g>
	<g>
		<path class="st0" d="M-292.1,615.3c-0.3-0.6-0.7-1.1-1.2-1.6c-0.4-0.4-0.9-0.8-1.4-1c-0.5-0.3-1-0.5-1.6-0.6
			c-0.5-0.1-1-0.2-1.5-0.2c-0.6,0-1.1,0.1-1.6,0.2s-0.9,0.3-1.3,0.5c-0.4,0.2-0.7,0.5-1.1,0.9c-0.4,0.4-0.6,0.8-0.9,1.3h-0.1v-2.3
			h-4V635h4.2v-8.3h0.1c0.3,0.5,0.6,0.9,0.9,1.2c0.4,0.3,0.7,0.6,1.1,0.8c0.4,0.2,0.8,0.3,1.2,0.4c0.4,0.1,0.8,0.1,1.2,0.1
			c1.2,0,2.2-0.2,3.1-0.7c0.9-0.5,1.6-1.1,2.2-1.8c0.6-0.8,1-1.7,1.3-2.8c0.3-1.1,0.4-2.3,0.4-3.6c0-1.1-0.1-2-0.3-2.8
			C-291.5,616.5-291.8,615.8-292.1,615.3z M-295.5,621.5c0,0.4-0.1,0.7-0.2,1.1c-0.1,0.4-0.2,0.7-0.4,1.1c-0.2,0.4-0.4,0.7-0.7,0.9
			c-0.3,0.3-0.6,0.5-1,0.7s-0.8,0.2-1.3,0.2s-1-0.1-1.3-0.2c-0.4-0.2-0.7-0.4-1-0.7c-0.3-0.3-0.5-0.6-0.7-0.9
			c-0.2-0.3-0.3-0.7-0.4-1.1c-0.1-0.4-0.2-0.7-0.2-1.1s-0.1-0.7-0.1-1c0-0.6,0.1-1.1,0.2-1.7c0.1-0.6,0.3-1.1,0.6-1.6
			c0.3-0.5,0.7-0.8,1.1-1.1c0.5-0.3,1-0.4,1.7-0.4s1.2,0.1,1.7,0.4c0.5,0.3,0.8,0.7,1.1,1.1c0.3,0.4,0.5,1,0.6,1.6
			c0.1,0.6,0.2,1.2,0.2,1.7C-295.4,620.8-295.4,621.1-295.5,621.5z M-277.8,612.3l-3.3,12h-0.1l-3.5-12h-4.8l6,17.2
			c0,0.2,0,0.4-0.1,0.6c-0.1,0.2-0.2,0.5-0.4,0.7c-0.2,0.2-0.4,0.4-0.7,0.6c-0.3,0.2-0.7,0.3-1.1,0.3c-0.2,0-0.4,0-0.6,0
			s-0.5,0-0.6-0.1v3.4c0.3,0,0.6,0.1,0.9,0.1c0.2,0,0.5,0,0.8,0c0.7,0,1.3,0,1.8-0.1s1-0.2,1.3-0.4c0.3-0.2,0.7-0.4,1-0.8
			c0.3-0.3,0.6-0.7,0.8-1.2s0.5-1.1,0.8-1.8c0.3-0.7,0.6-1.5,0.9-2.4l5.6-16.1H-277.8L-277.8,612.3z"/>
	</g>
</g>
<g>
	<g>
		<path class="st0" d="M-412.6,628.5h4.6v-18.2h8.7v18.2h4.6v-22h-17.9V628.5z M-375.9,615c-0.3-0.6-0.7-1.1-1.2-1.6
			c-0.4-0.4-0.9-0.8-1.4-1c-0.5-0.3-1-0.5-1.6-0.6c-0.5-0.1-1-0.2-1.5-0.2c-0.6,0-1.1,0.1-1.6,0.2c-0.5,0.1-0.9,0.3-1.3,0.5
			s-0.7,0.5-1.1,0.9c-0.3,0.4-0.6,0.8-0.9,1.3h-0.1v-2.3h-4v22.6h4.2v-8.3h0.1c0.3,0.5,0.6,0.9,0.9,1.2c0.4,0.3,0.7,0.6,1.1,0.8
			c0.4,0.2,0.8,0.3,1.2,0.4c0.4,0.1,0.8,0.1,1.2,0.1c1.2,0,2.2-0.2,3.1-0.7c0.9-0.4,1.6-1.1,2.2-1.8c0.6-0.8,1-1.7,1.3-2.8
			c0.3-1.1,0.4-2.3,0.4-3.6c0-1.1-0.1-2-0.3-2.8C-375.3,616.3-375.6,615.6-375.9,615z M-379.3,621.3c0,0.4-0.1,0.7-0.2,1.1
			c-0.1,0.4-0.2,0.7-0.4,1.1c-0.2,0.3-0.4,0.7-0.7,0.9c-0.3,0.3-0.6,0.5-1,0.7c-0.4,0.2-0.8,0.2-1.3,0.2s-1-0.1-1.3-0.2
			c-0.4-0.2-0.7-0.4-1-0.7c-0.3-0.3-0.5-0.6-0.7-0.9c-0.2-0.3-0.3-0.7-0.4-1.1c-0.1-0.4-0.2-0.7-0.2-1.1c0-0.4-0.1-0.7-0.1-1
			c0-0.6,0.1-1.1,0.2-1.7c0.1-0.6,0.3-1.1,0.6-1.6c0.3-0.5,0.7-0.8,1.1-1.1c0.5-0.3,1-0.4,1.7-0.4c0.7,0,1.2,0.1,1.7,0.4
			c0.5,0.3,0.8,0.7,1.1,1.1c0.3,0.5,0.5,1,0.6,1.6c0.1,0.6,0.2,1.2,0.2,1.7C-379.2,620.6-379.3,621-379.3,621.3z M-358.2,614
			c-0.7-0.8-1.6-1.4-2.6-1.8c-1-0.4-2.2-0.6-3.5-0.6c-1.3,0-2.4,0.2-3.5,0.6c-1,0.4-1.9,1-2.6,1.8s-1.3,1.7-1.7,2.7
			c-0.4,1.1-0.6,2.2-0.6,3.5s0.2,2.4,0.6,3.5c0.4,1.1,0.9,2,1.7,2.7c0.7,0.8,1.6,1.4,2.6,1.8c1,0.4,2.2,0.6,3.5,0.6
			c1.3,0,2.5-0.2,3.5-0.6c1-0.4,1.9-1,2.6-1.8c0.7-0.8,1.3-1.7,1.6-2.7c0.4-1.1,0.6-2.2,0.6-3.5s-0.2-2.4-0.6-3.5
			C-357,615.8-357.5,614.8-358.2,614z M-360.6,622.1c-0.1,0.6-0.3,1.1-0.6,1.6c-0.3,0.5-0.7,0.8-1.2,1.1s-1.1,0.4-1.9,0.4
			c-0.7,0-1.3-0.1-1.8-0.4s-0.9-0.7-1.2-1.1c-0.3-0.5-0.5-1-0.7-1.6c-0.1-0.6-0.2-1.2-0.2-1.8c0-0.6,0.1-1.2,0.2-1.8
			c0.1-0.6,0.4-1.1,0.7-1.6s0.7-0.9,1.2-1.1c0.5-0.3,1.1-0.4,1.8-0.4c0.8,0,1.4,0.1,1.9,0.4s0.9,0.7,1.2,1.1c0.3,0.5,0.5,1,0.6,1.6
			s0.2,1.2,0.2,1.9C-360.5,621-360.5,621.5-360.6,622.1z M-341,621c-0.2-0.3-0.6-0.6-1-0.9c-0.4-0.2-0.9-0.4-1.5-0.5v-0.1
			c0.3-0.1,0.7-0.2,1-0.4c0.3-0.2,0.6-0.4,0.8-0.7c0.2-0.3,0.4-0.6,0.6-1c0.1-0.4,0.2-0.8,0.2-1.3c0-0.6-0.1-1.1-0.4-1.7
			c-0.2-0.6-0.6-1-1.1-1.5c-0.5-0.4-1.2-0.8-1.9-1c-0.8-0.3-1.7-0.4-2.8-0.4c-1,0-1.9,0.1-2.7,0.3s-1.5,0.5-2.2,0.9
			c-0.6,0.4-1.1,0.9-1.4,1.5c-0.4,0.6-0.5,1.4-0.5,2.3h4c0-0.6,0.2-1.1,0.7-1.5c0.5-0.3,1.1-0.5,1.8-0.5c0.3,0,0.6,0,0.9,0.1
			c0.3,0.1,0.5,0.2,0.7,0.3c0.2,0.2,0.4,0.4,0.5,0.6s0.2,0.6,0.2,0.9c0,0.6-0.2,1.1-0.6,1.4s-1.1,0.5-2,0.5h-1.6v2.8h1.9
			c0.9,0,1.6,0.2,2,0.5c0.4,0.3,0.6,0.9,0.6,1.6c0,0.2,0,0.5-0.1,0.8s-0.2,0.6-0.4,0.8s-0.5,0.5-0.8,0.6c-0.3,0.2-0.8,0.2-1.3,0.2
			c-0.4,0-0.8-0.1-1.2-0.2c-0.3-0.1-0.6-0.3-0.9-0.5c-0.2-0.2-0.4-0.5-0.6-0.8c-0.1-0.3-0.2-0.7-0.2-1h-4c0,1,0.2,1.9,0.6,2.6
			c0.4,0.7,0.9,1.3,1.5,1.7c0.6,0.4,1.4,0.8,2.3,1c0.9,0.2,1.9,0.3,2.9,0.3c0.8,0,1.6-0.1,2.4-0.3c0.8-0.2,1.5-0.5,2.2-1
			c0.6-0.4,1.2-1,1.6-1.7c0.4-0.7,0.6-1.6,0.6-2.6c0-0.4-0.1-0.8-0.2-1.2C-340.6,621.8-340.8,621.3-341,621z M-323.8,627.6
			c-0.1-0.1-0.2-0.2-0.3-0.4s-0.2-0.4-0.2-0.7c-0.1-0.3-0.1-0.7-0.1-1.2v-8.8c0-0.6-0.1-1.2-0.3-1.7c-0.2-0.6-0.5-1.1-1-1.6
			s-1.2-0.9-2.1-1.2s-2.1-0.4-3.5-0.4c-1,0-1.9,0.1-2.7,0.4c-0.7,0.2-1.4,0.5-1.9,0.9c-0.5,0.4-0.9,0.7-1.2,1.2
			c-0.3,0.4-0.6,0.9-0.7,1.3c-0.2,0.4-0.3,0.8-0.4,1.2c-0.1,0.4-0.1,0.6-0.1,0.8h4.2c0-0.3,0.1-0.6,0.2-0.9c0.1-0.3,0.2-0.5,0.4-0.7
			c0.2-0.2,0.5-0.4,0.8-0.5c0.3-0.1,0.8-0.2,1.4-0.2c0.5,0,0.9,0,1.3,0.1c0.3,0.1,0.6,0.2,0.8,0.4c0.2,0.2,0.3,0.4,0.4,0.6
			s0.1,0.5,0.1,0.7c0,0.3-0.1,0.5-0.1,0.7c-0.1,0.2-0.2,0.3-0.4,0.4c-0.1,0.1-0.3,0.2-0.5,0.2s-0.3,0.1-0.5,0.1l-4.2,0.6
			c-0.7,0.1-1.3,0.3-1.9,0.6c-0.6,0.3-1,0.6-1.4,1.1c-0.4,0.4-0.7,0.9-0.9,1.5c-0.2,0.6-0.3,1.2-0.3,1.9c0,0.8,0.1,1.6,0.4,2.2
			c0.2,0.6,0.6,1.2,1,1.6c0.4,0.4,1,0.7,1.6,1c0.6,0.2,1.3,0.3,2,0.3s1.3-0.1,1.8-0.2c0.5-0.1,1-0.3,1.3-0.5
			c0.4-0.2,0.7-0.5,1.1-0.8c0.3-0.3,0.6-0.6,1-0.9c0,0.4,0,0.8,0.1,1.1s0.2,0.6,0.3,0.8h4.7V628
			C-323.6,627.8-323.7,627.6-323.8,627.6z M-328.7,622.1c0,0.5-0.1,1-0.2,1.4s-0.3,0.7-0.5,1s-0.5,0.5-0.7,0.7
			c-0.3,0.2-0.6,0.3-0.8,0.4c-0.3,0.1-0.5,0.2-0.8,0.2c-0.2,0-0.5,0.1-0.6,0.1c-0.3,0-0.6,0-0.8-0.1c-0.3-0.1-0.5-0.2-0.7-0.4
			c-0.2-0.2-0.3-0.4-0.5-0.6c-0.1-0.3-0.2-0.6-0.2-0.9c0-0.4,0.1-0.8,0.2-1c0.1-0.3,0.3-0.5,0.6-0.7c0.2-0.2,0.6-0.4,0.9-0.5
			c0.4-0.1,0.8-0.2,1.3-0.3l1.1-0.2c0.4-0.1,0.8-0.2,1-0.3c0.3-0.1,0.5-0.2,0.8-0.4v1.6H-328.7z"/>
	</g>
</g>
</svg>
