<?xml version="1.0" encoding="utf-8"?>
<!-- Generator: Adobe Illustrator 19.1.0, SVG Export Plug-In . SVG Version: 6.00 Build 0)  -->
<svg version="1.1" id="Слой_1" xmlns="http://www.w3.org/2000/svg" xmlns:xlink="http://www.w3.org/1999/xlink" x="0px" y="0px"
	 viewBox="-420 595.6 373.9 49.9" style="enable-background:new -420 595.6 373.9 49.9;" xml:space="preserve">
<style type="text/css">
	.st0{fill:#990032;}
</style>
<polygon class="st0" points="-313,645.5 -302.7,645.5 -302.7,605.2 -289.7,605.2 -289.7,595.6 -313,595.6 "/>
<polygon class="st0" points="-188.9,605.2 -178.6,605.2 -178.6,645.5 -168.4,645.5 -168.4,605.2 -158.1,605.2 -158.1,595.6 
	-188.9,595.6 "/>
<path class="st0" d="M-420,595.6v49.9h10v-12.7h13.1l7.6-7.2v-22.8l-7.2-7.2H-420z M-399.6,623.2h-10.4v-18h10.4V623.2z"/>
<path class="st0" d="M-376.2,595.6l-7.2,7.2v35.5l7.2,7.2h18.1l7.2-7.2v-35.5l-7.2-7.2H-376.2z M-361.1,635.9h-12v-30.7h12V635.9z"
	/>
<polygon class="st0" points="-334.1,605.2 -319.6,605.2 -319.6,595.6 -337.2,595.6 -344.4,602.8 -344.4,638.3 -337.2,645.5 
	-319.5,645.5 -319.5,635.9 -334.1,635.9 "/>
<path class="st0" d="M-279.3,595.6l-7.2,7.2v35.5l7.2,7.2h18.1l7.2-7.2v-35.5l-7.2-7.2H-279.3z M-264.2,635.9h-12v-30.7h12V635.9z"
	/>
<path class="st0" d="M-152.8,595.6v49.9h10v-12.7h13.1l7.6-7.2v-22.8l-7.2-7.2H-152.8z M-132.4,623.2h-10.4v-18h10.4V623.2z"/>
<polygon class="st0" points="-237.2,605.2 -222.7,605.2 -222.7,595.6 -240.3,595.6 -247.5,602.8 -247.5,638.3 -240.3,645.5 
	-222.6,645.5 -222.6,635.9 -237.2,635.9 "/>
<polygon class="st0" points="-207.4,605.2 -192.8,605.2 -192.8,595.6 -210.4,595.6 -217.6,602.8 -217.6,638.3 -210.4,645.5 
	-192.8,645.5 -192.8,635.9 -207.4,635.9 "/>
<polygon class="st0" points="-53.4,619.9 -46.1,595.6 -56.4,595.6 -62,614.4 -63.8,614.4 -69.4,595.6 -79.7,595.6 -72.3,620 
	-79.8,645.5 -69.6,645.5 -63.7,625.8 -62.1,625.8 -56.2,645.5 -46,645.5 "/>
<path class="st0" d="M-92.4,645.5h10.3l-10.3-49.9h-17.5l-10.3,49.9h10.1l2.3-11.9h13.1L-92.4,645.5z M-106,624.2l3.7-19h2l3.7,19
	H-106z"/>
</svg>
