<?xml version="1.0" encoding="utf-8"?>
<!-- Generator: Adobe Illustrator 19.1.0, SVG Export Plug-In . SVG Version: 6.00 Build 0)  -->
<svg version="1.1" id="_x31_" xmlns="http://www.w3.org/2000/svg" xmlns:xlink="http://www.w3.org/1999/xlink" x="0px" y="0px"
	 viewBox="0 0 180.9 32.5" style="enable-background:new 0 0 180.9 32.5;" xml:space="preserve">
<style type="text/css">
	.st0{fill-rule:evenodd;clip-rule:evenodd;fill:#1345AE;}
	.st1{fill-rule:evenodd;clip-rule:evenodd;fill:#003057;}
</style>
<g>
	<path class="st0" d="M18.9,4.8c0.1-0.9,0.4-1.8,0.9-2.7c0.1-0.2,0.3-0.4,0.4-0.6c1.3,0.3,2.5,0.7,3.6,1.3c-0.4,0.5-0.7,1.1-0.8,1.9
		c-0.1,0.7,0,1.5,0.3,2.2c0.3,0.7,0.7,1.3,1.3,1.8c0.5,0.5,1.1,0.9,1.8,1.2c1.3,0.6,2.6,1,4,1.1c0.3,0,0.6,0,0.8,0
		c0.1,0.2,0.1,0.4,0.2,0.6c-0.5,0.1-1,0.1-1.6,0.1c-2,0.1-3.9-0.2-5.8-0.8c-1.8-0.7-3.5-1.8-4.4-3.4C19.1,6.6,18.8,5.7,18.9,4.8
		L18.9,4.8z M28.9,18.1c-3.2-0.2-6.4-0.8-9.3-2.2c-1.5-0.7-2.9-1.5-4.1-2.6c-1.2-1.1-2.3-2.4-2.9-3.9c-0.7-1.5-0.9-3.2-0.6-4.9
		c0.1-1,0.4-1.9,0.8-2.7C11,2.2,9.4,3,7.9,4.2c0,0.2-0.1,0.5-0.1,0.7C7.7,6.7,8.1,8.5,9,10.1c0.8,1.6,2.1,3,3.6,4.1
		c1.5,1.1,3.1,2,4.9,2.7c3.5,1.4,7.3,1.9,11.1,1.9c1.1,0,2.2-0.1,3.3-0.2c0-0.2,0.1-0.3,0.1-0.5C30.9,18.2,29.9,18.2,28.9,18.1
		L28.9,18.1z M16.8,11.7c1.1,0.9,2.4,1.5,3.7,2.1c2.7,1,5.6,1.5,8.5,1.4c1,0,2-0.1,3-0.2c0-0.1,0-0.2,0-0.2c0-0.1,0-0.2,0-0.3
		c-0.8,0-1.5,0-2.3,0c-2.3-0.1-4.5-0.6-6.6-1.6c-1-0.5-2-1.1-2.9-1.9c-0.9-0.8-1.7-1.7-2.2-2.8c-0.5-1.1-0.7-2.4-0.5-3.6
		c0.2-1.2,0.7-2.3,1.3-3.2c0.1-0.1,0.1-0.1,0.2-0.2c-1.1-0.2-2.2-0.2-3.3-0.1c-0.4,0-0.9,0.1-1.3,0.2c-0.5,1-0.9,2.2-1,3.3
		c-0.1,1.4,0.1,2.8,0.8,4C14.8,9.8,15.7,10.9,16.8,11.7L16.8,11.7z M28.5,21.8c-4.1-0.2-8.2-1-11.9-2.7c-1.9-0.8-3.7-1.9-5.3-3.3
		c-1.6-1.3-3-3-3.9-4.9C6.6,9.2,6.3,7.4,6.3,5.6c-3,3-4.7,7.3-4.3,11.9c0.7,8.3,8,14.4,16.3,13.6c5.8-0.5,10.5-4.3,12.6-9.3
		C30.1,21.8,29.3,21.8,28.5,21.8L28.5,21.8z M24.8,3.3C24.8,3.3,24.8,3.3,24.8,3.3c-0.3,0.5-0.4,1-0.4,1.5c0,0.5,0.1,0.9,0.4,1.3
		c0.5,0.8,1.4,1.3,2.4,1.6C28,7.9,28.8,8,29.6,8C28.4,6.1,26.7,4.5,24.8,3.3z"/>
	<path class="st1" d="M100,21.7c-1-0.6-1.9-1.3-2.4-2.3c-0.6-1-0.9-2.1-0.9-3.3c0-1.2,0.3-2.3,0.9-3.3c0.6-1,1.4-1.7,2.4-2.3
		c1-0.6,2.2-0.8,3.5-0.8s2.4,0.3,3.4,0.8c1,0.5,1.8,1.3,2.4,2.3c0.6,1,0.9,2.1,0.9,3.3c0,1.2-0.3,2.3-0.9,3.3
		c-0.6,1-1.4,1.7-2.4,2.3c-1,0.6-2.2,0.8-3.4,0.8C102.2,22.5,101.1,22.2,100,21.7L100,21.7z M105.5,19.6c0.6-0.3,1-0.8,1.4-1.4
		c0.3-0.6,0.5-1.3,0.5-2c0-0.8-0.2-1.5-0.5-2.1c-0.3-0.6-0.8-1.1-1.4-1.4c-0.6-0.3-1.3-0.5-2-0.5c-0.7,0-1.4,0.2-2,0.5
		c-0.6,0.3-1,0.8-1.4,1.4c-0.3,0.6-0.5,1.3-0.5,2c0,0.8,0.2,1.5,0.5,2c0.3,0.6,0.8,1.1,1.4,1.4c0.6,0.3,1.3,0.5,2,0.5
		C104.3,20.1,104.9,19.9,105.5,19.6L105.5,19.6z M48.5,12c-0.4-0.7-1-1.2-1.9-1.5c-0.8-0.4-1.8-0.5-2.9-0.5h-5.4v12.3h2.9v-3.4h2.5
		c1.1,0,2-0.2,2.9-0.5c0.8-0.3,1.4-0.9,1.9-1.5c0.4-0.7,0.6-1.5,0.6-2.4C49.1,13.5,48.9,12.7,48.5,12L48.5,12z M46.3,14.4
		c0,0.7-0.2,1.2-0.7,1.6c-0.4,0.4-1.1,0.6-2,0.6h-2.3v-4.3h2.3c0.9,0,1.5,0.2,2,0.6C46,13.2,46.3,13.7,46.3,14.4L46.3,14.4
		L46.3,14.4z M53.5,10h-2.8v12.4h2.7l5.9-8v8h2.8V10h-2.7l-5.9,8V10L53.5,10L53.5,10z M73,19.7h-5.7l-1.1,2.7h-2.9L68.8,10h2.8
		l5.5,12.4h-3L73,19.7L73,19.7z M72.1,17.5l-2-4.7l-2,4.7H72.1L72.1,17.5z M94.1,22.3V10h-2.9v4.9h-5.6V10h-2.9v12.4h2.9v-5.1h5.6
		v5.1H94.1L94.1,22.3z M123.8,18.8c0-0.8-0.2-1.4-0.6-1.9c-0.4-0.5-1-0.9-1.7-1.1c0.5-0.2,1-0.6,1.3-1.1c0.3-0.5,0.4-1,0.4-1.6
		c0-1-0.4-1.8-1.2-2.4c-0.8-0.6-1.9-0.8-3.4-0.8h-5.7v12.4h6.1c1.5,0,2.7-0.3,3.6-0.9C123.4,20.8,123.8,19.9,123.8,18.8L123.8,18.8z
		 M118.4,15.1h-2.7v-3h2.7c0.6,0,1.1,0.1,1.4,0.4c0.3,0.3,0.5,0.6,0.5,1.1c0,0.5-0.2,0.9-0.5,1.1C119.5,14.9,119.1,15.1,118.4,15.1
		L118.4,15.1z M118.9,17.1c1.3,0,2,0.5,2,1.5c0,1.1-0.7,1.6-2,1.6h-3.1v-3.1H118.9L118.9,17.1z M129,21.7c-1-0.6-1.9-1.3-2.4-2.3
		c-0.6-1-0.9-2.1-0.9-3.3c0-1.2,0.3-2.3,0.9-3.3c0.6-1,1.4-1.7,2.4-2.3c1-0.6,2.2-0.8,3.5-0.8c1.3,0,2.4,0.3,3.4,0.8
		c1,0.5,1.8,1.3,2.4,2.3c0.6,1,0.9,2.1,0.9,3.3c0,1.2-0.3,2.3-0.9,3.3c-0.6,1-1.4,1.7-2.4,2.3c-1,0.6-2.2,0.8-3.4,0.8
		C131.1,22.5,130,22.2,129,21.7L129,21.7z M134.4,19.6c0.6-0.3,1-0.8,1.4-1.4c0.3-0.6,0.5-1.3,0.5-2c0-0.8-0.2-1.5-0.5-2.1
		c-0.3-0.6-0.8-1.1-1.4-1.4c-0.6-0.3-1.3-0.5-2-0.5c-0.7,0-1.4,0.2-2,0.5c-0.6,0.3-1,0.8-1.4,1.4c-0.3,0.6-0.5,1.3-0.5,2
		c0,0.8,0.2,1.5,0.5,2c0.3,0.6,0.8,1.1,1.4,1.4c0.6,0.3,1.3,0.5,2,0.5C133.2,20.1,133.8,19.9,134.4,19.6L134.4,19.6z M141.9,19.4
		c0.6,1,1.4,1.7,2.4,2.3c1,0.6,2.2,0.8,3.4,0.8c1.1,0,2-0.2,2.9-0.6c0.9-0.4,1.6-0.9,2.2-1.7l-1.8-1.7c-0.8,1-1.9,1.5-3.1,1.5
		c-0.8,0-1.5-0.2-2-0.5c-0.6-0.3-1.1-0.8-1.4-1.4c-0.3-0.6-0.5-1.3-0.5-2c0-0.8,0.2-1.5,0.5-2.1c0.3-0.6,0.8-1.1,1.4-1.4
		c0.6-0.3,1.3-0.5,2-0.5c1.2,0,2.3,0.5,3.1,1.5l1.8-1.7c-0.6-0.7-1.3-1.3-2.2-1.6c-0.9-0.4-1.9-0.6-2.9-0.6c-1.3,0-2.4,0.3-3.4,0.8
		c-1,0.5-1.8,1.3-2.4,2.3c-0.6,1-0.9,2-0.9,3.3C141,17.4,141.3,18.5,141.9,19.4L141.9,19.4z M164.4,12.3h-4v10h-2.8v-10h-3.9V10
		h10.7V12.3L164.4,12.3z M169.5,10h-2.8v12.4h2.7l5.9-8v8h2.8V10h-2.7l-5.9,8V10L169.5,10z"/>
</g>
</svg>
