<?xml version="1.0" encoding="utf-8"?>
<!-- Generator: Adobe Illustrator 19.1.0, SVG Export Plug-In . SVG Version: 6.00 Build 0)  -->
<svg version="1.1" id="Слой_1" xmlns="http://www.w3.org/2000/svg" xmlns:xlink="http://www.w3.org/1999/xlink" x="0px" y="0px"
	 viewBox="0 0 224.1 81" style="enable-background:new 0 0 224.1 81;" xml:space="preserve">
<style type="text/css">
	.st0{fill-rule:evenodd;clip-rule:evenodd;fill:#FFFFFF;}
	.st1{fill-rule:evenodd;clip-rule:evenodd;fill:#FFFD7D;}
</style>
<g>
	<path class="st0" d="M212.1,35c-0.1-0.1-0.2-0.1-0.3,0c-8.7,7.3-15.7,10.7-22,10.7c-3.2,0-5.7-2.1-5.7-4.9c0-0.3,0-0.6,0.1-0.9
		c4.1,0.8,8.3-0.2,11.7-2.6c1.8-1.4,2.8-3,2.8-4.6c0-1.7-1.1-3.8-4.4-3.8c-4.2,0-10.4,3.6-12.2,8.8c-1.9,1.8-4.4,3.4-6.1,3.4
		c-0.4,0.1-0.8-0.1-1.1-0.4c-0.3-0.3-1-1.5-0.2-4.6c0-0.1,0-0.2-0.1-0.2l-1.9-0.9c-0.1,0-0.1,0-0.2,0c-0.7,0.6-1.5,1.2-2.2,1.8
		c-2.4,1.9-6.1,4.9-7.3,4.9c-0.1,0-0.2,0-0.3,0c0-0.1,0-0.2,0-0.3c0-2.3,1.6-5.6,3-8c0-0.1,0-0.2-0.1-0.2l-1.9-1.2
		c-0.1-0.1-0.2,0-0.2,0c-3,4.2-10,9.8-13.1,9.8c-1.6,0.1-3.1-1-3.5-2.6c2.5-1.4,5.1-2.7,7.8-3.9c0.1,0,0.1-0.1,0.1-0.2l-0.9-2
		c0-0.1-0.1-0.1-0.2-0.1c-5.1,2.1-10,4.9-14.5,8.1h0c0.2-0.7,0.5-1.4,0.9-2.2c1.9-1.3,3.7-2.7,5.3-4c3.3-2.6,13.9-11.4,13.9-16.6
		c0.1-1.3-0.9-2.4-2.2-2.3c-1.9,0-4.5,1.7-7.7,5.1c-4.5,4.8-8.3,10.2-11.3,16c-5.3,3.6-10.1,6-12.3,6c-1.3,0.2-2.4-0.9-2.2-2.2
		c0-3.9,4.9-7.9,7.2-7.9c0.9,0,1.3,0.4,1.3,1.2c-0.1,0.8-0.4,1.5-0.9,2.2c-0.1,0.1,0,0.2,0.1,0.3l2,0.9c0.1,0,0.2,0,0.2-0.1
		c0.7-0.9,1.1-2.1,1.1-3.2c0.1-2.2-1.7-3.9-3.9-3.8c-3.7,0-9.8,5.1-9.8,10.5c0,0.3,0,0.5,0,0.8c-1.2,0.8-2.5,1.3-3.9,1.5
		c-0.5,0-1-0.1-1.3-0.5c-0.7-0.8-0.9-2.7-0.6-5.1c0-0.1,0-0.1-0.1-0.2l-1.7-1.3c-0.1,0-0.1-0.1-0.2,0c-1.6,0.9-3.2,1.9-4.7,2.9
		c-0.5,0.4-1.3,1-2.3,1.7h0l2.7-5.9c0-0.1,0-0.1,0-0.2l-1.6-1.5c-0.1-0.1-0.1-0.1-0.2,0c-2,1.1-4,2.4-5.8,3.8
		c-1,0.7-2.4,1.8-3.9,3.1l0,0l3.8-7.4c0-0.1,0-0.2-0.1-0.2l-2.2-1.5c-0.1-0.1-0.2,0-0.2,0C92,39.5,85.2,45.1,80.4,45.1
		c-1.9,0-2.8-0.9-2.8-2.7c0-0.4,0-0.9,0.1-1.3c0.7,0.1,1.5,0.1,2.2,0.1c4.3,0,10.4-2.7,10.4-7.1c0.1-2.1-1.7-3.8-3.8-3.6
		c-2.4,0-5.3,1.4-7.6,3.7c-1.2,1.1-2.2,2.5-2.9,4c-1.1-0.3-2-1-2.8-1.8c0-0.1-0.1-0.1-0.2-0.1l-2,0.6c-0.1,0-0.1,0.1-0.1,0.2
		c-0.7,5.3-4.4,8.8-6.7,8.8c-0.6,0-2.3,0-2.3-3.2c0.2-2.2,0.8-4.3,1.8-6.2c5.4-2.2,10.4-5.4,14.8-9.3C84.8,21.5,89,15.3,89,11.7
		C89,10.2,87.8,9,86.3,9c-3.7,0-11.6,8-15.6,12.7c-3.4,3.9-6.4,8.1-8.9,12.6c-2.1,0.7-7.1,2.6-7.1,2.6c-0.9,5.7-5.7,9.4-9,9.4
		c-1.5,0-2.4-1.1-2.4-2.7c0-5.2,6.2-10.6,9.7-10.6c0.7,0,1.4,0.2,1.9,0.6c0.1,0.1,0.2,0,0.2,0l1.5-1.8c0.1-0.1,0.1-0.2,0-0.3
		c-1-0.8-2.3-1.2-3.6-1.1c-2.3,0-5.1,1.3-7.4,3.5c-2.8,2.7-4.8,6.2-4.8,9.6c0,0.8,0.1,1.6,0.4,2.3c-7.6,5.9-16.3,11.7-24.3,11.7
		c-3.1,0-6.2-2.3-6.2-7.5c0-8.1,5.9-18.2,15.8-27C35.8,15,47,9.6,54.8,9.6c4,0,4.8,2.6,4.8,4.7c0,2.8-1.2,5.9-3.9,9.7
		c-0.4,0.5-0.8,1.1-0.9,1.3c-0.1,0.1,0,0.2,0,0.2l1.7,1.4c0.1,0.1,0.2,0,0.3,0c0.2-0.3,0.6-0.9,1-1.4c3-4.3,4.3-7.8,4.3-11.2
		c0-4.5-2.8-7.3-7.4-7.3c-8.6,0-20.1,5.5-30.1,14.3C14.3,30.6,8.1,41.4,8.1,50.2c0,6.9,4.6,10,8.8,10c8.8,0,17.9-6.1,25.8-12.2
		c0.9,0.6,1.9,0.9,3,0.9c4.5,0,9.5-4.2,11.2-10.1c1.5-0.5,2.4-0.9,3.5-1.3l0,0c-0.7,1.6-1,3.3-1.1,5c0,5.4,3.7,5.8,4.9,5.8
		c3.3,0,7.3-3.5,8.8-8.8h0c0.7,0.4,1.4,0.8,2.2,1v0C75,41.2,75,41.8,75,42.4c0,3.2,2.1,5.3,5.4,5.3c4.6,0,9.4-3.5,14.2-8.4
		c0.1-0.1,0.3,0,0.2,0.1l-3.1,5.7c0,0.1,0,0.2,0.1,0.2l1.8,1.3c0.1,0.1,0.2,0,0.2,0c3.4-3.4,7.2-6.5,11.2-9.3h0l-3.4,7.5
		c0,0.1,0,0.2,0.1,0.2l1.8,1.3c0.1,0.1,0.2,0,0.2,0c2.7-2.6,5.6-4.8,8.7-6.8h0c0,2.2,0.4,3.8,1.3,4.9c0.8,0.9,2,1.4,3.2,1.4h0
		c1.7-0.2,3.4-0.7,4.9-1.7c0.9,1.1,2.3,1.7,3.7,1.6c2.6,0,6.6-2.1,10.7-4.6h0c-0.3,1-0.5,1.9-0.5,2.9c0,0.1,0,0.1,0.1,0.2l1.9,0.9
		c0.1,0,0.1,0,0.2,0c2.5-1.9,4.6-3.3,6.5-4.6c0.9,2.4,3.2,3.9,5.7,3.8c2.8,0,6.7-2.5,10.1-5.4h0c-0.2,0.8-0.3,1.6-0.3,2.4
		c-0.1,1.7,1.3,3.1,2.9,2.9c1.9,0,4.6-2,8.9-5.4h0c0,1.3,0.4,2.5,1.1,3.5c0.8,0.9,1.9,1.4,3.1,1.3c1.9,0,4-1.1,5.6-2.2h0
		c0.4,3.9,3.9,6.8,8.3,6.8c6.9,0,14.5-3.6,23.6-11.3c0.1-0.1,0.1-0.2,0-0.3L212.1,35z M194.4,31.5c1.8,0,1.8,0.9,1.8,1.2
		c0,0.8-0.7,1.7-1.8,2.6c-2.7,1.9-6,2.7-9.3,2.2v0C187,34,191.4,31.5,194.4,31.5L194.4,31.5z M151,23c1.4-1.6,3.1-3.1,4.9-4.2
		c0.3-0.2,0.7,0.1,0.6,0.5c-0.8,3-6.4,9.1-14.4,15.4c0,0-0.1,0-0.2,0c-0.1,0-0.1-0.1,0-0.2C144.7,30.4,147.7,26.6,151,23L151,23z
		 M86.5,33.1c0.6-0.1,1.2,0.4,1.2,1c0,2.4-4.4,4.5-7.8,4.5c-0.4,0-0.8,0-1.2,0v0C80.4,35.6,83.9,33.1,86.5,33.1L86.5,33.1z
		 M72.7,23.4c5.8-6.8,10.9-11.1,12.7-11.7c0.2-0.1,0.5,0,0.7,0.1c0.3,0.2,0.4,0.5,0.3,0.8c-0.5,2.4-3.9,7.4-9.6,12.5
		c-3.3,3-7,5.5-11,7.5l0,0C67.8,29.4,70.1,26.3,72.7,23.4L72.7,23.4z M96,29l0.2,0.1c0.1,0.1,0.2,0,0.2-0.1l1.2-1.9
		c0.1-0.1,0-0.2-0.1-0.3c-0.1,0-0.1-0.1-0.2-0.1c-0.2-0.1-0.2-0.5,0-0.6c1.4-0.6,4.4-1.5,10.5-2.4c6.4-0.9,12.9-1.3,19.3-1.2
		c0.1,0,0.2-0.1,0.2-0.2l0.1-2.2c0-0.1-0.1-0.2-0.2-0.2c-11.7-0.4-29.5,1.9-32.6,4.8c-0.4,0.4-0.7,1-0.7,1.5
		C94.1,27.7,95,28.4,96,29L96,29z M96,29"/>
	<path class="st1" d="M140.9,55.6h-9.4c-0.2,0-0.4,0.2-0.5,0.4L127.5,73c0,0.1,0,0.3,0.1,0.4c0.1,0.1,0.2,0.2,0.4,0.2h9.4
		c0.2,0,0.4-0.2,0.5-0.4l3.6-17.1c0-0.1,0-0.3-0.1-0.4C141.2,55.6,141.1,55.6,140.9,55.6L140.9,55.6z M178.6,64.5
		c-1.2-2.8-2.4-5.4,1-8.1c0.2-0.1,0.2-0.4,0.1-0.6c-0.1-0.2-0.3-0.3-0.5-0.3h-8.7c-0.1,0-0.2,0-0.3,0.1c-4.4,3-3.1,6-1.8,9
		c1.2,2.8,2.3,5.4-0.9,8.1c-0.2,0.1-0.2,0.3-0.2,0.5c0.1,0.2,0.2,0.4,0.5,0.4h8.6c0.1,0,0.2,0,0.3,0c0.1,0,0.2-0.1,0.3-0.1
		C181.2,70.5,179.9,67.5,178.6,64.5L178.6,64.5z M73.2,55.6h-9.6c-0.1,0-0.3,0.1-0.4,0.2l-6.3,8.1c-0.1,0.1-0.4,0.1-0.4-0.1
		l-3.1-7.9c-0.1-0.2-0.3-0.3-0.5-0.3H44c-0.2,0-0.4,0.1-0.4,0.3L37.8,73c-0.1,0.2,0,0.3,0.1,0.5c0.1,0.1,0.3,0.2,0.4,0.2h2.8
		c0.2,0,0.4-0.1,0.5-0.3l3.7-11c0-0.1,0.1-0.2,0.2-0.2c0.1,0,0.2,0.1,0.2,0.2l4.3,11.1c0.1,0.1,0.2,0.2,0.3,0.2h3.2
		c0.1,0,0.3-0.1,0.4-0.2l8.8-11.4c0.1-0.2,0.4-0.1,0.4,0.2v10.9c0,0.3,0.2,0.5,0.5,0.5h9.4c0.3,0,0.5-0.2,0.5-0.5V56.1
		C73.7,55.8,73.4,55.6,73.2,55.6L73.2,55.6z M128.5,55.9c-0.1-0.2-0.2-0.3-0.4-0.3h-3.2c-0.1,0-0.3,0.1-0.4,0.2l-8.2,8.8
		c-0.1,0.1-0.3,0.1-0.4-0.1l-3.4-8.6c-0.1-0.2-0.3-0.3-0.4-0.3h-9.4c-0.2,0-0.3,0.1-0.4,0.2c-0.1,0.1-0.1,0.3-0.1,0.5l6.6,17.1
		c0.1,0.2,0.3,0.3,0.4,0.3h3.2c0.1,0,0.3-0.1,0.4-0.2l15.7-17.1C128.6,56.3,128.6,56,128.5,55.9L128.5,55.9z M164.5,55.6h-18.4
		c-0.2,0-0.4,0.2-0.5,0.4L142,73c0,0.1,0,0.3,0.1,0.4c0.1,0.1,0.2,0.2,0.4,0.2h18.4c0.2,0,0.4-0.2,0.5-0.4l0.5-2.3
		c0.1-0.3-0.2-0.6-0.5-0.6h-8.1c-0.1,0-0.1,0-0.2-0.1c0-0.1-0.1-0.1-0.1-0.2l0.8-3.6c0-0.1,0.1-0.2,0.2-0.2h8.4
		c0.2,0,0.4-0.2,0.5-0.4l0.5-2.3c0-0.1,0-0.3-0.1-0.4c-0.1-0.1-0.2-0.2-0.4-0.2h-8.1c-0.1,0-0.1,0-0.2-0.1c0-0.1-0.1-0.1-0.1-0.2
		l0.8-3.6c0-0.1,0.1-0.2,0.2-0.2h8.4c0.2,0,0.4-0.2,0.5-0.4l0.5-2.3c0-0.1,0-0.3-0.1-0.4C164.8,55.6,164.6,55.6,164.5,55.6
		L164.5,55.6z M89.7,54.6c-0.8,0-1.5,0.1-2.2,0.2c-6.9,1-12,6.1-11.3,11.5c0.6,4.8,5.6,8.2,11.7,8.2c0.8,0,1.5-0.1,2.2-0.2
		c3.2-0.4,6.2-1.8,8.5-4.1c2-1.9,3.1-4.7,2.8-7.5C100.8,58.1,95.8,54.6,89.7,54.6L89.7,54.6z M96.5,67.2c-1.1,1.7-2.9,2.7-4.9,2.7
		c-2.1,0-4-1.1-5-2.9c-1-1.8-1-4.1,0.2-5.8c1.1-1.7,2.9-2.7,4.9-2.7c2.1,0,4,1.1,5,2.9C97.7,63.2,97.6,65.4,96.5,67.2L96.5,67.2z
		 M96.5,67.2"/>
</g>
</svg>
