<?xml version="1.0" encoding="utf-8"?>
<!-- Generator: Adobe Illustrator 19.1.0, SVG Export Plug-In . SVG Version: 6.00 Build 0)  -->
<svg version="1.1" id="sports-logo-full" xmlns="http://www.w3.org/2000/svg" xmlns:xlink="http://www.w3.org/1999/xlink" x="0px"
	 y="0px" viewBox="-272 561.5 297 68" style="enable-background:new -272 561.5 297 68;" xml:space="preserve">
<style type="text/css">
	.st0{fill:#FFFFFF;}
	.st1{fill:#FF003C;}
	.st2{fill:#FFC300;}
	.st3{fill:#00AA32;}
	.st4{fill:#00A0F0;}
	.st5{fill:#964BA0;}
</style>
<g id="sports-logo-full_sports-logo" transform="translate(-82 -82)">
	<g id="sports-logo-full_sports-logo-full" transform="translate(82 82)">
		<path id="sports-logo-full_Shape" class="st0" d="M-246,609.2l4.2-5.8c3.2,2.7,7.9,4.5,12.2,4.5c3.3,0,5.6-1.1,5.6-3.4
			c0-2.4-1.9-3.3-6.7-4.2c-6.7-1.2-13.8-2.7-13.8-10.8c0-6.9,5.8-11,13.7-11c7.2,0,11.6,1.8,15.5,4.9l-4.2,5.9
			c-3.6-2.4-7.1-3.8-10.4-3.8c-3,0-4.8,1.2-4.8,3c0,2.1,1.9,2.9,6.3,3.7c6.9,1.2,14.3,2.7,14.3,10.6c0,8.4-7.4,11.7-15.5,11.7
			C-237.3,614.5-242.4,612.2-246,609.2z M-186.6,596.5c0-5.7-2-9.4-6.8-9.4c-2.7,0-5.1,1.6-6.9,3.4v12.7c2.3,2.1,4.2,3.2,7.1,3.2
			C-188.9,606.4-186.6,602.7-186.6,596.5L-186.6,596.5z M-189.5,578.5c8,0,13.5,6,13.5,17.9c0,11.9-5.6,17.7-13.7,17.7
			c-4.8,0-8.1-1.7-10.7-4.6v17H-211v-38c0-4.1-0.3-6.6-1-8.4l10.4-1.6c0.5,1.2,1,4.4,1,6.3C-198.3,581.8-194.7,578.5-189.5,578.5
			L-189.5,578.5z M-147.6,596.6c0-5.8-2-10.4-7.3-10.4c-5.1,0-7.4,4.2-7.4,10.4c0,5.8,2,10.6,7.4,10.6
			C-149.9,607.2-147.6,602.9-147.6,596.6z M-173,596.6c0-13.6,9.4-18,18-18c8.5,0,18,4.5,18,18c0,13.4-9.4,18-18,18
			C-163.5,614.5-173,610-173,596.6z M-121.6,585.2c1.9-2.9,5.4-6.7,11.3-6.7c0.5,0,1.3,0.1,1.3,0.1l-0.8,9.1
			c-0.1-0.1-1.8-0.2-2.4-0.2c-4.2,0-7.3,2.2-9.3,4.7v21.3H-132v-25c0-4.1-0.3-6.6-1-8.4l10.3-1.6c0.5,1.2,1,4.8,1,6.7H-121.6z
			 M-87.8,605.3c1.8,0,3.9-0.4,4.8-0.6l2,7.4c-1.8,0.6-4.7,1.5-9.9,1.5c-10.4,0-10.6-5.5-10.6-11.9v-14.3h-5.5l0.6-8.8h4.9v-9.1
			l10.5-1.9v11h9v8.8h-9v13.3C-90.9,603.7-90.2,605.3-87.8,605.3L-87.8,605.3z M-80,609.2l4.2-5.8c3.2,2.7,7.9,4.5,12.2,4.5
			c3.3,0,5.6-1.1,5.6-3.4c0-2.4-1.9-3.3-6.7-4.2c-6.7-1.2-13.8-2.7-13.8-10.8c0-6.9,5.8-11,13.7-11c7.2,0,11.6,1.8,15.5,4.9
			l-4.2,5.9c-3.6-2.4-7.1-3.8-10.4-3.8c-3,0-4.8,1.2-4.8,3c0,2.1,1.9,2.9,6.3,3.7c6.9,1.2,14.3,2.7,14.3,10.6
			c0,8.4-7.4,11.7-15.5,11.7C-71.3,614.5-76.4,612.2-80,609.2z M-23.6,585.2c1.9-2.9,5.4-6.7,11.3-6.7c0.5,0,1.3,0.1,1.3,0.1
			l-0.8,9.1c-0.1-0.1-1.8-0.2-2.4-0.2c-4.2,0-7.3,2.2-9.3,4.7v21.3H-34v-25c0-4.1-0.3-6.6-1-8.4l10.3-1.6c0.5,1.2,1,4.8,1,6.7H-23.6
			z M13.4,608.2c-2.1,2.7-6,6.4-12.2,6.4c-6,0-10.3-2.9-10.3-10.1v-25.9H1.6v22.9c0,3.1,1.2,4.8,4.1,4.8c2.8,0,5.3-1.5,7.6-3.5
			v-24.2h10.6v25.2c0,4.2,0.3,7.3,1.1,9.1l-10.6,1.7c-0.5-1.4-0.9-4.6-0.9-6.4H13.4z"/>
		<path id="sports-logo-full_Shape_1_" class="st1" d="M-266,573.5c-3.3,0-6-2.8-6-6.1c0-3.3,2.7-5.9,6-5.9c3.3,0,6,2.6,6,5.9
			C-260,570.8-262.7,573.5-266,573.5"/>
		<path id="sports-logo-full_Shape_2_" class="st2" d="M-266,587.5c-3.3,0-6-2.8-6-6.1c0-3.3,2.7-5.9,6-5.9c3.3,0,6,2.6,6,5.9
			C-260,584.8-262.7,587.5-266,587.5"/>
		<path id="sports-logo-full_Shape_3_" class="st3" d="M-266,601.5c-3.3,0-6-2.8-6-6.1c0-3.3,2.7-5.9,6-5.9c3.3,0,6,2.6,6,5.9
			C-260,598.8-262.7,601.5-266,601.5"/>
		<path id="sports-logo-full_Shape_4_" class="st4" d="M-266,615.5c-3.3,0-6-2.8-6-6.1c0-3.3,2.7-5.9,6-5.9c3.3,0,6,2.6,6,5.9
			C-260,612.8-262.7,615.5-266,615.5"/>
		<path id="sports-logo-full_Shape_5_" class="st0" d="M-42,614.5c-3.3,0-6-2.8-6-6.1c0-3.3,2.7-5.9,6-5.9c3.3,0,6,2.6,6,5.9
			C-36,611.8-38.7,614.5-42,614.5"/>
		<path id="sports-logo-full_Shape_6_" class="st5" d="M-266,629.5c-3.3,0-6-2.8-6-6.1c0-3.3,2.7-5.9,6-5.9c3.3,0,6,2.6,6,5.9
			C-260,626.8-262.7,629.5-266,629.5"/>
	</g>
</g>
</svg>
