<?xml version="1.0" encoding="utf-8"?>
<!-- Generator: Adobe Illustrator 19.1.0, SVG Export Plug-In . SVG Version: 6.00 Build 0)  -->
<svg version="1.1" id="_x31_" xmlns="http://www.w3.org/2000/svg" xmlns:xlink="http://www.w3.org/1999/xlink" x="0px" y="0px"
	 viewBox="0 0 331 117.3" style="enable-background:new 0 0 331 117.3;" xml:space="preserve">
<style type="text/css">
	.st0{fill-rule:evenodd;clip-rule:evenodd;fill:#002F9E;}
	.st1{fill-rule:evenodd;clip-rule:evenodd;fill:#FEFEFE;}
	.st2{fill-rule:evenodd;clip-rule:evenodd;fill:#E31E24;}
	.st3{fill-rule:evenodd;clip-rule:evenodd;fill:#FF0101;}
	.st4{fill-rule:evenodd;clip-rule:evenodd;fill:#FF0001;}
</style>
<rect x="0" y="0" class="st0" width="331" height="58.1"/>
<path class="st1" d="M128,42.2c3.6,0,6.5-1,8.8-3c2.2-1.8,3.7-4.1,4.4-6.9c0.8-2.7,0.6-5-0.6-6.9c-1.2-1.9-3.5-2.9-7.1-2.9
	c-3.6,0-6.5,1-8.7,2.9c-2.2,1.9-3.7,4.2-4.4,6.9c-0.8,2.8-0.6,5.1,0.6,6.9C122.1,41.2,124.4,42.2,128,42.2L128,42.2z M129.4,37.4
	c-1.1,0-1.9-0.4-2.2-1.4c-0.3-0.9-0.3-2.1,0.1-3.7c0.4-1.5,1.1-2.7,1.9-3.7c0.9-0.9,1.9-1.3,3-1.3c1.1,0,1.9,0.4,2.2,1.3
	c0.3,1,0.3,2.2-0.1,3.7c-0.5,1.6-1.1,2.8-1.9,3.7C131.5,37,130.5,37.4,129.4,37.4z"/>
<path class="st1" d="M307.1,36.4c-1,0-1.6-0.4-1.9-1.2c-0.4-0.8-0.4-1.8,0-3.1c0.4-1.3,1-2.4,1.8-3.1c0.7-0.8,1.6-1.1,2.5-1.2
	c2.1,0,2.8,1.5,2.1,4.4c-0.4,1.3-0.9,2.3-1.7,3.1C309,36.1,308.1,36.4,307.1,36.4L307.1,36.4L307.1,36.4z M300.8,22.9l-7,24.9h7.2
	l2.3-8.2c0.8,1.6,2.1,2.4,3.9,2.4c2.2,0,4.4-0.7,6.7-2.3c1-0.8,2-1.8,2.9-3.1c0.8-1.1,1.5-2.7,2.1-4.5c0.7-2.6,0.7-4.9-0.2-6.8
	c-0.9-1.9-2.7-2.9-5.5-2.9c-1.1,0-2.2,0.3-3.4,0.8c-1.2,0.5-2.3,1.4-3.2,2.5h-0.1l0.8-2.8H300.8z"/>
<path class="st1" d="M294.9,33.9c1-3.4,0.9-6.2-0.4-8.3c-1.2-2.1-3.6-3.2-7-3.2c-2.9,0-5.6,0.9-8,2.7c-2.5,1.8-4.2,4.2-5.1,7.4
	c-0.8,3-0.5,5.4,1,7c1.4,1.7,3.6,2.5,6.6,2.5c2.2,0,4.3-0.4,6.5-1.3c2.2-0.9,3.9-2.5,5.3-4.8h-6.9c-0.3,0.5-0.9,0.9-1.4,1.2
	c-0.5,0.3-1.1,0.4-1.7,0.4c-1,0-1.7-0.3-2.2-1c-0.5-0.7-0.6-1.5-0.3-2.6H294.9L294.9,33.9z M282.3,30.2c0.6-2.1,2-3.2,4.2-3.3
	c0.9,0.1,1.6,0.4,1.9,1c0.4,0.6,0.6,1.4,0.4,2.3H282.3z"/>
<polygon class="st1" points="257.9,41.6 261.6,28.3 255.4,28.3 257,22.9 276.6,22.9 275,28.3 268.8,28.3 265.1,41.6 "/>
<path class="st1" d="M254.5,30c0.4-2.7-0.2-4.7-1.7-5.9c-1.6-1.1-3.6-1.7-6-1.7c-3.1,0-5.7,0.8-8.1,2.6c-2.4,1.7-4.1,4.2-5,7.4
	c-0.9,3.1-0.6,5.5,1,7.2c1.5,1.6,3.6,2.5,6.6,2.5c2.5,0,5-0.6,7.1-1.8c1.1-0.6,2.1-1.4,3-2.4c0.9-1,1.5-2.2,2.1-3.6h-7.2
	c-0.3,0.8-0.8,1.4-1.3,1.9c-0.6,0.6-1.4,0.9-2.3,0.9c-1.1,0-1.8-0.4-2-1.3c-0.3-0.8-0.3-1.9,0.2-3.4c0.1-0.5,0.4-1.1,0.7-1.7
	c0.3-0.6,0.5-1.2,0.9-1.7c0.3-0.5,0.9-0.9,1.3-1.2c0.5-0.3,1-0.5,1.7-0.5c0.8,0,1.3,0.3,1.6,0.8c0.4,0.4,0.4,1.1,0.3,1.9H254.5z"/>
<path class="st1" d="M219.5,37.9c-1.6,0-2.3-0.5-2-1.5c0.2-0.6,0.5-1.1,1-1.4c0.5-0.3,0.9-0.5,1.6-0.6c0.6-0.2,1.3-0.3,1.9-0.4
	c0.8-0.2,1.4-0.4,2.2-0.6c-0.3,1.3-0.7,2.3-1.5,3.2C221.8,37.5,220.8,37.9,219.5,37.9L219.5,37.9z M230,41.5l0.1-0.3
	c-0.4-0.4-0.5-0.8-0.5-1.2c0-0.3,0-0.7,0.1-1.2l2.5-8.7c0.3-1.1,0.6-2.1,0.7-3.1c0.2-0.9,0-1.7-0.4-2.4c-0.4-0.7-1.2-1.2-2.4-1.6
	c-1.2-0.4-2.8-0.6-5-0.6c-3.4,0-6.2,0.6-8.1,1.6c-1.9,1.1-3.1,2.7-3.6,4.7h7.1c0.4-0.8,0.9-1.3,1.5-1.6c0.7-0.2,1.1-0.3,1.6-0.3
	c0.5,0,1,0.1,1.5,0.3c0.4,0.2,0.6,0.6,0.5,1.3c-0.3,0.8-1.2,1.3-2.5,1.5c-0.6,0.1-1.4,0.2-2.1,0.3c-0.8,0.1-1.7,0.2-2.6,0.4
	c-0.8,0-1.7,0.2-2.4,0.5c-0.9,0.2-1.8,0.6-2.5,1c-0.7,0.4-1.4,1-2,1.7c-0.6,0.7-1.1,1.6-1.4,2.7c-0.5,1.8-0.2,3.2,0.8,4.1
	c0.9,1,2.3,1.4,4,1.4c1.4,0,2.6-0.1,3.7-0.5c1.2-0.4,2.4-1.1,3.7-2l-0.2,2H230z"/>
<polygon class="st1" points="167.9,41.6 171.6,28.3 165.3,28.3 166.8,22.9 186.5,22.9 185,28.3 178.7,28.3 175,41.6 "/>
<path class="st1" d="M152.1,36.4c-1,0-1.6-0.4-1.9-1.2c-0.4-0.8-0.4-1.8,0-3.1c0.4-1.3,1-2.4,1.8-3.1c0.7-0.8,1.6-1.1,2.5-1.2
	c2.1,0,2.8,1.5,2.1,4.4c-0.4,1.3-0.9,2.3-1.7,3.1C154,36.1,153.1,36.4,152.1,36.4L152.1,36.4L152.1,36.4z M145.8,22.9l-7,24.9h7.2
	l2.3-8.2c0.8,1.6,2.1,2.4,3.9,2.4c2.2,0,4.4-0.7,6.7-2.3c1-0.8,2-1.8,2.9-3.1c0.8-1.1,1.5-2.7,2.1-4.5c0.7-2.6,0.7-4.9-0.2-6.8
	c-0.9-1.9-2.7-2.9-5.5-2.9c-1.1,0-2.2,0.3-3.4,0.8c-1.2,0.5-2.3,1.4-3.2,2.5h-0.1l0.8-2.8H145.8z"/>
<polygon class="st1" points="95.3,41.6 102.5,41.6 106.2,28.3 111.9,28.3 108.2,41.6 115.4,41.6 120.6,22.9 100.6,22.9 "/>
<path class="st1" d="M96.4,30c0.4-2.7-0.2-4.7-1.7-5.9c-1.6-1.1-3.6-1.7-6-1.7c-3.1,0-5.7,0.8-8.1,2.6c-2.4,1.7-4.1,4.2-5,7.4
	c-0.9,3.1-0.5,5.5,1,7.2c1.5,1.6,3.6,2.5,6.6,2.5c2.5,0,5-0.6,7.1-1.8c1.1-0.6,2.1-1.4,3-2.4c0.9-1,1.5-2.2,2.1-3.6h-7.2
	c-0.3,0.8-0.8,1.4-1.3,1.9c-0.6,0.6-1.4,0.9-2.3,0.9c-1.1,0-1.8-0.4-2-1.3c-0.3-0.8-0.3-1.9,0.2-3.4c0.1-0.5,0.4-1.1,0.7-1.7
	c0.3-0.6,0.5-1.2,0.9-1.7c0.3-0.5,0.9-0.9,1.3-1.2c0.5-0.3,1-0.5,1.7-0.5c0.8,0,1.3,0.3,1.6,0.8c0.4,0.4,0.4,1.1,0.3,1.9H96.4z"/>
<polygon class="st2" points="190,17.1 195,40 212.9,16.9 198.6,27 "/>
<polygon class="st1" points="188.6,22.9 183.2,41.6 192.5,41.6 "/>
<polygon class="st1" points="211.2,22.9 197,41.6 205.9,41.6 "/>
<polygon class="st2" points="73.9,13.1 56.5,32.9 17.8,13.3 54.4,21 "/>
<polygon class="st1" points="21.2,52.1 41.7,28.9 87,51.9 44.1,42.8 "/>
<path class="st1" d="M53.2,6c-3.4,0.3-5.9,3.2-5.6,6.6c0.3,3.4,3.2,5.9,6.6,5.6c3.4-0.3,5.9-3.2,5.6-6.6C59.5,8.2,56.6,5.7,53.2,6z"
	/>
<path class="st1" d="M132.3,102.4c3.6,0,6.5-1,8.8-3c2.2-1.8,3.7-4.1,4.4-6.9c0.8-2.7,0.6-5-0.6-6.9c-1.2-1.9-3.5-2.9-7.1-2.9
	c-3.6,0-6.5,1-8.7,2.9c-2.2,1.9-3.7,4.2-4.4,6.9c-0.8,2.8-0.6,5.1,0.6,6.9C126.3,101.4,128.7,102.4,132.3,102.4L132.3,102.4z
	 M133.6,97.6c-1.1,0-1.9-0.4-2.2-1.4c-0.3-0.9-0.3-2.1,0.1-3.7c0.4-1.5,1.1-2.7,1.9-3.7c0.9-0.9,1.9-1.3,3-1.3
	c1.1,0,1.9,0.4,2.2,1.3c0.3,1,0.3,2.2-0.1,3.7c-0.5,1.6-1.1,2.8-1.9,3.7C135.7,97.2,134.7,97.6,133.6,97.6z"/>
<path class="st1" d="M311.3,96.6c-1,0-1.6-0.4-1.9-1.2c-0.4-0.8-0.4-1.8,0-3.1c0.4-1.3,1-2.4,1.8-3.1c0.7-0.8,1.6-1.1,2.5-1.2
	c2.1,0,2.8,1.5,2.1,4.4c-0.4,1.3-0.9,2.3-1.7,3.1C313.2,96.3,312.3,96.6,311.3,96.6L311.3,96.6L311.3,96.6z M305,83.1l-7,24.9h7.2
	l2.3-8.2c0.8,1.6,2.1,2.4,3.9,2.4c2.2,0,4.4-0.7,6.7-2.3c1-0.8,2-1.8,2.9-3.1c0.8-1.1,1.5-2.7,2.1-4.5c0.7-2.6,0.7-4.9-0.2-6.8
	c-0.9-1.9-2.7-2.9-5.5-2.9c-1.1,0-2.2,0.3-3.4,0.8c-1.2,0.5-2.3,1.4-3.2,2.5h-0.1l0.8-2.8H305z"/>
<path class="st1" d="M299.1,94.1c1-3.4,0.9-6.2-0.4-8.3c-1.2-2.1-3.6-3.2-7-3.2c-2.9,0-5.6,0.9-8,2.7c-2.5,1.8-4.2,4.2-5.1,7.4
	c-0.8,3-0.5,5.4,1,7c1.4,1.7,3.6,2.5,6.6,2.5c2.2,0,4.3-0.4,6.5-1.3c2.2-0.9,3.9-2.5,5.3-4.8h-6.9c-0.3,0.5-0.9,0.9-1.4,1.2
	c-0.5,0.3-1.1,0.4-1.7,0.4c-1,0-1.7-0.3-2.2-1c-0.5-0.7-0.6-1.5-0.3-2.6H299.1L299.1,94.1z M286.5,90.4c0.6-2.1,2-3.2,4.2-3.3
	c0.9,0.1,1.6,0.4,1.9,1c0.4,0.6,0.6,1.4,0.4,2.3H286.5z"/>
<polygon class="st1" points="262.1,101.8 265.9,88.5 259.7,88.5 261.2,83.1 280.8,83.1 279.3,88.5 273.1,88.5 269.3,101.8 "/>
<path class="st1" d="M258.7,90.2c0.4-2.7-0.2-4.7-1.7-5.9c-1.6-1.1-3.6-1.7-6-1.7c-3.1,0-5.7,0.8-8.1,2.6c-2.4,1.7-4.1,4.2-5,7.4
	c-0.9,3.1-0.6,5.5,1,7.2c1.5,1.6,3.6,2.5,6.6,2.5c2.5,0,5-0.6,7.1-1.8c1.1-0.6,2.1-1.4,3-2.4c0.9-1,1.5-2.2,2.1-3.6h-7.2
	c-0.3,0.8-0.8,1.4-1.3,1.9c-0.6,0.6-1.4,0.9-2.3,0.9c-1.1,0-1.8-0.4-2-1.3c-0.3-0.8-0.3-1.9,0.2-3.4c0.1-0.5,0.4-1.1,0.7-1.7
	c0.3-0.6,0.5-1.2,0.9-1.7c0.3-0.5,0.9-0.9,1.3-1.2c0.5-0.3,1-0.5,1.7-0.5c0.8,0,1.3,0.3,1.6,0.8c0.4,0.4,0.4,1.1,0.3,1.9H258.7z"/>
<path class="st1" d="M223.7,98.1c-1.6,0-2.3-0.5-2-1.5c0.2-0.6,0.5-1.1,1-1.4c0.5-0.3,0.9-0.5,1.6-0.6c0.6-0.2,1.3-0.3,1.9-0.4
	c0.8-0.2,1.4-0.4,2.2-0.6c-0.3,1.3-0.7,2.3-1.5,3.2C226,97.7,225,98.1,223.7,98.1L223.7,98.1z M234.2,101.7l0.1-0.3
	c-0.4-0.4-0.5-0.8-0.5-1.2c0-0.3,0-0.7,0.1-1.2l2.5-8.7c0.3-1.1,0.6-2.1,0.7-3.1c0.2-0.9,0-1.7-0.4-2.4c-0.4-0.7-1.2-1.2-2.4-1.6
	c-1.2-0.4-2.8-0.6-5-0.6c-3.4,0-6.2,0.6-8.1,1.6c-1.9,1.1-3.1,2.7-3.6,4.7h7.1c0.4-0.8,0.9-1.3,1.5-1.6c0.7-0.2,1.1-0.3,1.6-0.3
	c0.5,0,1,0.1,1.5,0.3c0.4,0.2,0.6,0.6,0.5,1.3c-0.3,0.8-1.2,1.3-2.5,1.5c-0.6,0.1-1.4,0.2-2.1,0.3c-0.8,0.1-1.7,0.2-2.6,0.4
	c-0.8,0-1.7,0.2-2.4,0.5c-0.9,0.2-1.8,0.6-2.5,1c-0.7,0.4-1.4,1-2,1.7c-0.6,0.7-1.1,1.6-1.4,2.7c-0.5,1.8-0.2,3.2,0.8,4.1
	c0.9,1,2.3,1.4,4,1.4c1.4,0,2.6-0.1,3.7-0.5c1.2-0.4,2.4-1.1,3.7-2l-0.2,2H234.2z"/>
<polygon class="st1" points="172.1,101.8 175.8,88.5 169.5,88.5 171.1,83.1 190.8,83.1 189.3,88.5 182.9,88.5 179.2,101.8 "/>
<path class="st1" d="M156.3,96.6c-1,0-1.6-0.4-1.9-1.2c-0.4-0.8-0.4-1.8,0-3.1c0.4-1.3,1-2.4,1.8-3.1c0.7-0.8,1.6-1.1,2.5-1.2
	c2.1,0,2.8,1.5,2.1,4.4c-0.4,1.3-0.9,2.3-1.7,3.1C158.2,96.3,157.3,96.6,156.3,96.6L156.3,96.6L156.3,96.6z M150,83.1l-7,24.9h7.2
	l2.3-8.2c0.8,1.6,2.1,2.4,3.9,2.4c2.2,0,4.4-0.7,6.7-2.3c1-0.8,2-1.8,2.9-3.1c0.8-1.1,1.5-2.7,2.1-4.5c0.7-2.6,0.7-4.9-0.2-6.8
	c-0.9-1.9-2.7-2.9-5.5-2.9c-1.1,0-2.2,0.3-3.4,0.8c-1.2,0.5-2.3,1.4-3.2,2.5h-0.1l0.8-2.8H150z"/>
<polygon class="st1" points="99.6,101.8 106.7,101.8 110.4,88.5 116.1,88.5 112.4,101.8 119.6,101.8 124.9,83.1 104.8,83.1 "/>
<path class="st1" d="M100.6,90.2c0.4-2.7-0.2-4.7-1.7-5.9c-1.6-1.1-3.6-1.7-6-1.7c-3.1,0-5.7,0.8-8.1,2.6c-2.4,1.7-4.1,4.2-5,7.4
	c-0.9,3.1-0.5,5.5,1,7.2c1.5,1.6,3.6,2.5,6.6,2.5c2.5,0,5-0.6,7.1-1.8c1.1-0.6,2.1-1.4,3-2.4c0.9-1,1.5-2.2,2.1-3.6h-7.2
	c-0.3,0.8-0.8,1.4-1.3,1.9c-0.6,0.6-1.4,0.9-2.3,0.9c-1.1,0-1.8-0.4-2-1.3c-0.3-0.8-0.3-1.9,0.2-3.4c0.1-0.5,0.4-1.1,0.7-1.7
	c0.3-0.6,0.5-1.2,0.9-1.7c0.3-0.5,0.9-0.9,1.3-1.2c0.5-0.3,1-0.5,1.7-0.5c0.8,0,1.3,0.3,1.6,0.8c0.4,0.4,0.4,1.1,0.3,1.9H100.6z"/>
<polygon class="st3" points="194.3,77.3 199.2,100.2 217.1,77.1 202.8,87.1 "/>
<polygon class="st1" points="192.8,83.1 187.5,101.7 196.7,101.7 "/>
<polygon class="st1" points="215.4,83.1 201.2,101.7 210.1,101.7 "/>
<polygon class="st4" points="78.1,73.3 60.7,93.1 22,73.5 58.6,81.2 "/>
<polygon class="st1" points="25.5,112.2 45.9,89.1 91.3,112.1 48.4,103 "/>
<path class="st1" d="M57.4,66.1c-3.4,0.3-5.9,3.2-5.6,6.6c0.3,3.4,3.2,5.9,6.6,5.6c3.4-0.3,5.9-3.2,5.6-6.6
	C63.7,68.4,60.8,65.9,57.4,66.1z"/>
</svg>
