<svg xmlns="http://www.w3.org/2000/svg" viewBox="0 0 149.477 55.998"><g transform="translate(-245 -485)"><path d="M2613.572-4500.273l-1.661,1.412-1.672,9.484,1.112,1.35h6.474l1.659-1.4.427-2.421h-2.835l-.29,1.644h-3.436l1.39-7.884h3.436l-.219,1.244h2.833l.366-2.074-1.119-1.354Z" transform="translate(-2232.504 5021.187)" fill="#fff"></path><path d="M2512.656-4500.273h-6.465l-1.661,1.408-.356,2.021h2.965l.219-1.244h3.436l-.529,3h-2.271l-.392,2.22h2.271l-.469,2.664h-3.436l.289-1.644h-2.964l-.437,2.475,1.112,1.348h6.473l1.659-1.4,1.672-9.483Z" transform="translate(-2204.61 5021.187)" fill="#fff"></path><path d="M2538.382-4498.089h3.436l-.219,1.244h2.833l.366-2.074-1.12-1.354h-6.464l-1.661,1.412-1.672,9.484,1.112,1.35h6.473l1.659-1.4.426-2.421h-2.833l-.29,1.644h-3.436Z" transform="translate(-2212.669 5021.187)" fill="#fff"></path><path d="M2551.854-4500.272l-.562.475-2.075,11.77h2.965l1.774-10.061h3.436l-1.774,10.061h2.834l2.085-11.823-.354-.422Z" transform="translate(-2216.652 5021.187)" fill="#fff"></path><path d="M2575-4500.268h-7.4l-.563.476-2.075,11.766h2.964l.592-3.356h4.854l1.665-1.413,1.079-6.118Zm-2.649,6.644h-3.436l.786-4.46h3.436Z" transform="translate(-2220.744 5021.185)" fill="#fff"></path><path d="M2584.508-4492.869h3.191l.392-2.22H2584.9l.529-3h5.176l.385-2.184h-6.729l-1.661,1.412-1.672,9.484,1.112,1.35h6.791l.384-2.179h-5.176Z" transform="translate(-2224.89 5021.187)" fill="#fff"></path><path d="M2530-4500.282h-2.965l-2.972,5.188h-1.275l.914-5.184h-2.964l-2.16,12.244h2.965l.854-4.84h1.315l1.123,4.843h3.194l-1.6-6.016Z" transform="translate(-2208.693 5021.189)" fill="#fff"></path><path d="M2602.561-4496.845h2.834l.366-2.074-1.119-1.354h-6.465l-1.661,1.412-1.672,9.484,1.112,1.35h6.472l1.659-1.4.426-2.421h-2.833l-.29,1.644h-3.436l1.39-7.884h3.436Z" transform="translate(-2228.505 5021.187)" fill="#fff"></path><path d="M2519.721-4514.463l2.723-2.3.7-3.993h-4.681l-.473,2.682h-5.547l2.258-12.806h5.547l-.358,2.032h4.682l.6-3.421-1.842-2.229h-10.572l-2.726,2.317-2.732,15.494,1.832,2.224Z" transform="translate(-2205.766 5030.076)" fill="#fff"></path><path d="M2588.229-4514.461l.966-5.475h7.906l2.732-2.321,1.763-10-1.842-2.229H2587.66l-.934.789-3.392,19.238Zm2.894-16.409h5.546l-1.273,7.221h-5.547Z" transform="translate(-2225.515 5030.074)" fill="#fff"></path><path d="M2613.163-4534.483l-.933.789-.5,2.83h5.235l-2.893,16.405h4.865l2.893-16.405h5.023l.513-2.91-.6-.709Z" transform="translate(-2232.892 5030.073)" fill="#fff"></path><path d="M2537.163-4514.463l2.895-16.416h5.547l-2.894,16.416h4.682l3.408-19.324-.6-.71h-13.609l-.934.79-3.393,19.244Z" transform="translate(-2212.25 5030.076)" fill="#fff"></path><path d="M2560.121-4514.462h10.585l2.721-2.3,2.734-15.5-1.843-2.23h-10.572l-2.725,2.318-2.732,15.494Zm5.567-16.413h5.546l-2.256,12.8h-5.548Z" transform="translate(-2219.01 5030.075)" fill="#fff"></path><g transform="translate(245 485)"><path d="M2477.093-4542.622l-4.433-5.382-.646-.784h-32.69l-.314,1.78-7.794,44.206-.292,1.653,1.531.687,16.289,7.306.821.367.019-.007.82-.317,18.965-7.343,1.132-.439.211-1.2,6.839-38.787.172-.977Z" transform="translate(-2430.926 4548.788)" fill="#e83b35"></path><g transform="translate(7.64 7.806)"><path d="M2463.571-4517.266c-.126-.031-.251-.064-.374-.1a8.489,8.489,0,0,1-1.226-.488q-.272-.132-.535-.278a9.13,9.13,0,0,1-.177,1.62,3.212,3.212,0,0,1-3.242-1.372,2.429,2.429,0,0,1-.3-.949,2.721,2.721,0,0,1,0-.529,3.864,3.864,0,0,1,.719-1.857,10.85,10.85,0,0,0-3.641.66,16.1,16.1,0,0,0-4.438,2.487c-.433.333-.85.689-1.257,1.06a27.08,27.08,0,0,1,3.121.536,27.289,27.289,0,0,0-10.969,10.728l-.011.02.017-.008a29.313,29.313,0,0,1,10.1-2.555,28.7,28.7,0,0,0-6.254,7.678,15.6,15.6,0,0,0,2.263,1.643,22.984,22.984,0,0,1,5.214-1.949,19.158,19.158,0,0,1,11.01.248,11.693,11.693,0,0,0,2.791-4.665,17.135,17.135,0,0,1-3.6-4.682,12.935,12.935,0,0,1-.788-1.876c.132.071.265.139.4.2a11.219,11.219,0,0,0,3.227.923,11.242,11.242,0,0,0,.85-3.247,6.4,6.4,0,0,0-.419-3.157A5.65,5.65,0,0,1,2463.571-4517.266Z" transform="translate(-2441.246 4533.821)" fill="#fff"></path><path d="M2474.4-4519.173a5.888,5.888,0,0,1-1.418.049c.329.152.7.324,1.075.546a6.357,6.357,0,0,1,2.015,1.832,4.088,4.088,0,0,0-.3-2.9A3.549,3.549,0,0,1,2474.4-4519.173Z" transform="translate(-2449.489 4533.414)" fill="#fff"></path><path d="M2470.647-4520.107c-.019-.073-.042-.155-.074-.255l-.012-.038-.038.008a.765.765,0,0,1-.6-.126.766.766,0,0,1-.175-1.067.727.727,0,0,1,.1-.114l.026-.026-.045-.065c-.016-.022-.031-.045-.048-.067-.065-.088-.138-.18-.229-.287-.11-.131-.21-.242-.305-.338l-.024-.024-.029.018a.97.97,0,0,0-.1.071l-.034.028a1.332,1.332,0,0,0-.273.277,1.4,1.4,0,0,0-.247,1.05,1.415,1.415,0,0,0,.444.81l.031.029a.982.982,0,0,0,.1.082,1.4,1.4,0,0,0,.822.263,1.415,1.415,0,0,0,.69-.179l.029-.016Z" transform="translate(-2448.332 4534.156)" fill="#fff"></path><path d="M2459.939-4530.814c.382.389.762.776,1.146,1.156.444.44.9.864,1.35,1.249l.192.164a3,3,0,0,1,1.874-.5,4.163,4.163,0,0,1,1.506.383c.151.07.3.148.447.235-.017-.057-.035-.113-.053-.17-.067-.216-.139-.431-.213-.647l-.113-.325a7.069,7.069,0,0,1,1.975,1.1c.047.036.093.076.138.114.1.076.192.152.286.235.111.1.222.2.331.3s.218.219.324.333c.076.079.153.159.226.243.04.045.078.094.117.138.1.115.2.23.291.351.261,0,.538-.023.824-.052a9.738,9.738,0,0,0,1.1-.181,9.235,9.235,0,0,0,2.513-.973,15.9,15.9,0,0,0-1.414-5.382,15.53,15.53,0,0,0-.91-1.6,2.536,2.536,0,0,0-.765.6,3.955,3.955,0,0,0-.594.947l0,.007-.088.223,0,0-.005.015c-.026-.042-.051-.083-.077-.124l-.085-.109a34.985,34.985,0,0,0-4.939-5.169,4.081,4.081,0,0,0-.323,1.411,7.383,7.383,0,0,0,.047,1.341l.027.1-.013-.007v0c-.046-.027-.093-.05-.14-.076a52.63,52.63,0,0,0-5.475-2.39,5.118,5.118,0,0,0,.195,1.97,11.3,11.3,0,0,0,1.012,2.423c.2.365.42.721.648,1.071a5.833,5.833,0,0,0-2.128.789C2459.425-4531.341,2459.682-4531.078,2459.939-4530.814Z" transform="translate(-2445.901 4538.243)" fill="#fff"></path></g></g></g></svg>