<?xml version="1.0" encoding="utf-8"?>
<!-- Generator: Adobe Illustrator 19.1.0, SVG Export Plug-In . SVG Version: 6.00 Build 0)  -->
<svg version="1.1" id="Layer_1" xmlns="http://www.w3.org/2000/svg" xmlns:xlink="http://www.w3.org/1999/xlink" x="0px" y="0px"
	 viewBox="-420 595.5 152 46" style="enable-background:new -420 595.5 152 46;" xml:space="preserve">
<style type="text/css">
	.st0{fill:#AAAAAA;}
	.st1{fill:#FF6000;}
	.st2{fill:#FFFFFF;}
</style>
<rect x="-314" y="595.5" class="st0" width="46" height="46"/>
<rect x="-420" y="595.5" class="st1" width="104" height="46"/>
<rect x="-317.9" y="622.5" class="st2" width="6" height="6"/>
<g>
	<g>
		<path class="st2" d="M-406.9,612.8c0.3-0.6,0.7-1,1-1.4c0.4-0.3,0.8-0.6,1.2-0.8c0.4-0.2,0.8-0.3,1.2-0.4s0.7-0.1,1-0.1
			c0.7,0,1.2,0.1,1.7,0.2c0.5,0.1,0.9,0.3,1.3,0.5s0.6,0.4,0.9,0.7c0.2,0.3,0.4,0.5,0.6,0.8c0.2,0.3,0.3,0.6,0.4,0.8
			c0.1,0.3,0.2,0.5,0.2,0.7h4.6c0-0.5-0.1-1-0.3-1.6c-0.2-0.6-0.4-1.1-0.7-1.7s-0.7-1.1-1.2-1.7c-0.5-0.5-1.1-1-1.8-1.4
			c-0.7-0.4-1.5-0.8-2.4-1c-0.9-0.2-2-0.4-3.2-0.4c-0.8,0-1.7,0.1-2.5,0.3c-0.8,0.2-1.6,0.5-2.3,0.9c-0.7,0.4-1.4,0.9-2.1,1.5
			c-0.6,0.6-1.2,1.4-1.6,2.2c-0.5,0.9-0.8,1.8-1.1,2.9c-0.3,1.1-0.4,2.3-0.4,3.7c0,1.8,0.2,3.3,0.7,4.8c0.4,1.4,1.1,2.6,2,3.6
			c0.9,1,1.9,1.8,3.2,2.3s2.7,0.8,4.4,0.8c1.2,0,2.3-0.2,3.3-0.5c1-0.3,2-0.8,2.8-1.5c0.8-0.7,1.5-1.5,2.1-2.5c0.6-1,1-2.2,1.2-3.6
			h-4.6c-0.1,0.3-0.2,0.8-0.4,1.2s-0.5,0.9-0.8,1.3c-0.4,0.4-0.9,0.8-1.5,1.1c-0.6,0.3-1.4,0.4-2.4,0.4c-0.8,0-1.6-0.2-2.3-0.5
			c-0.7-0.3-1.2-0.8-1.7-1.5c-0.5-0.6-0.8-1.4-1.1-2.4c-0.3-0.9-0.4-2-0.4-3.2c0-1.1,0.1-2,0.3-2.8
			C-407.5,614-407.2,613.3-406.9,612.8z M-391.1,615.8h4.9v12.9h4.2v-12.9h4.9v-3.4h-14.1V615.8z M-370,622.4L-370,622.4l-0.1-10.1
			h-4.2v16.3h4.6l5.8-9.8h0.1v9.8h4.2v-16.3h-4.5L-370,622.4z M-341.2,612.3h-5.1l-2.7,4.8l-2.7-4.8h-5.2l5.3,8l-5.5,8.3h5.2
			l2.9-4.9l2.7,4.9h5.3l-5.6-8.3L-341.2,612.3z M-334.2,622.4L-334.2,622.4l-0.1-10.1h-4.2v16.3h4.6l5.8-9.8h0.1v9.8h4.2v-16.3h-4.5
			L-334.2,622.4z M-292.1,615.2c-0.3-0.6-0.7-1.1-1.2-1.6c-0.4-0.4-0.9-0.8-1.4-1c-0.5-0.3-1-0.5-1.6-0.6c-0.5-0.1-1-0.2-1.5-0.2
			c-0.6,0-1.1,0.1-1.6,0.2c-0.5,0.1-0.9,0.3-1.3,0.5c-0.4,0.2-0.7,0.5-1.1,0.9s-0.6,0.8-0.9,1.3h-0.1v-2.3h-4V635h4.2v-8.3h0.1
			c0.3,0.5,0.6,0.9,0.9,1.2c0.4,0.3,0.7,0.6,1.1,0.8c0.4,0.2,0.8,0.3,1.2,0.4c0.4,0.1,0.8,0.1,1.2,0.1c1.2,0,2.2-0.2,3.1-0.7
			c0.9-0.4,1.6-1.1,2.2-1.8c0.6-0.8,1-1.7,1.3-2.8c0.3-1.1,0.4-2.3,0.4-3.6c0-1.1-0.1-2-0.3-2.8
			C-291.5,616.5-291.8,615.8-292.1,615.2z M-295.5,621.5c0,0.4-0.1,0.7-0.2,1.1c-0.1,0.4-0.2,0.7-0.4,1.1c-0.2,0.4-0.4,0.7-0.7,0.9
			c-0.3,0.3-0.6,0.5-1,0.7c-0.4,0.2-0.8,0.2-1.3,0.2c-0.5,0-1-0.1-1.3-0.2c-0.4-0.2-0.7-0.4-1-0.7c-0.3-0.3-0.5-0.6-0.7-0.9
			c-0.2-0.3-0.3-0.7-0.4-1.1c-0.1-0.4-0.2-0.7-0.2-1.1c0-0.4-0.1-0.7-0.1-1c0-0.6,0.1-1.1,0.2-1.7c0.1-0.6,0.3-1.1,0.6-1.6
			c0.3-0.5,0.7-0.8,1.1-1.1c0.5-0.3,1-0.4,1.7-0.4c0.7,0,1.2,0.1,1.7,0.4c0.5,0.3,0.8,0.7,1.1,1.1c0.3,0.5,0.5,1,0.6,1.6
			c0.1,0.6,0.2,1.2,0.2,1.7C-295.4,620.8-295.4,621.1-295.5,621.5z M-277.8,612.3l-3.3,12h-0.1l-3.5-12h-4.8l6,17.2
			c0,0.2,0,0.4-0.1,0.6c-0.1,0.3-0.2,0.5-0.4,0.7c-0.2,0.2-0.4,0.4-0.7,0.6c-0.3,0.2-0.7,0.3-1.1,0.3c-0.2,0-0.4,0-0.6,0
			c-0.3,0-0.5,0-0.6-0.1v3.4c0.3,0,0.6,0.1,0.9,0.1s0.5,0,0.8,0c0.7,0,1.3,0,1.8-0.1c0.5-0.1,1-0.2,1.3-0.4s0.7-0.4,1-0.8
			c0.3-0.3,0.6-0.7,0.8-1.2c0.3-0.5,0.5-1.1,0.8-1.8c0.3-0.7,0.5-1.5,0.9-2.4l5.6-16.1L-277.8,612.3L-277.8,612.3z"/>
	</g>
</g>
</svg>
