<?xml version="1.0" encoding="utf-8"?>
<!-- Generator: Adobe Illustrator 19.1.0, SVG Export Plug-In . SVG Version: 6.00 Build 0)  -->
<svg version="1.1" id="Слой_1" xmlns="http://www.w3.org/2000/svg" xmlns:xlink="http://www.w3.org/1999/xlink" x="0px" y="0px"
	 viewBox="-71 475.5 699 240" style="enable-background:new -71 475.5 699 240;" xml:space="preserve">
<style type="text/css">
	.st0{fill:#237DAC;}
	.st1{fill:#FFFFFF;}
	.st2{fill:#5CA9D6;}
</style>
<g>
	<path class="st0" d="M168.1,595.5c0,65.8-53.3,119.1-119.1,119.1S-70.1,661.3-70.1,595.5S-16.8,476.5,49,476.5
		S168.1,529.8,168.1,595.5"/>
	<path class="st1" d="M49,655.1c22.7-0.7,40.4-20.5,37.1-46.3c-1.6-12.3-10.6-26.7-16.5-37.8c-7-13.2-14.1-24.2-20.6-34.9
		c-6.5,10.6-13.6,21.6-20.6,34.9c-5.9,11.1-14.9,25.5-16.5,37.8C8.6,634.6,26.3,654.3,49,655.1"/>
	<path class="st2" d="M22.7,633c13.1-0.5,23.4-12.9,21.4-29.1c-0.9-7.7-6.1-16.8-9.5-23.8c-4.1-8.3-8.2-15.2-11.9-21.9
		c-3.7,6.7-7.8,13.6-11.9,21.9c-3.4,7-8.6,16-9.5,23.8C-0.6,620.1,9.6,632.5,22.7,633"/>
	<path class="st1" d="M148.6,649c-35.4,0-40.2-26.5-40.2-39.3c0-12.6,4.4-44.8,45.8-44.8c9.4,0,17.5,2.7,17.5,2.7v26.9h-16.3v-12
		c0,0-2.1-1.1-6-1.1c-9,0-21.6,7.4-21.6,28c0,13.3,8.1,23.5,23.9,23.5c8.8,0,20.9-4.1,27.6-18.1c0,0,6.2,7.6,7.6,10.1
		c0.4,0.5,0.4,0.9,0.4,1.2C187.3,631.3,176.9,649,148.6,649"/>
	<path class="st1" d="M216.5,648.6c-28,0-38.6-21.2-38.6-41.9c0-18.9,10.8-41.9,38.6-41.9c28.5,0,38.6,21.8,38.6,41.9
		C255.1,625.8,244.3,648.6,216.5,648.6 M216.5,632.7c14.3,0,18.6-14.9,18.6-26c0-11-4.2-25.8-18.6-25.8c-14.5,0-18.8,14.9-18.8,25.8
		C197.8,617.8,202,632.7,216.5,632.7 M353.7,616.4l7.4,10.3c0,0,0.5,0.7,0.5,1.4c0,4.2-8.9,19.8-27.8,19.8
		c-13.8,0-17.9-12.2-17.9-12.2c-0.2-0.4-0.4-0.5-0.5-0.5c-0.4,0-0.5,0.4-0.5,0.4c-5,8.7-14.3,13.1-24.9,13.1c-27.8,0-31-26-31-35.9
		c0-22.7,11.9-48,48.3-48c1.6,0,3.4,0,5.1,0.2v-30.1H305v-15.9h26.2v99.6c0,3.7,1.2,10.4,8.5,10.4
		C344.1,629,350.5,626.5,353.7,616.4 M312.5,581.9c0,0-2.5-1.1-8.8-1.1c-8.8,0-24.8,6.5-24.8,29.2c0,4.6,0.2,20,14.9,20
		c12,0,18.8-10.3,18.8-19.3V581.9"/>
	<path class="st1" d="M370.8,567.9v13.4c0,0,0,0.7,0.4,0.7c0.2,0,0.4-0.2,0.7-0.7c0.4-0.5,10.1-15.7,30.8-15.7c1.6,0,5,0.2,6,0.9
		V598h-15.9v-12.4c-6.7,0-11.5,4.2-14.7,8.7c-5.7,8-6.2,19.1-6.2,22.6v28.8H353v-77.9H370.8 M450.5,648.6c-28,0-38.6-21.2-38.6-41.9
		c0-18.9,10.8-41.9,38.6-41.9c28.5,0,38.6,21.8,38.6,41.9C489.1,625.8,478.3,648.6,450.5,648.6 M450.5,632.7
		c14.3,0,18.6-14.9,18.6-26c0-11-4.2-25.8-18.6-25.8c-14.5,0-18.8,14.9-18.8,25.8C431.7,617.8,436,632.7,450.5,632.7"/>
	<path class="st1" d="M504.1,600.8c0-0.2,0-0.5-0.2-0.5s-0.4,0-0.5,0.2c0,0-5.7,5.3-16.1,7.6c-5.3,1.2-12.4,2.5-21.8,2.5
		c-2.3,0-4.8,0-7.4-0.2v-15.2c2.3,0.2,4.6,0.2,6.7,0.2c12.4,0,20.5-1.8,26.4-4.6c12-6,13.1-22.8,13.1-22.8h26
		c16.6,0,43.5,4.1,43.5,38.2c0,7.4-0.5,41.1-37.5,41.1c-7.3,0-13.3-2.5-13.3-2.5v49.9h-18.9L504.1,600.8 M553.8,606.9
		c0-16.1-8.1-23.2-25.7-23.2c-1.8,0-3.5,0.2-5.1,0.2v42.6c0,0,3.9,4.8,12.4,4.8C550.3,631.3,553.8,617.7,553.8,606.9"/>
	<path class="st1" d="M598.2,589.2c-0.4-0.2-1.1-0.5-1.4-0.5c0,0-0.4,0-0.7,0.5c0,0-13.4,21.1-46,21.1c-4.1,0-4.2-0.2-7.1-0.4v-15
		h7.8c37.9,0,44.2-39.3,44.2-39.3h17.2c0,0-1.2,8-5.7,16.8c0,0,20.7,12.2,20.7,37c0,7.1-3.5,38.6-37.5,38.6c-9,0-12.9-2.1-12.9-2.1
		v-15.6c0,0,4.2,2.1,11.1,2.1c7.8,0,20.3-4.6,20.3-22.5C608.3,595.5,600.9,590.4,598.2,589.2"/>
</g>
</svg>
