<?xml version="1.0" encoding="utf-8"?>
<!-- Generator: Adobe Illustrator 19.1.0, SVG Export Plug-In . SVG Version: 6.00 Build 0)  -->
<svg version="1.1" id="Layer_1" xmlns="http://www.w3.org/2000/svg" xmlns:xlink="http://www.w3.org/1999/xlink" x="0px" y="0px"
	 viewBox="-419.7 596.3 181.5 46.5" style="enable-background:new -419.7 596.3 181.5 46.5;" xml:space="preserve">
<style type="text/css">
	.st0{fill:#13A538;}
	.st1{fill:#FEC800;}
</style>
<g>
	<path class="st0" d="M-294.7,617.8c0,1.1,0.9,1.9,2,1.9s2-0.9,2-1.9v-4.4h6.5v4.4c0,1.1,0.9,1.9,2,1.9c1.1,0,2-0.9,2-1.9v-12.7
		c0-1.1-0.9-1.9-2-1.9s-2,0.9-2,1.9v4.4h-6.5v-4.4c0-1.1-0.9-1.9-2-1.9c-1.1,0-2,0.9-2,1.9L-294.7,617.8L-294.7,617.8z
		 M-341.7,607.2v10.6c0,1.1,0.9,1.9,2,1.9c1.1,0,2-0.9,2-1.9v-10.6h3c1.1,0,2-0.9,2-2c0-1-0.9-1.9-2-1.9h-9.9c-1.1,0-2,0.9-2,1.9
		c0,1.1,0.9,2,2,2H-341.7L-341.7,607.2z M-355.6,612l-4.6-7.9c-0.5-0.9-1.6-1.2-2.6-0.8c-1,0.6-1.3,1.7-0.7,2.7l5.5,9.3
		c-0.7,0.4-1.4,0.6-2.2,0.7c-1.1,0.1-1.8,0.9-1.8,1.9c0,1.2,1,1.9,2,1.9c2.2,0,4.2-1.1,5.6-2.7c1.3-1.4,2.3-3.3,3.2-5l3.2-6.1
		c0.5-0.9,0.2-2.2-0.8-2.6c-0.9-0.5-2.1-0.1-2.6,0.9L-355.6,612L-355.6,612z M-277.2,611.4c0,4.8,3.5,8.3,8.3,8.3s8.3-3.5,8.3-8.3
		c0-4.8-3.6-8.3-8.3-8.3C-273.7,603.1-277.2,606.7-277.2,611.4L-277.2,611.4z M-264.6,611.4c0,2.5-1.8,4.5-4.3,4.5
		c-2.6,0-4.3-1.9-4.3-4.5c0-2.5,1.8-4.5,4.3-4.5C-266.3,607-264.6,608.9-264.6,611.4L-264.6,611.4z M-247,607.2
		c1.1,0,1.9-0.8,1.9-1.9c0-1-0.9-1.9-1.9-1.9h-3c-4.9,0-8.3,3.5-8.3,8.1c0,4.6,3.4,8.1,8.3,8.1h3c1.1,0,1.9-0.9,1.9-1.9
		c0-1-0.9-1.9-1.9-1.9h-3.1c-2.6,0-4.3-1.8-4.3-4.3c0-2.5,1.7-4.3,4.3-4.3L-247,607.2L-247,607.2z M-319.3,619.1
		c0.7,0.8,2,0.8,2.7,0c0.7-0.7,0.8-2,0.1-2.7l-5-5.2l4.8-5c0.7-0.8,0.7-2-0.1-2.7c-0.7-0.8-2-0.7-2.7,0l-5,5.1
		c-0.4,0.5-0.7,0.5-1.1,0.5c-0.5,0-0.9-0.3-0.9-0.8v-3.4c0-1.1-0.9-1.9-2-1.9c-1.1,0-2,0.9-2,1.9v12.7c0,1.1,0.9,1.9,2,1.9
		c1.1,0,2-0.9,2-1.9v-3.6c0-0.5,0.4-0.8,0.9-0.8c0.3,0,0.6,0.1,1.1,0.5L-319.3,619.1L-319.3,619.1z M-314.5,611.4
		c0,4.8,3.5,8.3,8.3,8.3s8.3-3.5,8.3-8.3c0-4.8-3.6-8.3-8.3-8.3C-310.9,603.1-314.5,606.7-314.5,611.4L-314.5,611.4z M-301.8,611.4
		c0,2.5-1.8,4.5-4.3,4.5c-2.6,0-4.3-1.9-4.3-4.5c0-2.5,1.8-4.5,4.3-4.5S-301.8,608.9-301.8,611.4L-301.8,611.4z M-240.2,609.9
		c1.1,0,2-0.9,2-2c0-1.1-0.9-2-2-2c-1.1,0-2,0.9-2,2C-242.2,609-241.3,609.9-240.2,609.9L-240.2,609.9z M-240.2,616.9
		c1.1,0,2-0.9,2-2c0-1.1-0.9-2-2-2c-1.1,0-2,0.9-2,2C-242.2,616-241.3,616.9-240.2,616.9z"/>
	<g>
		<path d="M-360.5,628.2c1.9,0,3,1.4,3,3.2s-1,3.2-3,3.2c-1.9,0-3-1.4-3-3.2C-363.4,629.6-362.4,628.2-360.5,628.2z M-360.5,633.9
			c1.4,0,2.2-1,2.2-2.5c0-1.5-0.9-2.5-2.2-2.5c-1.4,0-2.2,1-2.2,2.5C-362.7,632.9-361.9,633.9-360.5,633.9z"/>
		<path d="M-351.1,628.3c0.2,0,0.3,0.2,0.3,0.4v5.3c0,0.2-0.1,0.4-0.3,0.4c-0.2,0-0.4-0.2-0.4-0.4v-2.4h-3.6v2.4
			c0,0.2-0.1,0.4-0.4,0.4c-0.2,0-0.4-0.2-0.4-0.4v-5.3c0-0.2,0.1-0.4,0.4-0.4c0.2,0,0.4,0.2,0.4,0.4v2.2h3.6v-2.2
			C-351.5,628.5-351.3,628.3-351.1,628.3z"/>
		<path d="M-348.5,633.2c0.4-0.9,0.5-2.7,0.6-4.5c0-0.2,0.1-0.3,0.3-0.3h3c0.3,0,0.4,0.2,0.4,0.4v5.3c0,0.2-0.1,0.4-0.4,0.4
			s-0.4-0.2-0.4-0.4v-5h-2.4c-0.1,1.4-0.2,3.4-0.6,4.5c-0.3,0.7-0.7,1-1.2,1c-0.3,0-0.5-0.1-0.5-0.4c0-0.3,0.2-0.3,0.5-0.3
			C-348.8,633.8-348.6,633.5-348.5,633.2z"/>
		<path d="M-342,629.1c-0.1-0.2,0-0.4,0.2-0.5c0.5-0.2,1.2-0.5,2-0.5c1.6,0,2.3,0.8,2.3,2.2v3.6c0,0.2-0.1,0.4-0.3,0.4
			c-0.2,0-0.4-0.2-0.4-0.4v-0.9c-0.3,0.7-1,1.5-2.4,1.5c-1.2,0-2-0.6-2-1.8c0-1.6,1.4-2,2.8-2c0.7,0,1.2,0.1,1.6,0.1v-0.3
			c0-1-0.5-1.6-1.7-1.6c-0.6,0-1.1,0.1-1.6,0.3C-341.6,629.3-341.9,629.3-342,629.1z M-338.2,631.7v-0.2c-0.5-0.1-0.9-0.1-1.5-0.1
			c-1.2,0-2.1,0.4-2.1,1.4c0,0.7,0.5,1.2,1.4,1.2C-338.9,633.9-338.2,632.6-338.2,631.7z"/>
		<path d="M-335,634.2c-0.1,0.1-0.2,0.2-0.4,0.2c-0.2,0-0.4-0.2-0.4-0.4v-5.3c0-0.2,0.1-0.4,0.4-0.4c0.2,0,0.4,0.2,0.4,0.4v4.6
			l3.7-4.8c0.1-0.1,0.2-0.2,0.3-0.2c0.2,0,0.4,0.2,0.4,0.4v5.3c0,0.2-0.1,0.4-0.4,0.4c-0.2,0-0.3-0.2-0.3-0.4v-4.5L-335,634.2z
			 M-334.8,626.4c-0.1-0.2-0.1-0.4,0.1-0.5c0.2-0.1,0.4,0,0.5,0.2c0.2,0.4,0.6,0.7,1.1,0.7c0.6,0,0.9-0.3,1.1-0.7
			c0.1-0.2,0.3-0.3,0.5-0.2c0.2,0.1,0.2,0.3,0.1,0.5c-0.2,0.4-0.7,1-1.7,1C-334.1,627.4-334.6,626.9-334.8,626.4z"/>
		<path d="M-324.1,628.3c0.2,0,0.4,0.2,0.4,0.4v5.3c0,0.2-0.1,0.4-0.4,0.4s-0.3-0.2-0.3-0.4v-2.4h-3.7v2.4c0,0.2-0.1,0.4-0.3,0.4
			c-0.2,0-0.4-0.2-0.4-0.4v-5.3c0-0.2,0.1-0.4,0.4-0.4c0.2,0,0.3,0.2,0.3,0.4v2.2h3.7v-2.2C-324.5,628.5-324.4,628.3-324.1,628.3z"
			/>
		<path d="M-321.8,631.1c0-0.2,0.1-0.3,0.3-0.3h3.3c0.2,0,0.3,0.1,0.3,0.3c0,0.2-0.1,0.3-0.3,0.3h-3.3
			C-321.6,631.4-321.8,631.3-321.8,631.1z"/>
		<path d="M-315.1,634c0,0.2-0.1,0.4-0.4,0.4s-0.4-0.2-0.4-0.4v-5.3c0-0.2,0.1-0.4,0.4-0.4h3c0.2,0,0.3,0.1,0.3,0.3
			c0,0.2-0.1,0.3-0.3,0.3h-2.7V634z"/>
		<path d="M-310,634.2c-0.1,0.1-0.2,0.2-0.4,0.2c-0.2,0-0.3-0.2-0.3-0.4v-5.3c0-0.2,0.1-0.4,0.3-0.4s0.4,0.2,0.4,0.4v4.6l3.7-4.8
			c0.1-0.1,0.2-0.2,0.4-0.2c0.2,0,0.4,0.2,0.4,0.4v5.3c0,0.2-0.1,0.4-0.4,0.4s-0.4-0.2-0.4-0.4v-4.5L-310,634.2z"/>
		<path d="M-302.9,629v5c0,0.2-0.1,0.4-0.4,0.4c-0.2,0-0.4-0.2-0.4-0.4v-5.3c0-0.2,0.1-0.4,0.3-0.4h4.2c0.2,0,0.4,0.2,0.4,0.4v5.3
			c0,0.2-0.1,0.4-0.4,0.4s-0.4-0.2-0.4-0.4v-5H-302.9z"/>
		<path d="M-292.8,633.5c0.2-0.1,0.4-0.1,0.5,0.1s0,0.4-0.1,0.5c-0.5,0.3-1.2,0.5-1.9,0.5c-1.9,0-2.9-1.2-2.9-3.1
			c0-1.8,1-3.2,2.8-3.2c1.6,0,2.4,1.2,2.4,2.4c0,0.2,0,0.4,0,0.5c0,0.4-0.2,0.6-0.7,0.6h-3.8c0.1,1.4,0.9,2.2,2.2,2.2
			C-293.7,633.9-293.2,633.7-292.8,633.5z M-296.5,631.1h3.8c0-0.2,0-0.3,0-0.5c0-1-0.6-1.8-1.8-1.8
			C-295.6,628.8-296.4,629.6-296.5,631.1z"/>
		<path d="M-285,631.2c0,1.8-0.9,3.4-2.9,3.4c-0.7,0-1.3-0.1-1.7-0.4v2.3c0,0.2-0.1,0.4-0.4,0.4s-0.4-0.2-0.4-0.4v-7.8
			c0-0.2,0.1-0.4,0.4-0.4s0.4,0.2,0.4,0.4v1c0.4-1,1.2-1.5,2.3-1.5C-285.7,628.2-285,629.4-285,631.2z M-289.6,632.2v1.2
			c0.5,0.3,1.1,0.4,1.7,0.4c1.7,0,2.2-1.3,2.2-2.7c0-1.3-0.5-2.3-1.8-2.3C-289.3,628.8-289.6,630.7-289.6,632.2z"/>
		<path d="M-283.1,628.3c0.2,0,0.3,0.1,0.4,0.3l2.1,3l2.2-3c0.1-0.2,0.3-0.3,0.5-0.3c0.2,0,0.3,0.2,0.3,0.4v5.3
			c0,0.2-0.1,0.4-0.4,0.4c-0.2,0-0.3-0.2-0.3-0.4v-4.5l-2,2.7c-0.2,0.3-0.5,0.3-0.7,0l-1.9-2.6v4.4c0,0.2-0.1,0.4-0.3,0.4
			c-0.2,0-0.3-0.2-0.3-0.4v-5.3C-283.5,628.5-283.4,628.3-283.1,628.3z"/>
		<path d="M-275.4,629.1c-0.1-0.2,0-0.4,0.2-0.5c0.5-0.2,1.2-0.5,2-0.5c1.6,0,2.3,0.8,2.3,2.2v3.6c0,0.2-0.1,0.4-0.4,0.4
			c-0.2,0-0.3-0.2-0.3-0.4v-0.9c-0.3,0.7-1,1.5-2.4,1.5c-1.2,0-2-0.6-2-1.8c0-1.6,1.5-2,2.8-2c0.7,0,1.2,0.1,1.6,0.1v-0.3
			c0-1-0.5-1.6-1.7-1.6c-0.6,0-1.1,0.1-1.6,0.3C-275,629.3-275.3,629.3-275.4,629.1z M-271.6,631.7v-0.2c-0.5-0.1-0.9-0.1-1.5-0.1
			c-1.2,0-2.1,0.4-2.1,1.4c0,0.7,0.5,1.2,1.4,1.2C-272.3,633.9-271.6,632.6-271.6,631.7z"/>
		<path d="M-263.8,631.2c0,1.8-0.9,3.4-2.9,3.4c-0.7,0-1.3-0.1-1.7-0.4v2.3c0,0.2-0.1,0.4-0.3,0.4c-0.2,0-0.4-0.2-0.4-0.4v-7.8
			c0-0.2,0.1-0.4,0.4-0.4c0.2,0,0.3,0.2,0.3,0.4v1c0.4-1,1.2-1.5,2.3-1.5C-264.6,628.2-263.8,629.4-263.8,631.2z M-268.4,632.2v1.2
			c0.5,0.3,1.1,0.4,1.7,0.4c1.6,0,2.2-1.3,2.2-2.7c0-1.3-0.5-2.3-1.8-2.3C-268.1,628.8-268.4,630.7-268.4,632.2z"/>
		<path d="M-261.7,628.3c0.2,0,0.4,0.2,0.4,0.4v2.4l2.7-2.7c0.2-0.2,0.4-0.2,0.5-0.1c0.1,0.1,0.1,0.3-0.1,0.5l-2.5,2.4l2.8,2.5
			c0.2,0.1,0.2,0.4,0.1,0.5c-0.2,0.2-0.4,0.1-0.6,0l-3-2.7v2.4c0,0.2-0.1,0.4-0.4,0.4s-0.4-0.2-0.4-0.4v-5.3
			C-262.1,628.5-262,628.3-261.7,628.3z"/>
		<path d="M-252.2,633.5c0.2-0.1,0.4-0.1,0.5,0.1s0,0.4-0.1,0.5c-0.5,0.3-1.2,0.5-1.9,0.5c-1.9,0-2.9-1.2-2.9-3.1
			c0-1.8,1-3.2,2.8-3.2c1.6,0,2.4,1.2,2.4,2.4c0,0.2,0,0.4,0,0.5c-0.1,0.4-0.2,0.6-0.7,0.6h-3.8c0.1,1.4,0.9,2.2,2.2,2.2
			C-253.1,633.9-252.6,633.7-252.2,633.5z M-255.9,631.1h3.8c0-0.2,0-0.3,0-0.5c0-1-0.6-1.8-1.8-1.8
			C-255,628.8-255.8,629.6-255.9,631.1z"/>
		<path d="M-247.3,634c0,0.2-0.1,0.4-0.4,0.4s-0.4-0.2-0.4-0.4v-5h-2c-0.2,0-0.3-0.1-0.3-0.3c0-0.2,0.1-0.3,0.3-0.3h4.7
			c0.2,0,0.3,0.1,0.3,0.3c0,0.2-0.1,0.3-0.3,0.3h-2L-247.3,634L-247.3,634z"/>
	</g>
	<path class="st1" d="M-377.3,601.3c0-2.8-2.3-5-5-5h-32.4c-2.8,0-5,2.3-5,5v20.2c0,11.7,9.5,21.2,21.2,21.2
		c11.7,0,21.2-9.5,21.2-21.2C-377.3,613.5-377.3,609.4-377.3,601.3z"/>
	<path d="M-399.9,627.2c0-1.1-0.9-2-2-2c-1.1,0-2,0.9-2,2c0,1.1,0.9,2,2,2C-400.8,629.2-399.9,628.3-399.9,627.2L-399.9,627.2z
		 M-392.8,627.2L-392.8,627.2c0-1.1-0.9-2-2-2s-2,0.9-2,2c0,1.1,0.9,2,2,2S-392.8,628.3-392.8,627.2z"/>
</g>
</svg>
