<?xml version="1.0" encoding="utf-8"?>
<!-- Generator: Adobe Illustrator 19.1.0, SVG Export Plug-In . SVG Version: 6.00 Build 0)  -->
<svg version="1.1" id="Layer_1" xmlns="http://www.w3.org/2000/svg" xmlns:xlink="http://www.w3.org/1999/xlink" x="0px" y="0px"
	 viewBox="-419.8 596.3 181.5 46.4" style="enable-background:new -419.8 596.3 181.5 46.4;" xml:space="preserve">
<style type="text/css">
	.st0{fill:#13A538;}
	.st1{fill:#FEC800;}
</style>
<g>
	<path class="st0" d="M-294.8,617.8c0,1.1,0.9,1.9,2,1.9s2-0.9,2-1.9v-4.4h6.5v4.4c0,1.1,0.9,1.9,2,1.9s2-0.9,2-1.9v-12.7
		c0-1.1-0.9-1.9-2-1.9s-2,0.9-2,1.9v4.4h-6.5v-4.4c0-1.1-0.9-1.9-2-1.9s-2,0.9-2,1.9V617.8L-294.8,617.8z M-341.8,607.3v10.6
		c0,1.1,0.9,1.9,2,1.9s2-0.9,2-1.9v-10.6h3c1.1,0,2-0.9,2-2c0-1-0.9-1.9-2-1.9h-9.9c-1.1,0-2,0.9-2,1.9c0,1.1,0.9,2,2,2H-341.8
		L-341.8,607.3z M-355.7,612l-4.6-7.9c-0.5-0.9-1.6-1.2-2.6-0.8c-1,0.6-1.3,1.7-0.7,2.7l5.5,9.3c-0.7,0.4-1.4,0.6-2.2,0.7
		c-1.1,0.1-1.8,0.9-1.8,1.9c0,1.2,1,1.9,2,1.9c2.2,0,4.2-1.1,5.6-2.7c1.3-1.4,2.3-3.3,3.2-5l3.2-6.1c0.5-0.9,0.2-2.2-0.8-2.6
		c-0.9-0.5-2.1-0.1-2.6,0.9L-355.7,612L-355.7,612z M-277.3,611.5c0,4.8,3.5,8.3,8.3,8.3s8.3-3.5,8.3-8.3s-3.6-8.3-8.3-8.3
		C-273.8,603.1-277.3,606.8-277.3,611.5L-277.3,611.5z M-264.7,611.5c0,2.5-1.8,4.5-4.3,4.5c-2.6,0-4.3-1.9-4.3-4.5
		c0-2.5,1.8-4.5,4.3-4.5C-266.4,607-264.7,609-264.7,611.5L-264.7,611.5z M-247.1,607.3c1.1,0,1.9-0.8,1.9-1.9c0-1-0.9-1.9-1.9-1.9
		h-3c-4.9,0-8.3,3.5-8.3,8.1s3.4,8.1,8.3,8.1h3c1.1,0,1.9-0.9,1.9-1.9s-0.9-1.9-1.9-1.9h-3.1c-2.6,0-4.3-1.8-4.3-4.3
		s1.7-4.3,4.3-4.3L-247.1,607.3L-247.1,607.3z M-319.4,619.1c0.7,0.8,2,0.8,2.7,0c0.7-0.7,0.8-2,0.1-2.7l-5-5.2l4.8-5
		c0.7-0.8,0.7-2-0.1-2.7c-0.7-0.8-2-0.7-2.7,0l-5,5.1c-0.4,0.5-0.7,0.5-1.1,0.5c-0.5,0-0.9-0.3-0.9-0.8v-3.4c0-1.1-0.9-1.9-2-1.9
		s-2,0.9-2,1.9v12.7c0,1.1,0.9,1.9,2,1.9s2-0.9,2-1.9V614c0-0.5,0.4-0.8,0.9-0.8c0.3,0,0.6,0.1,1.1,0.5L-319.4,619.1L-319.4,619.1z
		 M-314.6,611.5c0,4.8,3.5,8.3,8.3,8.3s8.3-3.5,8.3-8.3s-3.6-8.3-8.3-8.3C-311,603.1-314.6,606.8-314.6,611.5L-314.6,611.5z
		 M-301.9,611.5c0,2.5-1.8,4.5-4.3,4.5c-2.6,0-4.3-1.9-4.3-4.5c0-2.5,1.8-4.5,4.3-4.5S-301.9,609-301.9,611.5L-301.9,611.5z
		 M-240.3,610c1.1,0,2-0.9,2-2s-0.9-2-2-2s-2,0.9-2,2S-241.4,610-240.3,610L-240.3,610z M-240.3,617c1.1,0,2-0.9,2-2s-0.9-2-2-2
		s-2,0.9-2,2S-241.4,617-240.3,617z"/>
	<g>
		<path d="M-360.6,628.3c1.9,0,3,1.4,3,3.2s-1,3.2-3,3.2c-1.9,0-3-1.4-3-3.2C-363.5,629.6-362.5,628.3-360.6,628.3z M-360.6,634
			c1.4,0,2.2-1,2.2-2.5s-0.9-2.5-2.2-2.5c-1.4,0-2.2,1-2.2,2.5S-362,634-360.6,634z"/>
		<path d="M-351.2,628.3c0.2,0,0.3,0.2,0.3,0.4v5.3c0,0.2-0.1,0.4-0.3,0.4c-0.2,0-0.4-0.2-0.4-0.4v-2.4h-3.6v2.4
			c0,0.2-0.1,0.4-0.4,0.4c-0.2,0-0.4-0.2-0.4-0.4v-5.3c0-0.2,0.1-0.4,0.4-0.4c0.2,0,0.4,0.2,0.4,0.4v2.2h3.6v-2.2
			C-351.6,628.5-351.4,628.3-351.2,628.3z"/>
		<path d="M-348.6,633.3c0.4-0.9,0.5-2.7,0.6-4.5c0-0.2,0.1-0.3,0.3-0.3h3c0.3,0,0.4,0.2,0.4,0.4v5.3c0,0.2-0.1,0.4-0.4,0.4
			s-0.4-0.2-0.4-0.4v-5h-2.4c-0.1,1.4-0.2,3.4-0.6,4.5c-0.3,0.7-0.7,1-1.2,1c-0.3,0-0.5-0.1-0.5-0.4c0-0.3,0.2-0.3,0.5-0.3
			C-348.9,633.8-348.7,633.5-348.6,633.3z"/>
		<path d="M-342.1,629.1c-0.1-0.2,0-0.4,0.2-0.5c0.5-0.2,1.2-0.5,2-0.5c1.6,0,2.3,0.8,2.3,2.2v3.6c0,0.2-0.1,0.4-0.3,0.4
			c-0.2,0-0.4-0.2-0.4-0.4V633c-0.3,0.7-1,1.5-2.4,1.5c-1.2,0-2-0.6-2-1.8c0-1.6,1.4-2,2.8-2c0.7,0,1.2,0.1,1.6,0.1v-0.3
			c0-1-0.5-1.6-1.7-1.6c-0.6,0-1.1,0.1-1.6,0.3C-341.7,629.3-342,629.3-342.1,629.1z M-338.3,631.8v-0.2c-0.5-0.1-0.9-0.1-1.5-0.1
			c-1.2,0-2.1,0.4-2.1,1.4c0,0.7,0.5,1.2,1.4,1.2C-339,634-338.3,632.6-338.3,631.8z"/>
		<path d="M-335.1,634.3c-0.1,0.1-0.2,0.2-0.4,0.2c-0.2,0-0.4-0.2-0.4-0.4v-5.3c0-0.2,0.1-0.4,0.4-0.4c0.2,0,0.4,0.2,0.4,0.4v4.6
			l3.7-4.8c0.1-0.1,0.2-0.2,0.3-0.2c0.2,0,0.4,0.2,0.4,0.4v5.3c0,0.2-0.1,0.4-0.4,0.4c-0.2,0-0.3-0.2-0.3-0.4v-4.5L-335.1,634.3z
			 M-334.9,626.5c-0.1-0.2-0.1-0.4,0.1-0.5s0.4,0,0.5,0.2c0.2,0.4,0.6,0.7,1.1,0.7c0.6,0,0.9-0.3,1.1-0.7c0.1-0.2,0.3-0.3,0.5-0.2
			s0.2,0.3,0.1,0.5c-0.2,0.4-0.7,1-1.7,1C-334.2,627.5-334.7,627-334.9,626.5z"/>
		<path d="M-324.2,628.3c0.2,0,0.4,0.2,0.4,0.4v5.3c0,0.2-0.1,0.4-0.4,0.4s-0.3-0.2-0.3-0.4v-2.4h-3.7v2.4c0,0.2-0.1,0.4-0.3,0.4
			c-0.2,0-0.4-0.2-0.4-0.4v-5.3c0-0.2,0.1-0.4,0.4-0.4c0.2,0,0.3,0.2,0.3,0.4v2.2h3.7v-2.2C-324.6,628.5-324.5,628.3-324.2,628.3z"
			/>
		<path d="M-321.9,631.1c0-0.2,0.1-0.3,0.3-0.3h3.3c0.2,0,0.3,0.1,0.3,0.3s-0.1,0.3-0.3,0.3h-3.3
			C-321.7,631.5-321.9,631.3-321.9,631.1z"/>
		<path d="M-315.2,634c0,0.2-0.1,0.4-0.4,0.4s-0.4-0.2-0.4-0.4v-5.3c0-0.2,0.1-0.4,0.4-0.4h3c0.2,0,0.3,0.1,0.3,0.3
			s-0.1,0.3-0.3,0.3h-2.7v5.1H-315.2z"/>
		<path d="M-310.1,634.3c-0.1,0.1-0.2,0.2-0.4,0.2c-0.2,0-0.3-0.2-0.3-0.4v-5.3c0-0.2,0.1-0.4,0.3-0.4s0.4,0.2,0.4,0.4v4.6l3.7-4.8
			c0.1-0.1,0.2-0.2,0.4-0.2c0.2,0,0.4,0.2,0.4,0.4v5.3c0,0.2-0.1,0.4-0.4,0.4s-0.4-0.2-0.4-0.4v-4.5L-310.1,634.3z"/>
		<path d="M-303,629v5c0,0.2-0.1,0.4-0.4,0.4c-0.2,0-0.4-0.2-0.4-0.4v-5.3c0-0.2,0.1-0.4,0.3-0.4h4.2c0.2,0,0.4,0.2,0.4,0.4v5.3
			c0,0.2-0.1,0.4-0.4,0.4s-0.4-0.2-0.4-0.4v-5H-303z"/>
		<path d="M-292.9,633.5c0.2-0.1,0.4-0.1,0.5,0.1s0,0.4-0.1,0.5c-0.5,0.3-1.2,0.5-1.9,0.5c-1.9,0-2.9-1.2-2.9-3.1
			c0-1.8,1-3.2,2.8-3.2c1.6,0,2.4,1.2,2.4,2.4c0,0.2,0,0.4,0,0.5c0,0.4-0.2,0.6-0.7,0.6h-3.8c0.1,1.4,0.9,2.2,2.2,2.2
			C-293.8,634-293.3,633.8-292.9,633.5z M-296.6,631.1h3.8c0-0.2,0-0.3,0-0.5c0-1-0.6-1.8-1.8-1.8
			C-295.7,628.8-296.5,629.6-296.6,631.1z"/>
		<path d="M-285.1,631.3c0,1.8-0.9,3.4-2.9,3.4c-0.7,0-1.3-0.1-1.7-0.4v2.3c0,0.2-0.1,0.4-0.4,0.4s-0.4-0.2-0.4-0.4v-7.8
			c0-0.2,0.1-0.4,0.4-0.4s0.4,0.2,0.4,0.4v1c0.4-1,1.2-1.5,2.3-1.5C-285.8,628.3-285.1,629.5-285.1,631.3z M-289.7,632.3v1.2
			c0.5,0.3,1.1,0.4,1.7,0.4c1.7,0,2.2-1.3,2.2-2.7c0-1.3-0.5-2.3-1.8-2.3C-289.4,628.8-289.7,630.8-289.7,632.3z"/>
		<path d="M-283.2,628.3c0.2,0,0.3,0.1,0.4,0.3l2.1,3l2.2-3c0.1-0.2,0.3-0.3,0.5-0.3s0.3,0.2,0.3,0.4v5.3c0,0.2-0.1,0.4-0.4,0.4
			c-0.2,0-0.3-0.2-0.3-0.4v-4.5l-2,2.7c-0.2,0.3-0.5,0.3-0.7,0l-1.9-2.6v4.4c0,0.2-0.1,0.4-0.3,0.4c-0.2,0-0.3-0.2-0.3-0.4v-5.3
			C-283.6,628.5-283.5,628.3-283.2,628.3z"/>
		<path d="M-275.5,629.1c-0.1-0.2,0-0.4,0.2-0.5c0.5-0.2,1.2-0.5,2-0.5c1.6,0,2.3,0.8,2.3,2.2v3.6c0,0.2-0.1,0.4-0.4,0.4
			c-0.2,0-0.3-0.2-0.3-0.4V633c-0.3,0.7-1,1.5-2.4,1.5c-1.2,0-2-0.6-2-1.8c0-1.6,1.5-2,2.8-2c0.7,0,1.2,0.1,1.6,0.1v-0.3
			c0-1-0.5-1.6-1.7-1.6c-0.6,0-1.1,0.1-1.6,0.3C-275.1,629.3-275.4,629.3-275.5,629.1z M-271.7,631.8v-0.2c-0.5-0.1-0.9-0.1-1.5-0.1
			c-1.2,0-2.1,0.4-2.1,1.4c0,0.7,0.5,1.2,1.4,1.2C-272.4,634-271.7,632.6-271.7,631.8z"/>
		<path d="M-263.9,631.3c0,1.8-0.9,3.4-2.9,3.4c-0.7,0-1.3-0.1-1.7-0.4v2.3c0,0.2-0.1,0.4-0.3,0.4c-0.2,0-0.4-0.2-0.4-0.4v-7.8
			c0-0.2,0.1-0.4,0.4-0.4c0.2,0,0.3,0.2,0.3,0.4v1c0.4-1,1.2-1.5,2.3-1.5C-264.7,628.3-263.9,629.5-263.9,631.3z M-268.5,632.3v1.2
			c0.5,0.3,1.1,0.4,1.7,0.4c1.6,0,2.2-1.3,2.2-2.7c0-1.3-0.5-2.3-1.8-2.3C-268.2,628.8-268.5,630.8-268.5,632.3z"/>
		<path d="M-261.8,628.3c0.2,0,0.4,0.2,0.4,0.4v2.4l2.7-2.7c0.2-0.2,0.4-0.2,0.5-0.1c0.1,0.1,0.1,0.3-0.1,0.5l-2.5,2.4l2.8,2.5
			c0.2,0.1,0.2,0.4,0.1,0.5c-0.2,0.2-0.4,0.1-0.6,0l-3-2.7v2.4c0,0.2-0.1,0.4-0.4,0.4s-0.4-0.2-0.4-0.4v-5.3
			C-262.2,628.5-262.1,628.3-261.8,628.3z"/>
		<path d="M-252.3,633.5c0.2-0.1,0.4-0.1,0.5,0.1s0,0.4-0.1,0.5c-0.5,0.3-1.2,0.5-1.9,0.5c-1.9,0-2.9-1.2-2.9-3.1
			c0-1.8,1-3.2,2.8-3.2c1.6,0,2.4,1.2,2.4,2.4c0,0.2,0,0.4,0,0.5c-0.1,0.4-0.2,0.6-0.7,0.6h-3.8c0.1,1.4,0.9,2.2,2.2,2.2
			C-253.2,634-252.7,633.8-252.3,633.5z M-256,631.1h3.8c0-0.2,0-0.3,0-0.5c0-1-0.6-1.8-1.8-1.8C-255.1,628.8-255.9,629.6-256,631.1
			z"/>
		<path d="M-247.4,634c0,0.2-0.1,0.4-0.4,0.4s-0.4-0.2-0.4-0.4v-5h-2c-0.2,0-0.3-0.1-0.3-0.3s0.1-0.3,0.3-0.3h4.7
			c0.2,0,0.3,0.1,0.3,0.3s-0.1,0.3-0.3,0.3h-2L-247.4,634L-247.4,634z"/>
	</g>
	<path class="st1" d="M-377.4,601.3c0-2.8-2.3-5-5-5h-32.4c-2.8,0-5,2.3-5,5v20.2c0,11.7,9.5,21.2,21.2,21.2s21.2-9.5,21.2-21.2
		C-377.4,613.5-377.4,609.5-377.4,601.3z"/>
	<path d="M-400,627.3c0-1.1-0.9-2-2-2s-2,0.9-2,2s0.9,2,2,2S-400,628.3-400,627.3L-400,627.3z M-392.9,627.3L-392.9,627.3
		c0-1.1-0.9-2-2-2s-2,0.9-2,2s0.9,2,2,2S-392.9,628.3-392.9,627.3z"/>
</g>
</svg>
