<?xml version="1.0" encoding="utf-8"?>
<!-- Generator: Adobe Illustrator 19.1.0, SVG Export Plug-In . SVG Version: 6.00 Build 0)  -->
<svg version="1.1" id="Слой_1" xmlns="http://www.w3.org/2000/svg" xmlns:xlink="http://www.w3.org/1999/xlink" x="0px" y="0px"
	 viewBox="0 0 274 48" style="enable-background:new 0 0 274 48;" xml:space="preserve">
<style type="text/css">
	.st0{fill:#2787F5;}
	.st1{fill-rule:evenodd;clip-rule:evenodd;fill:#FFFFFF;}
</style>
<path class="st0" d="M0,23C0,12.2,0,6.7,3.4,3.4C6.7,0,12.2,0,23,0h2c10.8,0,16.3,0,19.6,3.4C48,6.7,48,12.2,48,23v2
	c0,10.8,0,16.3-3.4,19.6C41.3,48,35.8,48,25,48h-2c-10.8,0-16.3,0-19.6-3.4C0,41.3,0,35.8,0,25V23z"/>
<path class="st1" d="M13,15H9.5c-1,0-1.2,0.5-1.2,1c0,0.9,1.2,5.5,5.5,11.6c2.9,4.2,7,6.4,10.7,6.4c2.2,0,2.5-0.5,2.5-1.4v-3.1
	c0-1,0.2-1.2,0.9-1.2c0.5,0,1.4,0.3,3.5,2.3c2.4,2.4,2.8,3.4,4.1,3.4H39c1,0,1.5-0.5,1.2-1.5c-0.3-1-1.4-2.4-3-4.1
	c-0.8-1-2-2-2.4-2.5c-0.5-0.7-0.4-1,0-1.6c0,0,4.3-6,4.7-8c0.2-0.7,0-1.3-1.1-1.3H35c-0.9,0-1.3,0.5-1.5,1c0,0-1.8,4.3-4.3,7.2
	c-0.8,0.8-1.2,1.1-1.6,1.1c-0.2,0-0.5-0.3-0.5-1v-6.9c0-0.9-0.3-1.3-1-1.3h-5.5c-0.6,0-0.9,0.4-0.9,0.8c0,0.8,1.3,1,1.4,3.4v5.2
	c0,1.1-0.2,1.3-0.6,1.3c-1.2,0-4.1-4.4-5.8-9.3C14.2,15.4,13.9,15,13,15z"/>
<path d="M77.7,31h-6.1v-5.4h6.1c1.9,0,3.2,1.1,3.2,2.7C80.9,29.9,79.7,31,77.7,31z M71.6,17h5.7c1.7,0,2.9,1,2.9,2.4
	s-1.2,2.4-2.9,2.4h-5.7V17z M81.9,23.6c1.9-0.9,3.1-2.4,3.1-4.7c0-3.5-3.2-5.9-7.7-5.9H66.7v22h11c4.7,0,8-2.6,8-6.1
	C85.8,26.2,84.1,24.3,81.9,23.6z"/>
<polygon points="103.9,35 110.3,35 100.2,23.6 109.4,13 103.6,13 96.3,21.5 95.1,21.5 95.1,13 90.2,13 90.2,35 95.1,35 95.1,26.2 
	96.3,26.2 "/>
<path d="M122.7,31c-4,0-6.7-2.8-6.7-7s2.7-7,6.7-7c4,0,6.7,2.8,6.7,7S126.7,31,122.7,31z M122.7,35.4c6.9,0,11.8-4.7,11.8-11.4
	s-4.9-11.4-11.8-11.4c-6.9,0-11.8,4.7-11.8,11.4S115.8,35.4,122.7,35.4z"/>
<polygon points="153.4,13 153.4,21.7 143.5,21.7 143.5,13 138.7,13 138.7,35 143.5,35 143.5,26.1 153.4,26.1 153.4,35 158.3,35 
	158.3,13 "/>
<polygon points="169.2,35 174.1,35 174.1,17.4 181.7,17.4 181.7,13 161.6,13 161.6,17.4 169.2,17.4 "/>
<path d="M191.8,31.3c-2.4,0-3.9-1.2-3.9-3.1c0-1.7,1.2-2.9,4.9-2.9h4.6C197.5,28.9,195.2,31.3,191.8,31.3z M193.2,12.6
	c-4.3,0-8,2.2-9.1,6l4.5,0.8c0.7-1.4,2.2-2.6,4.4-2.6c2.7,0,4.2,1.9,4.4,4.8h-4.7c-6.5,0-9.7,2.8-9.7,6.9c0,4.1,3.2,7,7.7,7
	c3.6,0,6-2.1,7.1-3.9l1,3.5h3.6V22.6C202.3,16.3,198.9,12.6,193.2,12.6z"/>
<polygon points="221.3,35 227.7,35 217.6,23.6 226.8,13 221,13 213.7,21.5 212.5,21.5 212.5,13 207.6,13 207.6,35 212.5,35 
	212.5,26.2 213.7,26.2 "/>
<polygon points="235.9,35 240.8,35 240.8,17.4 248.4,17.4 248.4,13 228.3,13 228.3,17.4 235.9,17.4 "/>
<path d="M261.1,16.8c3,0,5.3,1.9,6.1,4.7H255C255.9,18.7,258.1,16.8,261.1,16.8z M272.5,23.7c0-6.3-4.7-11.2-11.4-11.2
	c-6.7,0-11.4,4.8-11.4,11.4s4.7,11.4,11.4,11.4c4.6,0,8.9-2.2,10.5-6.3l-4.6-0.8c-1.1,1.6-3.1,2.7-5.7,2.7c-3.7,0-6.2-2.3-6.6-5.7
	h17.7C272.5,24.8,272.5,24.3,272.5,23.7z"/>
</svg>
