<?xml version="1.0" encoding="utf-8"?>
<!-- Generator: Adobe Illustrator 19.1.0, SVG Export Plug-In . SVG Version: 6.00 Build 0)  -->
<svg version="1.1" id="LOGO" xmlns="http://www.w3.org/2000/svg" xmlns:xlink="http://www.w3.org/1999/xlink" x="0px" y="0px"
	 viewBox="0 0 348.6 133.5" style="enable-background:new 0 0 348.6 133.5;" xml:space="preserve">
<style type="text/css">
	.st0{fill:#FF0000;}
</style>
<g id="XMLID_2_">
	<path id="XMLID_3_" class="st0" d="M34.6,72.3l-20,44.9H0l22-48C11.6,63.9,4.8,54.4,4.8,36.9C4.8,12.3,20.3,0,38.9,0h18.9v117.2
		H45.1V72.3H34.6z M45.1,10.7h-6.7c-10.2,0-20,6.7-20,26.2c0,18.9,9,24.9,20,24.9h6.7V10.7z"/>
	<path id="XMLID_6_" d="M118.6,34.6v82.6h-12.6V80.2h-19v37.1H74.1V34.6h12.8v35.1h19V34.6H118.6z M184.3,133.5h-11.5v-16.2h-35.4
		v16.2h-11.5v-26.7h5.1c7.5-17.5,8.4-43.1,8.4-65.1v-7.1h38.4v72.1h6.6V133.5z M165.1,44.9h-14.3v1.5c0,17.4-0.8,42.8-7.7,60.3h22
		V44.9z M219.6,118.4c-17.1,0-27.5-13.6-27.5-39c0-26.6,7.4-45.9,24.9-45.9c13.8,0,22.8,10.3,22.8,38.4v7.1h-34.4
		c0,18.7,5.2,28.5,15.4,28.5c7.2,0,13-3.3,16.2-5.6l3,9.8C234.6,115.8,227.8,118.4,219.6,118.4z M205.5,68.4h21.2
		c0-14.1-2.3-24.4-9.7-24.4C209.1,43.9,206.3,53.6,205.5,68.4z M265.6,76.1v41.2h-12.8V34.6h12.8v38.2l19.8-38.2h13l-20.5,38.9
		l23.4,43.8h-13.9L265.6,76.1z M303,75.9c0-25.9,10-42.5,29.4-42.5c7.4,0,11.6,2,15.2,4.3l-1.8,12.1c-3.4-3-8.4-5.7-13.6-5.7
		c-9.2,0-15.7,10.3-15.7,31.2c0,20.7,4.9,32.5,15.2,32.5c6.2,0,11-2.5,13.9-5.1l3,9.5c-4.4,3.8-9.7,6.2-17.2,6.2
		C313.7,118.4,303,104.1,303,75.9z"/>
</g>
</svg>
